<svg xmlns="http://www.w3.org/2000/svg" viewBox="0 0 500 500"><g id="freepik--background-complete--inject-2"><circle cx="439.92" cy="250.98" r="16.8" transform="translate(93.95 620.87) rotate(-76.62)" style="fill:#dbdbdb"></circle><circle cx="439.92" cy="250.98" r="9" transform="translate(80.51 607.82) rotate(-74.5)" style="fill:#ebebeb"></circle><circle cx="397.71" cy="250.98" r="16.8" transform="translate(67.77 586.09) rotate(-77.7)" style="fill:#ebebeb"></circle><circle cx="397.71" cy="250.98" r="9" transform="translate(67.99 586.31) rotate(-77.74)" style="fill:#fff"></circle><circle cx="60.08" cy="377.9" r="16.8" transform="translate(-249.62 153.17) rotate(-45)" style="fill:#ebebeb"></circle><circle cx="60.08" cy="377.9" r="9" transform="translate(-249.62 153.17) rotate(-45)" style="fill:#fff"></circle><circle cx="60.08" cy="335.59" r="16.8" transform="translate(-280.33 316.97) rotate(-76.72)" style="fill:#ebebeb"></circle><circle cx="60.08" cy="335.59" r="9" transform="translate(-280.33 316.97) rotate(-76.72)" style="fill:#fff"></circle><circle cx="60.08" cy="293.28" r="16.8" style="fill:#ebebeb"></circle><circle cx="60.08" cy="293.28" r="9" style="fill:#fff"></circle><circle cx="60.08" cy="250.98" r="16.8" transform="translate(-159.87 116) rotate(-45)" style="fill:#ebebeb"></circle><circle cx="60.08" cy="250.98" r="9" transform="translate(-159.87 116) rotate(-45)" style="fill:#fff"></circle><circle cx="60.08" cy="208.67" r="16.8" transform="translate(-156.81 219.2) rotate(-76.72)" style="fill:#ebebeb"></circle><circle cx="60.08" cy="208.67" r="9" transform="translate(-156.81 219.2) rotate(-76.72)" style="fill:#fff"></circle><circle cx="60.08" cy="166.36" r="16.8" style="fill:#ebebeb"></circle><circle cx="60.08" cy="166.36" r="9" style="fill:#fff"></circle><circle cx="60.08" cy="124.05" r="16.8" transform="translate(-70.12 78.82) rotate(-45)" style="fill:#dbdbdb"></circle><circle cx="60.08" cy="124.05" r="9" transform="translate(-70.12 78.82) rotate(-45)" style="fill:#ebebeb"></circle><circle cx="60.08" cy="81.74" r="16.8" transform="translate(-33.28 121.44) rotate(-76.72)" style="fill:#ebebeb"></circle><circle cx="60.08" cy="81.74" r="9" transform="translate(-33.28 121.44) rotate(-76.72)" style="fill:#fff"></circle><circle cx="102.29" cy="377.9" r="16.8" transform="translate(-237.26 183.01) rotate(-45)" style="fill:#ebebeb"></circle><circle cx="102.29" cy="377.9" r="9" transform="translate(-234.48 178.26) rotate(-44.19)" style="fill:#fff"></circle><circle cx="102.29" cy="335.59" r="16.8" transform="translate(-247.76 359.08) rotate(-76.89)" style="fill:#dbdbdb"></circle><circle cx="102.29" cy="335.59" r="9" transform="translate(-247.76 359.01) rotate(-76.88)" style="fill:#ebebeb"></circle><circle cx="102.29" cy="293.28" r="16.8" style="fill:#ebebeb"></circle><circle cx="102.29" cy="293.28" r="9" style="fill:#fff"></circle><circle cx="102.29" cy="250.98" r="16.8" transform="translate(-147.51 145.84) rotate(-45)" style="fill:#ebebeb"></circle><circle cx="102.29" cy="250.98" r="9" transform="translate(-146.01 142.34) rotate(-44.19)" style="fill:#fff"></circle><circle cx="102.29" cy="208.67" r="16.8" transform="translate(-124.14 260.95) rotate(-76.89)" style="fill:#ebebeb"></circle><circle cx="102.29" cy="208.67" r="9" transform="translate(-124.15 260.91) rotate(-76.88)" style="fill:#fff"></circle><circle cx="102.29" cy="166.36" r="16.8" style="fill:#ebebeb"></circle><circle cx="102.29" cy="166.36" r="9" style="fill:#fff"></circle><circle cx="102.29" cy="124.05" r="16.8" transform="translate(-57.76 108.66) rotate(-45)" style="fill:#ebebeb"></circle><circle cx="102.29" cy="124.05" r="9" transform="translate(-57.53 106.42) rotate(-44.19)" style="fill:#fff"></circle><circle cx="102.29" cy="81.74" r="16.8" transform="translate(-0.53 162.82) rotate(-76.89)" style="fill:#ebebeb"></circle><circle cx="102.29" cy="81.74" r="9" transform="translate(-0.55 162.8) rotate(-76.88)" style="fill:#fff"></circle><circle cx="144.49" cy="377.9" r="16.8" transform="translate(-256.59 431.02) rotate(-76.62)" style="fill:#ebebeb"></circle><circle cx="144.49" cy="377.9" r="9" transform="translate(-256.55 431.34) rotate(-76.67)" style="fill:#fff"></circle><circle cx="144.49" cy="335.59" r="16.8" transform="translate(-194.98 200.46) rotate(-45)" style="fill:#ebebeb"></circle><circle cx="144.49" cy="335.59" r="9" transform="translate(-194.98 200.46) rotate(-45)" style="fill:#fff"></circle><circle cx="144.49" cy="293.28" r="16.8" style="fill:#ebebeb"></circle><circle cx="144.49" cy="293.28" r="9" style="fill:#fff"></circle><circle cx="144.49" cy="250.98" r="16.8" transform="translate(-133.11 333.47) rotate(-76.62)" style="fill:#dbdbdb"></circle><circle cx="144.49" cy="250.98" r="9" transform="translate(-133.04 333.69) rotate(-76.67)" style="fill:#ebebeb"></circle><circle cx="144.49" cy="208.67" r="16.8" transform="translate(-105.23 163.29) rotate(-45)" style="fill:#ebebeb"></circle><circle cx="144.49" cy="208.67" r="9" transform="translate(-105.23 163.29) rotate(-45)" style="fill:#fff"></circle><circle cx="144.49" cy="166.36" r="16.8" style="fill:#ebebeb"></circle><circle cx="144.49" cy="166.36" r="9" style="fill:#fff"></circle><circle cx="144.49" cy="124.05" r="16.8" transform="translate(-9.63 235.91) rotate(-76.62)" style="fill:#ebebeb"></circle><circle cx="144.49" cy="124.05" r="9" transform="translate(-9.54 236.04) rotate(-76.67)" style="fill:#fff"></circle><circle cx="144.49" cy="81.74" r="16.8" transform="translate(-15.48 126.11) rotate(-45)" style="fill:#ebebeb"></circle><circle cx="144.49" cy="81.74" r="9" transform="translate(-15.48 126.11) rotate(-45)" style="fill:#fff"></circle><circle cx="186.69" cy="377.9" r="16.8" transform="translate(-223.67 474.17) rotate(-76.91)" style="fill:#ebebeb"></circle><circle cx="186.69" cy="377.9" r="9" transform="translate(-224.08 472.4) rotate(-76.67)" style="fill:#fff"></circle><circle cx="186.69" cy="335.59" r="16.8" transform="translate(-180.75 223.97) rotate(-44.01)" style="fill:#ebebeb"></circle><circle cx="186.69" cy="335.59" r="9" transform="translate(-182.62 230.31) rotate(-45)" style="fill:#fff"></circle><circle cx="186.69" cy="293.28" r="16.8" style="fill:#dbdbdb"></circle><circle cx="186.69" cy="293.28" r="9" style="fill:#ebebeb"></circle><circle cx="186.69" cy="250.98" r="16.8" transform="translate(-100.04 375.99) rotate(-76.91)" style="fill:#ebebeb"></circle><circle cx="186.69" cy="250.98" r="9" transform="translate(-100.57 374.75) rotate(-76.67)" style="fill:#fff"></circle><circle cx="186.69" cy="208.67" r="16.8" transform="translate(-92.56 188.32) rotate(-44.01)" style="fill:#ebebeb"></circle><circle cx="186.69" cy="208.67" r="9" transform="translate(-92.87 193.13) rotate(-45)" style="fill:#fff"></circle><circle cx="186.69" cy="166.36" r="16.8" style="fill:#ebebeb"></circle><circle cx="186.69" cy="166.36" r="9" style="fill:#fff"></circle><circle cx="186.69" cy="124.05" r="16.8" transform="translate(23.59 277.81) rotate(-76.91)" style="fill:#ebebeb"></circle><circle cx="186.69" cy="124.05" r="9" transform="translate(22.93 277.1) rotate(-76.67)" style="fill:#fff"></circle><circle cx="186.69" cy="81.74" r="16.8" transform="translate(-4.37 152.68) rotate(-44.01)" style="fill:#ebebeb"></circle><circle cx="186.69" cy="81.74" r="9" transform="translate(-3.12 155.96) rotate(-45)" style="fill:#fff"></circle><circle cx="228.9" cy="377.9" r="16.8" transform="translate(-126.09 114.87) rotate(-22.26)" style="fill:#ebebeb"></circle><circle cx="228.9" cy="377.9" r="9" transform="translate(-116.37 102.23) rotate(-20.19)" style="fill:#fff"></circle><circle cx="228.9" cy="335.59" r="16.8" transform="translate(-138.88 508.09) rotate(-80.83)" style="fill:#ebebeb"></circle><circle cx="228.9" cy="335.59" r="9" transform="translate(-137.58 510.84) rotate(-81.26)" style="fill:#fff"></circle><circle cx="228.9" cy="293.28" r="16.8" style="fill:#ebebeb"></circle><circle cx="228.9" cy="293.28" r="9" style="fill:#fff"></circle><circle cx="228.9" cy="250.98" r="16.8" transform="translate(-78.01 105.41) rotate(-22.26)" style="fill:#ebebeb"></circle><circle cx="228.9" cy="250.98" r="9" transform="translate(-72.56 94.43) rotate(-20.19)" style="fill:#fff"></circle><circle cx="228.9" cy="208.67" r="16.8" transform="translate(-13.58 401.39) rotate(-80.83)" style="fill:#ebebeb"></circle><circle cx="228.9" cy="208.67" r="9" transform="translate(-12.13 403.2) rotate(-81.26)" style="fill:#fff"></circle><circle cx="228.9" cy="166.36" r="16.8" style="fill:#ebebeb"></circle><circle cx="228.9" cy="166.36" r="9" style="fill:#fff"></circle><circle cx="228.9" cy="124.05" r="16.8" transform="translate(-29.93 95.95) rotate(-22.26)" style="fill:#ebebeb"></circle><circle cx="228.9" cy="124.05" r="9" transform="translate(-28.75 86.63) rotate(-20.19)" style="fill:#fff"></circle><circle cx="228.9" cy="81.74" r="16.8" transform="translate(111.72 294.69) rotate(-80.83)" style="fill:#ebebeb"></circle><circle cx="228.9" cy="81.74" r="9" transform="translate(113.33 295.56) rotate(-81.26)" style="fill:#fff"></circle><circle cx="271.1" cy="377.9" r="16.8" transform="translate(-122.94 130.85) rotate(-22.26)" style="fill:#ebebeb"></circle><circle cx="271.1" cy="377.9" r="9" transform="translate(-127.83 138.83) rotate(-23.41)" style="fill:#fff"></circle><circle cx="271.1" cy="335.59" r="16.8" transform="translate(-103.4 549.75) rotate(-80.83)" style="fill:#ebebeb"></circle><circle cx="271.1" cy="335.59" r="9" transform="translate(-104.25 548.26) rotate(-80.6)" style="fill:#fff"></circle><circle cx="271.1" cy="293.28" r="16.8" style="fill:#ebebeb"></circle><circle cx="271.1" cy="293.28" r="9" style="fill:#fff"></circle><circle cx="271.1" cy="250.98" r="16.8" transform="translate(-74.87 121.39) rotate(-22.26)" style="fill:#ebebeb"></circle><circle cx="271.1" cy="250.98" r="9" transform="translate(-77.4 128.38) rotate(-23.41)" style="fill:#fff"></circle><circle cx="271.1" cy="208.67" r="16.8" transform="translate(21.9 443.05) rotate(-80.83)" style="fill:#ebebeb"></circle><circle cx="271.1" cy="208.67" r="9" transform="translate(20.97 442.06) rotate(-80.6)" style="fill:#fff"></circle><circle cx="271.1" cy="166.36" r="16.8" style="fill:#ebebeb"></circle><circle cx="271.1" cy="166.36" r="9" style="fill:#fff"></circle><circle cx="271.1" cy="124.05" r="16.8" transform="translate(-26.79 111.94) rotate(-22.26)" style="fill:#ebebeb"></circle><circle cx="271.1" cy="124.05" r="9" transform="translate(-26.97 117.93) rotate(-23.41)" style="fill:#fff"></circle><circle cx="271.1" cy="81.74" r="16.8" transform="translate(147.2 336.36) rotate(-80.83)" style="fill:#ebebeb"></circle><circle cx="271.1" cy="81.74" r="9" transform="translate(146.19 335.86) rotate(-80.6)" style="fill:#fff"></circle><circle cx="313.31" cy="377.9" r="16.8" transform="translate(-166.62 274.73) rotate(-38.21)" style="fill:#ebebeb"></circle><circle cx="313.31" cy="377.9" r="9" transform="translate(-175.45 332.22) rotate(-45)" style="fill:#fff"></circle><circle cx="313.31" cy="335.59" r="16.8" transform="matrix(0.21, -0.98, 0.98, 0.21, -80.18, 572.14)" style="fill:#ebebeb"></circle><circle cx="313.31" cy="335.59" r="9" transform="translate(-85.09 563.77) rotate(-76.77)" style="fill:#fff"></circle><circle cx="313.31" cy="293.28" r="16.8" style="fill:#dbdbdb"></circle><circle cx="313.31" cy="293.28" r="9" style="fill:#ebebeb"></circle><circle cx="313.31" cy="250.98" r="16.8" transform="translate(-88.11 247.54) rotate(-38.21)" style="fill:#ebebeb"></circle><circle cx="313.31" cy="250.98" r="9" transform="translate(-85.7 295.05) rotate(-45)" style="fill:#fff"></circle><circle cx="313.31" cy="208.67" r="16.8" transform="matrix(0.21, -0.98, 0.98, 0.21, 43.96, 471.65)" style="fill:#ebebeb"></circle><circle cx="313.31" cy="208.67" r="9" transform="translate(38.47 465.9) rotate(-76.77)" style="fill:#fff"></circle><circle cx="313.31" cy="166.36" r="16.8" style="fill:#ebebeb"></circle><circle cx="313.31" cy="166.36" r="9" style="fill:#fff"></circle><circle cx="313.31" cy="124.05" r="16.8" transform="translate(-9.61 220.35) rotate(-38.21)" style="fill:#dbdbdb"></circle><circle cx="313.31" cy="124.05" r="9" transform="translate(4.05 257.87) rotate(-45)" style="fill:#ebebeb"></circle><circle cx="313.31" cy="81.74" r="16.8" transform="translate(168.1 371.15) rotate(-77.98)" style="fill:#ebebeb"></circle><circle cx="313.31" cy="81.74" r="9" transform="translate(162.02 368.02) rotate(-76.77)" style="fill:#fff"></circle><circle cx="355.51" cy="377.9" r="16.8" transform="translate(-163.09 362.07) rotate(-45)" style="fill:#ebebeb"></circle><circle cx="355.51" cy="377.9" r="9" transform="translate(-163.09 362.07) rotate(-45)" style="fill:#fff"></circle><circle cx="355.51" cy="335.59" r="16.8" transform="translate(-52.33 605.18) rotate(-76.81)" style="fill:#ebebeb"></circle><circle cx="355.51" cy="335.59" r="9" transform="translate(-52.54 604.86) rotate(-76.77)" style="fill:#fff"></circle><circle cx="355.51" cy="293.28" r="16.8" style="fill:#ebebeb"></circle><circle cx="355.51" cy="293.28" r="9" style="fill:#fff"></circle><circle cx="355.51" cy="250.98" r="16.8" transform="translate(-73.34 324.89) rotate(-45)" style="fill:#ebebeb"></circle><circle cx="355.51" cy="250.98" r="9" transform="translate(-73.34 324.89) rotate(-45)" style="fill:#fff"></circle><circle cx="355.51" cy="208.67" r="16.8" transform="translate(71.25 507.2) rotate(-76.81)" style="fill:#ebebeb"></circle><circle cx="355.51" cy="208.67" r="9" transform="translate(71.01 506.98) rotate(-76.77)" style="fill:#fff"></circle><circle cx="355.51" cy="166.36" r="16.8" style="fill:#ebebeb"></circle><circle cx="355.51" cy="166.36" r="9" style="fill:#fff"></circle><circle cx="355.51" cy="124.05" r="16.8" transform="translate(16.41 287.72) rotate(-45)" style="fill:#ebebeb"></circle><circle cx="355.51" cy="124.05" r="9" transform="translate(16.41 287.72) rotate(-45)" style="fill:#fff"></circle><circle cx="355.51" cy="81.74" r="16.8" transform="translate(194.82 409.23) rotate(-76.81)" style="fill:#ebebeb"></circle><circle cx="355.51" cy="81.74" r="9" transform="translate(194.57 409.11) rotate(-76.77)" style="fill:#fff"></circle><circle cx="397.71" cy="377.9" r="16.8" transform="translate(-56.24 685.97) rotate(-77.7)" style="fill:#ebebeb"></circle><circle cx="397.71" cy="377.9" r="9" transform="translate(-56.03 686.28) rotate(-77.74)" style="fill:#fff"></circle><circle cx="397.71" cy="335.59" r="16.8" transform="translate(-122.66 332.23) rotate(-39.79)" style="fill:#ebebeb"></circle><circle cx="397.71" cy="335.59" r="9" transform="translate(-122.64 330.25) rotate(-39.57)" style="fill:#fff"></circle><circle cx="397.71" cy="293.28" r="16.8" style="fill:#ebebeb"></circle><circle cx="397.71" cy="293.28" r="9" style="fill:#fff"></circle><circle cx="397.71" cy="208.67" r="16.8" transform="translate(-41.43 302.84) rotate(-39.79)" style="fill:#ebebeb"></circle><circle cx="397.71" cy="208.67" r="9" transform="translate(-41.79 301.17) rotate(-39.57)" style="fill:#fff"></circle><circle cx="397.71" cy="166.36" r="16.8" style="fill:#ebebeb"></circle><circle cx="397.71" cy="166.36" r="9" style="fill:#fff"></circle><circle cx="397.71" cy="124.05" r="16.8" transform="translate(191.78 486.2) rotate(-77.7)" style="fill:#ebebeb"></circle><circle cx="397.71" cy="124.05" r="9" transform="translate(192.02 486.34) rotate(-77.74)" style="fill:#fff"></circle><circle cx="397.71" cy="81.74" r="16.8" transform="translate(39.79 273.45) rotate(-39.79)" style="fill:#dbdbdb"></circle><circle cx="397.71" cy="81.74" r="9" transform="translate(39.06 272.08) rotate(-39.57)" style="fill:#ebebeb"></circle><circle cx="439.92" cy="377.9" r="16.8" transform="translate(-29.53 718.42) rotate(-76.62)" style="fill:#ebebeb"></circle><circle cx="439.92" cy="377.9" r="9" transform="translate(-41.8 700.83) rotate(-74.5)" style="fill:#fff"></circle><circle cx="439.92" cy="335.59" r="16.8" transform="translate(-108.45 409.36) rotate(-45)" style="fill:#ebebeb"></circle><circle cx="439.92" cy="335.59" r="9" transform="translate(-89.39 496.8) rotate(-54.28)" style="fill:#fff"></circle><circle cx="439.92" cy="293.28" r="16.8" style="fill:#ebebeb"></circle><circle cx="439.92" cy="293.28" r="9" style="fill:#fff"></circle><circle cx="439.92" cy="208.67" r="16.8" transform="translate(-18.7 372.18) rotate(-45)" style="fill:#ebebeb"></circle><circle cx="439.92" cy="208.67" r="9" transform="translate(13.66 443.98) rotate(-54.28)" style="fill:#fff"></circle><circle cx="439.92" cy="166.36" r="16.8" style="fill:#ebebeb"></circle><circle cx="439.92" cy="166.36" r="9" style="fill:#fff"></circle><circle cx="439.92" cy="124.05" r="16.8" transform="translate(217.43 523.32) rotate(-76.62)" style="fill:#ebebeb"></circle><circle cx="439.92" cy="124.05" r="9" transform="translate(202.82 514.82) rotate(-74.5)" style="fill:#fff"></circle><circle cx="439.92" cy="81.74" r="16.8" transform="translate(71.05 335.01) rotate(-45)" style="fill:#ebebeb"></circle><circle cx="439.92" cy="81.74" r="9" transform="translate(116.7 391.16) rotate(-54.28)" style="fill:#fff"></circle><polygon points="45.42 124.06 57.41 126.27 60.08 138.9 62.76 126.27 74.75 124.05 62.81 121.13 60.08 109.2 57.35 121.13 45.42 124.06" style="fill:#fff"></polygon><polygon points="129.83 250.98 141.81 253.19 144.49 265.83 147.17 253.19 159.15 250.97 147.22 248.06 144.49 236.13 141.76 248.06 129.83 250.98" style="fill:#fff"></polygon><polygon points="298.64 124.06 310.63 126.27 313.31 138.9 315.98 126.27 327.97 124.05 316.03 121.13 313.31 109.2 310.57 121.13 298.64 124.06" style="fill:#fff"></polygon><polygon points="383.05 81.75 395.03 83.96 397.71 96.59 400.39 83.96 412.37 81.74 400.44 78.83 397.71 66.89 394.98 78.83 383.05 81.75" style="fill:#fff"></polygon><polygon points="298.64 293.29 310.63 295.5 313.31 308.13 315.98 295.5 327.97 293.28 316.03 290.37 313.31 278.43 310.57 290.37 298.64 293.29" style="fill:#fff"></polygon><polygon points="425.25 250.98 437.24 253.19 439.92 265.83 442.59 253.19 454.58 250.97 442.64 248.06 439.92 236.13 437.19 248.06 425.25 250.98" style="fill:#fff"></polygon></g><g id="freepik--Character--inject-2"><path d="M253.17,215.52c-1.4,7.72-2.79,15.49-4.54,23.14a136,136,0,0,1-4,13.68,32.25,32.25,0,0,1-7,2.7c.4-1.13.78-2.27,1.16-3.38a156.53,156.53,0,0,0,4.42-16.35c.05-.19-.24-.23-.29,0-1.51,5.62-3.49,11.17-5.5,16.63-.44,1.19-.92,2.37-1.41,3.53a48.9,48.9,0,0,1-7,1c.52-1.29,1-2.6,1.49-3.87,1.15-3,2.24-6,3.23-9.09a162,162,0,0,0,4.72-18.42c.05-.26-.34-.3-.4-.05q-2.49,9.45-5.69,18.72c-1,2.91-2,5.82-3.17,8.69-.54,1.38-1.13,2.74-1.71,4.11a80.63,80.63,0,0,1-12.95-.46c-12.35-1.36-24.33-6.77-35-13.18a70.28,70.28,0,0,1-23.11-22,56.75,56.75,0,0,0,11.69-12.36.15.15,0,0,0-.23-.19q-3.9,4.13-8.16,7.87c-1.33,1.18-2.72,2.28-4.11,3.39-.08-.14-.16-.28-.25-.42-.54-.91-1.11-1.88-1.65-2.9a91.76,91.76,0,0,0,7.72-7.55,81.57,81.57,0,0,0,9.48-11.9.26.26,0,0,0-.41-.33c-3.36,3.65-6.61,7.39-10,11-2.41,2.54-5,4.91-7.47,7.38-1.49-3.14-2.41-6.61-1.07-10,1.12-2.77,3.42-4.79,5.43-6.86,2.27-2.31,4.28-4.85,6.41-7.29,8.9-10.23,25.23-106.64,60.65-101.8.11-.12,32.62-8,46.08,7.88C297,128,258.2,234.7,255.67,240.55a23.6,23.6,0,0,1-8.94,10.58,118.6,118.6,0,0,0,3.11-11.53,226,226,0,0,0,3.73-24A.2.2,0,0,0,253.17,215.52Z" style="fill:#263238"></path><path d="M215.32,90.05a37.66,37.66,0,0,0-12.73,9.88,75.17,75.17,0,0,0-9.19,13.28A181,181,0,0,0,180.64,143c-3.5,10.27-6.49,20.75-10.26,31a86.78,86.78,0,0,1-7.21,14.83c-3,4.6-6.74,8.89-11.52,11.59A37,37,0,0,0,162,188.21a85.17,85.17,0,0,0,6.37-14.85c3.55-10.23,6.27-20.82,9.89-31.15s7.74-20.55,13.5-29.94a72.74,72.74,0,0,1,9.94-13.14A36.14,36.14,0,0,1,215.32,90.05Z" style="fill:#263238"></path><path d="M270.59,96.88a48.08,48.08,0,0,1,9,16.54,75.05,75.05,0,0,1,3,18.69c.69,12.66-1,25.24-3.08,37.63a368.94,368.94,0,0,1-8.91,36.64c-1.91,6-4.06,11.9-6.34,17.75-1.18,2.91-2.4,5.81-3.69,8.67a49,49,0,0,1-4.4,8.32,61.12,61.12,0,0,0,3.76-8.58c1.11-2.93,2.13-5.89,3.13-8.85,2-5.91,4-11.87,5.62-17.88,3.16-12.07,6.23-24.22,8.34-36.52,2.27-12.25,3.88-24.68,3.64-37.11C280.56,119.83,278,107.14,270.59,96.88Z" style="fill:#263238"></path><path d="M322.41,462.07H213.9c-3.79-14.9-8.06-31.63-12-47-.05-.18-.09-.37-.14-.55,0,0,0,0,0-.05-.3-1.15-.59-2.3-.87-3.43-.1-.38-.19-.75-.28-1.13-.25-.92-.48-1.85-.71-2.75-6.13-24-11-43.05-11.08-43.48-.06-.27-.12-.48-.16-.64s-.1-.36-.1-.36H294.07Z" style="fill:#37474f"></path><path d="M290.66,362.61v.05c0,.06,0,.19,0,.36,0,1.23,0,2.48,0,3.72-.05,3.16-.2,6.32-.4,9.47a295.1,295.1,0,0,1-4.84,36.8,389.27,389.27,0,0,1-12.23,47.32h0l-.6,1.73H129.62c-1.07-4.72-2.81-12.66-2-21.59,2.34-24.53,17.39-73.8,18.75-76.73.33-.72.52-1.09.52-1.09h28.82l68.27,0h46.64Z" style="fill:#37474f"></path><path d="M293,454.32c-5.71,2.45-11.33,5.1-17,7.75h-7.52c1.51-.6,3-1.17,4.57-1.73h0c6.49-2.37,13.11-4.46,19.71-6.51A.27.27,0,0,1,293,454.32Z" style="fill:#263238"></path><path d="M281.93,395.48c-1.05,49.32-8.83,52.13-12.94,52.93a8,8,0,0,1-1.52.17c-.05,1.12-.21,2.24-.29,3.35-.12,1.75-.34,3.5-.56,5.23a40.79,40.79,0,0,1-1,4.91h-1.92c0-.05,0-.09,0-.14.23-1.7.48-3.43.83-5.1s.65-3.32,1-5c.23-1.11.39-2.25.6-3.38A8.16,8.16,0,0,1,260,443.7c-1.92-4.07-2.07-8.89-2-13.31.13-5.3.5-10.6.77-15.89.62-12.5,1.1-25.06,2.26-37.53a.39.39,0,0,1,.77,0c.16,9.67-.21,19.37-.41,29-.09,4.84-.23,9.68-.37,14.51-.12,4.61-.43,9.27-.09,13.87.26,3.48,1,10.26,5.57,10.67,4.28.4,6.64-4.23,7.71-7.61,2.71-8.61,3.68-17.9,4.55-26.85.53-5.31,1.05-10.59,1.37-15.91s.74-13.28.45-18.64c0-.34.48-.33.54,0C282,380.67,282,390,281.93,395.48Z" style="fill:#263238"></path><path d="M158.46,421c6.88.48,13.68,1.37,20.58.54a35.87,35.87,0,0,0,17.93-7c11.35-8.81,16.32-23.21,19.4-36.73a.24.24,0,0,1,.48.07c-1.28,11.72-3.81,23.84-11.38,33.28a36.54,36.54,0,0,1-12.07,9.95,35.49,35.49,0,0,1-16,3.28,77.11,77.11,0,0,1-19.11-2.58A.4.4,0,0,1,158.46,421Z" style="fill:#263238"></path><path d="M308.68,418.3c-1.91-.22-3.79-.06-5.73-1.47s-3.61-4-5.12-8.14c-3.32-9.14-4.95-22.79-6-35.43,0-.29-.15-.28-.13,0,.55,10.84,1.46,22.16,3.72,31.51A47,47,0,0,0,298.93,415c1.41,2.72,3,4,4.51,4.54a6.68,6.68,0,0,0,5.29-.53C308.87,419,308.83,418.32,308.68,418.3Z" style="fill:#263238"></path><path d="M142.64,445.18a119.26,119.26,0,0,0,2.6,16.89h-1.62a104.37,104.37,0,0,1-3.05-16.74,26.61,26.61,0,0,1,.14-6.43c1.24-8.29,3-16.38,4.7-24.51C149,398.17,152.84,382,157.24,366c-3.7,20.26-8.08,40.81-12.14,61C144.08,433.07,142.28,439,142.64,445.18Z" style="fill:#263238"></path><path d="M345.89,164.24c-2.16-3.3-16.66-29.86-30.76-39.88-7.47-5.31-29.64-17.59-33.44-13.45-3.47,3.78,1.78,8.64,1.78,8.64s-10-5.33-14.72,0,4.52,13,4.52,13-10.63-4.73-15,.91,6.27,11.85,6.27,11.85-9.52-4.78-11.17,1.38c-2,7.4,16.57,14.23,23.67,21.47,1.61,1.64,30.31,35.66,30.31,35.66Z" style="fill:#f7a9a0"></path><path d="M264.53,145.74c13.62,5,18.71,9.62,27.4,21,.17.22.54,0,.39-.23-7.5-11.9-13.06-18.55-27.58-21.42C264,144.93,263.88,145.5,264.53,145.74Z" style="fill:#263238"></path><path d="M273.2,133c13.7,6.48,19.26,11.38,29.24,22.61.14.16.43-.06.3-.23-8.87-11.84-14.57-18.35-29.1-23C273,132.13,272.58,132.69,273.2,133Z" style="fill:#263238"></path><path d="M283.94,120.1c12.8,7.23,19.14,12.35,27.42,24.49a.27.27,0,0,0,.47-.27c-7.25-13.21-15.1-19.65-27.63-24.58C283.34,119.4,283.13,119.65,283.94,120.1Z" style="fill:#263238"></path><path d="M307.4,215.57s-16.09-8.53-22.33-13.84-22.21-33.65-16.29-37.44c7.65-4.91,20.1,9.64,25.26,17.55,0,0,17.69-11.35,28.87-2.85S307.4,215.57,307.4,215.57Z" style="fill:#f7a9a0"></path><path d="M271.33,163.63c10.2.56,16.31,11.39,21.89,18.7a.84.84,0,0,0,1.38,0c7.73-4.27,19.88-8,28.24-3.91a.22.22,0,0,0,.22-.37c-8.37-5.63-20.6-2.91-28.77,2.31-5.61-7.59-12.21-18.18-23-16.83A.05.05,0,0,0,271.33,163.63Z" style="fill:#263238"></path><path d="M256.15,227.09C272.47,243.65,315.69,284,353,298c14.5,5.45,39.58-9.1,41.24-18.88,5.58-32.89-37.27-106.08-48.33-114.89-5.83-4.65-53.87,35.53-45.1,45.17,3.6,4,10.75,10.61,10.75,10.61-.92.74-13.73-5.63-43.87-14C238.82,198,246,216.82,256.15,227.09Z" style="fill:#f7a9a0"></path><path d="M363.37,280.21c-1.81-1.86-3.48-3.84-5.18-5.78s-3.49-3.83-5.19-5.78c-3.39-3.86-6.86-7.65-10.25-11.51q-10.19-11.59-19.91-23.53-2.73-3.36-5.44-6.73c-1.83-2.28-3.77-4.47-5.57-6.77-.2-.25-.56.06-.38.32,1.49,2.12,2.89,4.31,4.4,6.42s3.06,4.18,4.64,6.24q4.69,6.1,9.6,12c6.55,7.92,13.36,15.62,20.52,23,2,2.08,4.12,4.08,6.17,6.12s4.36,4,6.46,6C363.31,280.39,363.44,280.28,363.37,280.21Z" style="fill:#263238"></path><path d="M297.82,370.49l-5.71-46.14s16.76-18,8.38-39.78c-4.23-11-25.73-65.33-43.09-79.79-14.26-11.88-40.34-8.09-50,6-21.91,31.9-44.17,69.67-61.76,151.43Z" style="fill:#FFBF49"></path><g style="opacity:0.1"><path d="M297.19,365.4l-150.47-8.18c.28-1.26.56-2.52.84-3.76l149.16,8.11Z"></path><path d="M295.67,353.11l-146.16-7.95c.3-1.27.61-2.52.92-3.76l144.76,7.88Z"></path><path d="M294.15,340.81l-141.6-7.7q.49-1.91,1-3.75L293.67,337Z"></path><path d="M292.63,328.52l-136.78-7.45c.36-1.26.72-2.51,1.09-3.74l135.21,7.35Z"></path><path d="M299.34,312.86c-.59,1.34-1.21,2.58-1.83,3.71l-138.06-7.51,1.19-3.74Z"></path><path d="M302.63,300.83a32.57,32.57,0,0,1-.6,3.77l-138.62-7.54c.44-1.26.87-2.5,1.31-3.73Z"></path><path d="M302.52,292.42l-134.76-7.33c.48-1.26,1-2.5,1.45-3.73l132.56,7.21A34.35,34.35,0,0,1,302.52,292.42Z"></path><path d="M298.7,280l-126.13-6.86c.53-1.26,1.06-2.5,1.61-3.72l123,6.69C297.72,277.53,298.24,278.83,298.7,280Z"></path><path d="M293.58,267.5,177.9,261.21c.59-1.25,1.18-2.48,1.77-3.7l112.24,6.1C292.49,264.94,293,266.24,293.58,267.5Z"></path><path d="M288.09,255,183.8,249.32c.66-1.25,1.32-2.49,2-3.7l100.52,5.47C286.91,252.4,287.51,253.71,288.09,255Z"></path><path d="M282.17,242.46l-91.82-5c.72-1.25,1.44-2.48,2.17-3.69l87.68,4.77Z"></path><path d="M275.59,229.89l-78.06-4.25c.79-1.24,1.57-2.46,2.36-3.67l73.48,4C274.11,227.24,274.86,228.55,275.59,229.89Z"></path><path d="M267.92,217.26l-62.63-3.41c.7-1,1.39-2,2.09-3.06.14-.21.29-.41.43-.61l57.31,3.12C266.06,214.55,267,215.87,267.92,217.26Z"></path><path d="M257,204.45l-39.8-2.16a37.36,37.36,0,0,1,8.68-3.34l23.87,1.3A28.77,28.77,0,0,1,257,204.45Z"></path></g><path d="M267.73,312.27a160,160,0,0,0-23.51,2.48c-3.85.76-7.64,1.68-11.43,2.69-1.88.51-3.78.94-5.68,1.37a25.39,25.39,0,0,1-6.07.79.14.14,0,0,0,0,.28,42.92,42.92,0,0,0,5.78.23,41.6,41.6,0,0,0,5.57-.72c3.91-.73,7.79-1.64,11.69-2.4,7.88-1.55,15.75-3.09,23.72-4.07C268.16,312.88,268.11,312.25,267.73,312.27Z" style="fill:#263238"></path><path d="M286.72,320.34a170.59,170.59,0,0,0-19.4-2.06c-3.26-.15-6.5-.11-9.75,0-1.56.06-3.11.14-4.66.25-1.71.12-3.4.47-5.11.56-.17,0-.19.29,0,.28,1.61,0,3.24.19,4.85.24l4.87.16c3.24.1,6.48.25,9.73.33,6.5.15,13,.37,19.46.75C287.05,320.89,287.05,320.39,286.72,320.34Z" style="fill:#263238"></path><path d="M212.27,95.19c-2,3-27.19,4.79-33.15-9.51-5.87-14.08,13.4-32.18,27.07-22C214.82,70.08,216.55,88.78,212.27,95.19Z" style="fill:#263238"></path><path d="M187.91,65.36a21.34,21.34,0,0,1,13.44-4.25,12.88,12.88,0,0,1,11.09,6.53c2.37,3.94,3.08,8.78,3.06,13.53a40.45,40.45,0,0,1-.79,7.17,19.66,19.66,0,0,1-2.44,6.85A17.37,17.37,0,0,0,216,88.7a32.08,32.08,0,0,0,1.63-7.4c.46-5-.14-10.42-2.84-15a14.91,14.91,0,0,0-5.71-5.6A15.09,15.09,0,0,0,201.35,59,18.86,18.86,0,0,0,187.91,65.36Z" style="fill:#263238"></path><path d="M263.55,146c4.3,11,15.59,16.84,25.23,13.06s14-15.73,9.67-26.72-15.59-16.83-25.23-13.06S259.25,135,263.55,146Z" style="fill:#FFBF49"></path><path d="M258.16,148.89c4.79,12.22,17.35,18.73,28.08,14.53s15.54-17.5,10.76-29.73S279.64,115,268.92,119.16,253.38,136.66,258.16,148.89Z" style="fill:#c7c7c7"></path><path d="M225,209.13c1.14,2.91,19.31,25.2,34.88,19.87,6.54-2.24-2.12-27.53-2.12-27.53l2.11-28L222.63,156.8S224.5,207.9,225,209.13Z" style="fill:#f7a9a0"></path><path d="M259.83,173.44l-2,27.2c-4.07-.06-22.31-1.77-34.43-24.62-.4-10.4-.73-19.21-.73-19.21Z" style="fill:#263238"></path><path d="M289.05,128.77c17.33,42.64-6.25,57.83-15.45,61.56-8.35,3.38-37.22,13.84-58.86-26.78s-7.29-62.17,11.4-70.91S271.73,86.12,289.05,128.77Z" style="fill:#f7a9a0"></path><path d="M217.91,170c8.05-8.09,4.79-18.41,4.79-18.41a50.28,50.28,0,0,0,13.64-22.47c0,1,.28,8.31.28,12,26-15.3,26.89-39.75,26.89-39.75,12.3,5.75,16.19,10.87,18.54,13.27,0,0-6-17.17-18.92-25.44-15.83-10.12-29.55-2.14-29.55-2.14a41.88,41.88,0,0,0-34.18,25.77C188.44,139.12,217.91,170,217.91,170Z" style="fill:#263238"></path><path d="M256.13,128.86a54.63,54.63,0,0,1-12.39,10.42s-.07,0,0-.06a46.43,46.43,0,0,0,16-19.77,43.79,43.79,0,0,0,3-10.59c.57-3.81.87-8.21-.14-12a.23.23,0,0,1,.44-.12c1.07,4,2,7.63,1.77,11.78A32.54,32.54,0,0,1,261.87,120a37.41,37.41,0,0,1-5.74,8.83" style="fill:#263238"></path><path d="M224.53,161.65s-13.84-10.77-19-5.42,8.19,23,16.34,23.48a7.78,7.78,0,0,0,8.73-7.07Z" style="fill:#f7a9a0"></path><path d="M209.47,161.2c-.12,0-.09.2,0,.21,5.77.49,9.93,4.41,13.35,8.76-2.12-1.43-4.51-1.83-6.49.77-.11.14.08.31.22.23a4.78,4.78,0,0,1,5.53.05,23,23,0,0,1,3.66,3.32c.39.39,1.14-.11.8-.59l-.08-.1C224.6,167.27,216.7,159.69,209.47,161.2Z" style="fill:#263238"></path><path d="M277,126.78a30.08,30.08,0,0,1-3.12.59c-1.2.21-2.13.51-3.29,0a1.62,1.62,0,0,1-.77-1.84c.49-1.47,1.89-2.09,3.32-2.41a5.93,5.93,0,0,1,4.26.51A1.74,1.74,0,0,1,277,126.78Z" style="fill:#263238"></path><path d="M248.19,137.56a31,31,0,0,0,2.61-1.8c1-.7,1.86-1.16,2.32-2.35a1.65,1.65,0,0,0-.77-1.84c-1.39-.68-2.82-.13-4.06.67a6,6,0,0,0-2.63,3.38A1.74,1.74,0,0,0,248.19,137.56Z" style="fill:#263238"></path><path d="M265.91,167.39c.91.52,1.89,1.3,3,1.1a8.3,8.3,0,0,0,3.05-1.61.11.11,0,0,1,.17.12,4.19,4.19,0,0,1-3.4,2.65,3.35,3.35,0,0,1-3.09-2C265.56,167.44,265.78,167.32,265.91,167.39Z" style="fill:#263238"></path><path d="M274.83,152.59s2.07,4.24,2.75,6.33c.06.2-.41.46-1.11.73,0,0-.05,0-.08,0a10.5,10.5,0,0,1-10.89-.56c-.21-.16,0-.46.22-.4,3.42,1.13,6.65.66,9.94-.36,0-.63-3.77-7.14-3.45-7.28,1.12-.47,3.63-.43,5.11-.47-4-9-9.48-17.2-13.37-26.18-.14-.32.31-.58.5-.31,6.32,8.23,11.19,18.43,15.6,27.58C280.61,152.83,275.79,152.67,274.83,152.59Z" style="fill:#263238"></path><path d="M276,158.94a12.74,12.74,0,0,1-3.29,5.53,5.78,5.78,0,0,1-3.14,1.47c-2.58.3-3.48-1.81-3.77-3.81a13.49,13.49,0,0,1-.06-3.22A16.39,16.39,0,0,0,276,158.94Z" style="fill:#263238"></path><path d="M272.72,164.47a5.78,5.78,0,0,1-3.14,1.47c-2.58.3-3.48-1.81-3.77-3.81C268.41,161.4,271.55,162.12,272.72,164.47Z" style="fill:#ff9abb"></path><path d="M251.83,146.49a3.12,3.12,0,0,1-.4,1,2,2,0,0,1-1.38,1c-1.8.39-3.14-1.17-3.84-2.92-.05-.12,0-.22.1-.15,1,.66,2.18,1.32,3.13.83a3.78,3.78,0,0,0,1.35-1.81A10.31,10.31,0,0,0,251.83,146.49Z" style="fill:#263238"></path><path d="M250.79,146.32a4.7,4.7,0,0,1,.15-2.53,3.44,3.44,0,0,1,1.94-1.93,3.11,3.11,0,0,1,2.77.32,5.42,5.42,0,0,1,1.67,1.85,9.26,9.26,0,0,1,.63,1.36,6.64,6.64,0,0,1,.44,3.07,10.4,10.4,0,0,0-.91-2.07,12.54,12.54,0,0,0-1.13-1.7c-.86-1.09-2-1.85-3-1.41s-1.5,1.51-1.44,2.91a21.77,21.77,0,0,0,.73,4.29A9.78,9.78,0,0,1,250.79,146.32Z" style="fill:#263238"></path><path d="M279.16,134.83a3.05,3.05,0,0,0,1,.49,2,2,0,0,0,1.7-.16c1.6-.92,1.55-3,.9-4.74,0-.13-.14-.18-.18,0-.31,1.18-.73,2.44-1.77,2.71a3.72,3.72,0,0,1-2.21-.44A10.25,10.25,0,0,1,279.16,134.83Z" style="fill:#263238"></path><path d="M279.82,134a4.78,4.78,0,0,0-1.8-1.77,3.44,3.44,0,0,0-2.74-.14,3.08,3.08,0,0,0-1.84,2.09,5.37,5.37,0,0,0,0,2.49,10,10,0,0,0,.45,1.44,6.66,6.66,0,0,0,1.72,2.57,10.74,10.74,0,0,1-.71-2.14,14.72,14.72,0,0,1-.3-2c-.08-1.39.24-2.71,1.25-3s2.13.12,3,1.2a21.67,21.67,0,0,1,2.33,3.67A9.81,9.81,0,0,0,279.82,134Z" style="fill:#263238"></path><path d="M282.05,114.66c9.88,15.62,19.25,43.17,9.11,60.33-3.39,6.12-8.45,11.81-15.15,14.24a25.57,25.57,0,0,0,8.47-6.08,40.06,40.06,0,0,0,8.15-13.28,34.25,34.25,0,0,0,1.35-5c2.47-17-3.91-35.37-11.93-50.21Z" style="fill:#263238"></path><path d="M305.62,453.06l-2-.19c.05-.43,4.2-43.63,4.2-68.65,0-17.8-11.7-38.93-27.89-68.16-6.4-11.57-13.66-24.68-21-39.12-22.41-44.13-34.55-72.21-41.87-96.93l1.91-.56C226.27,204,238.37,232,260.72,276c7.32,14.4,14.57,27.49,21,39,16.34,29.5,28.14,50.81,28.14,69.13C309.82,409.33,305.66,452.63,305.62,453.06Z" style="fill:#263238"></path><path d="M206.42,156.71s-12-22.84-10.9-38.89c1.26-17.86,24.18-34.36,38.09-30.59,0,0-20.73.12-28.32,27.49-3.2,11.54,9.27,39.12,9.27,39.12Z" style="fill:#c7c7c7"></path><path d="M233.76,158.81c5.44,11.94,1.37,25.49-9.11,30.27s-23.38-1-28.83-13-1.37-25.5,9.1-30.28S228.31,146.87,233.76,158.81Z" style="fill:#c7c7c7"></path><path d="M227.92,160.65c4.9,10.74,1.24,22.92-8.18,27.22s-21-.93-25.92-11.66S192.59,153.3,202,149,223,149.92,227.92,160.65Z" style="fill:#FFBF49"></path><path d="M213.16,205.38c12.37.47,13.63,40.38,11.68,52.78s-23.8,29.49-38.19,28.33C169.31,285.09,195.68,204.71,213.16,205.38Z" style="fill:#f7a9a0"></path><path d="M193.56,223.12c-35.44,51.23-56.66,100.1-50.09,113.38,10.13,20.46,50.1,31.73,90.27,43.11,8,2.28,36.91-62.31,28.28-64.59-17.14-4.54-58.53-10-59.63-11.57-.93-1.3,11-39.37,15.87-67.09C225.66,194.15,209.46,200.14,193.56,223.12Z" style="fill:#f7a9a0"></path><path d="M256.88,314.41s29.57,3.27,44.56,7.21c20.07,5.27,33.82,13.58,39.85,19.33,12.58,12,43.47,36.95,33.71,45.22-8.83,7.48-38.26-19.43-38.26-19.43s27.76,37,15.47,44.07-33.67-40.41-33.67-40.41,27.67,38.67,13.84,44c-10.45,4-32.23-37.92-32.23-37.92s23.55,33.4,13,38c-11.68,5-34.21-32.38-34.21-32.38-28.82,7.08-45.43-1.35-56.53-8.75C219.7,371.47,256.88,314.41,256.88,314.41Z" style="fill:#f7a9a0"></path><path d="M328,353.32c3.42,4.23,6.91,8.49,9.94,13s5.9,9.15,8.5,13.93c6.37,11.73,8.52,20.07,8.33,19.56-4.47-11.83-15.07-28.18-18.1-32.7s-5.82-9.18-8.84-13.69C327.71,353.32,327.88,353.22,328,353.32Z" style="fill:#263238"></path><path d="M311.44,364c4.13,5.59,8.44,11,12.32,16.77s7,11.53,10.49,17.53c.27.46-.07.46-.35,0-3.7-5.85-7.57-11-11.33-16.79s-7.31-11.77-11.27-17.42C311.24,364,311.38,363.88,311.44,364Z" style="fill:#263238"></path><path d="M295.62,370.55c6.75,8.22,12,17.68,16.88,27.08.25.46-.19.4-.46-.06-5.45-9.11-9.65-16.29-16.7-26.79C295.23,370.62,295.48,370.38,295.62,370.55Z" style="fill:#263238"></path><path d="M208.56,278.75c2.06-10.84,4.92-21.63,8-32.25a212.72,212.72,0,0,1-8,32.25Z" style="fill:#263238"></path><path d="M217.59,249a13,13,0,0,1-3.43,7.6c1.09-2.62,2.13-5.08,3.43-7.6Z" style="fill:#263238"></path></g><g id="freepik--Device--inject-2"><path d="M39.52,462.16c134.85-.61,286.11-.62,421,0-134.85.62-286.11.61-421,0Z" style="fill:#263238"></path><rect x="52.2" y="449.01" width="395.6" height="13.15" style="fill:#FFBF49"></rect><rect x="52.2" y="449.01" width="395.6" height="13.15" style="opacity:0.2"></rect><rect x="46.15" y="427.22" width="407.69" height="21.79" style="fill:#FFBF49"></rect><polygon points="428.43 416.62 71.57 416.62 46.15 427.22 453.85 427.22 428.43 416.62" style="fill:#FFBF49"></polygon><polygon points="428.43 416.62 71.57 416.62 46.15 427.22 453.85 427.22 428.43 416.62" style="fill:#fff;opacity:0.30000000000000004"></polygon><rect x="321.72" y="432.1" width="112.71" height="32.47" style="fill:#FFBF49"></rect><rect x="321.72" y="432.1" width="112.71" height="32.47" style="fill:#fff;opacity:0.30000000000000004"></rect><path d="M427.33,442.81a4,4,0,1,1-4-4.09A4.05,4.05,0,0,1,427.33,442.81Z" style="fill:#455a64"></path><path d="M425.25,442.81a1.92,1.92,0,1,1-1.91-2A1.93,1.93,0,0,1,425.25,442.81Z" style="fill:#263238"></path><path d="M427.33,453.57a4,4,0,1,1-4-4.09A4.05,4.05,0,0,1,427.33,453.57Z" style="fill:#ebebeb"></path><path d="M425.25,453.57a1.92,1.92,0,1,1-1.91-2A1.93,1.93,0,0,1,425.25,453.57Z" style="fill:#263238"></path><path d="M415.88,442.81a4,4,0,1,1-4-4.09A4.05,4.05,0,0,1,415.88,442.81Z" style="fill:#ebebeb"></path><path d="M413.8,442.81a1.91,1.91,0,1,1-1.91-2A1.93,1.93,0,0,1,413.8,442.81Z" style="fill:#263238"></path><path d="M415.88,453.57a4,4,0,1,1-4-4.09A4.05,4.05,0,0,1,415.88,453.57Z" style="opacity:0.2"></path><path d="M413.8,453.57a1.91,1.91,0,1,1-1.91-2A1.93,1.93,0,0,1,413.8,453.57Z" style="fill:#263238"></path><path d="M404.43,442.81a4,4,0,1,1-4-4.09A4,4,0,0,1,404.43,442.81Z" style="fill:#455a64"></path><path d="M402.36,442.81a1.92,1.92,0,1,1-1.92-2A1.94,1.94,0,0,1,402.36,442.81Z" style="fill:#263238"></path><path d="M404.43,453.57a4,4,0,1,1-4-4.09A4,4,0,0,1,404.43,453.57Z" style="fill:#ebebeb"></path><path d="M402.36,453.57a1.92,1.92,0,1,1-1.92-2A1.94,1.94,0,0,1,402.36,453.57Z" style="fill:#263238"></path><path d="M387.78,442.81a4,4,0,1,1-4-4.09A4,4,0,0,1,387.78,442.81Z" style="opacity:0.2"></path><path d="M385.71,442.81a1.92,1.92,0,1,1-1.92-2A1.94,1.94,0,0,1,385.71,442.81Z" style="fill:#263238"></path><path d="M387.78,453.57a4,4,0,1,1-4-4.09A4,4,0,0,1,387.78,453.57Z" style="fill:#ebebeb"></path><path d="M385.71,453.57a1.92,1.92,0,1,1-1.92-2A1.94,1.94,0,0,1,385.71,453.57Z" style="fill:#263238"></path><path d="M376.34,442.81a4,4,0,1,1-4-4.09A4.05,4.05,0,0,1,376.34,442.81Z" style="opacity:0.2"></path><path d="M374.26,442.81a1.92,1.92,0,1,1-1.92-2A1.94,1.94,0,0,1,374.26,442.81Z" style="fill:#263238"></path><path d="M376.34,453.57a4,4,0,1,1-4-4.09A4.05,4.05,0,0,1,376.34,453.57Z" style="fill:#ebebeb"></path><path d="M374.26,453.57a1.92,1.92,0,1,1-1.92-2A1.94,1.94,0,0,1,374.26,453.57Z" style="fill:#263238"></path><rect x="328.64" y="438.12" width="24.07" height="2.73" transform="translate(681.35 878.96) rotate(180)" style="fill:#263238"></rect><rect x="328.64" y="444.17" width="24.07" height="2.73" transform="translate(681.35 891.08) rotate(180)" style="fill:#263238"></rect><rect x="328.64" y="450.23" width="24.07" height="2.73" transform="translate(681.35 903.2) rotate(180)" style="fill:#263238"></rect><polygon points="185.44 421.83 72.76 421.83 78.25 415.46 179.95 415.46 185.44 421.83" style="fill:#FFBF49"></polygon><path d="M185.44,421.83c0-1-25.22-1.74-56.34-1.74s-56.34.78-56.34,1.74,25.22,1.74,56.34,1.74S185.44,422.79,185.44,421.83Z" style="fill:#FFBF49"></path><g style="opacity:0.2"><polygon points="185.44 421.83 72.76 421.83 78.25 415.46 179.95 415.46 185.44 421.83"></polygon><path d="M185.44,421.83c0-1-25.22-1.74-56.34-1.74s-56.34.78-56.34,1.74,25.22,1.74,56.34,1.74S185.44,422.79,185.44,421.83Z"></path></g><ellipse cx="129.1" cy="415.46" rx="50.85" ry="1.74" style="fill:#FFBF49"></ellipse><polygon points="427.24 421.83 314.56 421.83 320.05 415.46 421.75 415.46 427.24 421.83" style="fill:#FFBF49"></polygon><path d="M427.24,421.83c0-1-25.22-1.74-56.34-1.74s-56.34.78-56.34,1.74,25.22,1.74,56.34,1.74S427.24,422.79,427.24,421.83Z" style="fill:#FFBF49"></path><g style="opacity:0.2"><polygon points="427.24 421.83 314.56 421.83 320.05 415.46 421.75 415.46 427.24 421.83"></polygon><path d="M427.24,421.83c0-1-25.22-1.74-56.34-1.74s-56.34.78-56.34,1.74,25.22,1.74,56.34,1.74S427.24,422.79,427.24,421.83Z"></path></g><ellipse cx="370.9" cy="415.46" rx="50.85" ry="1.74" style="fill:#FFBF49"></ellipse><rect x="239.73" y="416.82" width="0.73" height="6.6" style="fill:#263238"></rect><rect x="252.19" y="416.82" width="0.73" height="6.6" style="fill:#263238"></rect><polygon points="203.46 417.26 194.4 417.26 194.84 410.8 203.02 410.8 203.46 417.26" style="fill:#263238"></polygon><path d="M203.46,417.26c0-.52-2-.94-4.53-.94s-4.53.42-4.53.94,2,.95,4.53.95S203.46,417.79,203.46,417.26Z" style="fill:#263238"></path><path d="M203,410.8c0-.27-1.83-.5-4.09-.5s-4.09.23-4.09.5,1.83.5,4.09.5S203,411.08,203,410.8Z" style="fill:#37474f"></path><polygon points="216.54 417.26 207.48 417.26 207.92 410.8 216.1 410.8 216.54 417.26" style="fill:#263238"></polygon><path d="M216.54,417.26c0-.52-2-.94-4.53-.94s-4.53.42-4.53.94,2,.95,4.53.95S216.54,417.79,216.54,417.26Z" style="fill:#263238"></path><path d="M216.1,410.8c0-.27-1.83-.5-4.09-.5s-4.09.23-4.09.5,1.83.5,4.09.5S216.1,411.08,216.1,410.8Z" style="fill:#37474f"></path><polygon points="229.62 417.26 220.56 417.26 221 410.8 229.18 410.8 229.62 417.26" style="fill:#263238"></polygon><path d="M229.62,417.26c0-.52-2-.94-4.53-.94s-4.53.42-4.53.94,2,.95,4.53.95S229.62,417.79,229.62,417.26Z" style="fill:#263238"></path><path d="M229.18,410.8c0-.27-1.83-.5-4.09-.5s-4.09.23-4.09.5,1.83.5,4.09.5S229.18,411.08,229.18,410.8Z" style="fill:#37474f"></path><polygon points="269.11 417.4 263.23 417.4 263.51 410.94 268.82 410.94 269.11 417.4" style="fill:#263238"></polygon><ellipse cx="266.17" cy="417.4" rx="2.94" ry="0.95" style="fill:#263238"></ellipse><path d="M268.82,410.94c0-.28-1.19-.5-2.65-.5s-2.66.22-2.66.5,1.19.5,2.66.5S268.82,411.21,268.82,410.94Z" style="fill:#37474f"></path><polygon points="281.04 417.4 275.16 417.4 275.44 410.94 280.75 410.94 281.04 417.4" style="fill:#263238"></polygon><path d="M281,417.4c0-.52-1.32-.95-2.94-.95s-2.94.43-2.94.95,1.31.94,2.94.94S281,417.92,281,417.4Z" style="fill:#263238"></path><path d="M280.75,410.94c0-.28-1.19-.5-2.65-.5s-2.66.22-2.66.5,1.19.5,2.66.5S280.75,411.21,280.75,410.94Z" style="fill:#37474f"></path><polygon points="292.97 417.4 287.09 417.4 287.38 410.94 292.69 410.94 292.97 417.4" style="fill:#263238"></polygon><ellipse cx="290.03" cy="417.4" rx="2.94" ry="0.95" style="fill:#263238"></ellipse><path d="M292.69,410.94c0-.28-1.19-.5-2.66-.5s-2.65.22-2.65.5,1.19.5,2.65.5S292.69,411.21,292.69,410.94Z" style="fill:#37474f"></path><polygon points="304.91 417.4 299.02 417.4 299.31 410.94 304.62 410.94 304.91 417.4" style="fill:#263238"></polygon><ellipse cx="301.97" cy="417.4" rx="2.94" ry="0.95" style="fill:#263238"></ellipse><path d="M304.62,410.94c0-.28-1.19-.5-2.65-.5s-2.66.22-2.66.5,1.19.5,2.66.5S304.62,411.21,304.62,410.94Z" style="fill:#37474f"></path><polygon points="268.05 421.58 261.75 421.58 262.06 414.66 267.74 414.66 268.05 421.58" style="fill:#263238"></polygon><path d="M268.05,421.58c0-.56-1.41-1-3.15-1s-3.15.45-3.15,1,1.41,1,3.15,1S268.05,422.14,268.05,421.58Z" style="fill:#263238"></path><path d="M267.74,414.66c0-.29-1.27-.53-2.84-.53s-2.84.24-2.84.53,1.27.54,2.84.54S267.74,415,267.74,414.66Z" style="fill:#37474f"></path><polygon points="280.83 421.58 274.53 421.58 274.83 414.66 280.52 414.66 280.83 421.58" style="fill:#263238"></polygon><path d="M280.83,421.58c0-.56-1.41-1-3.15-1s-3.15.45-3.15,1,1.41,1,3.15,1S280.83,422.14,280.83,421.58Z" style="fill:#263238"></path><path d="M280.52,414.66c0-.29-1.27-.53-2.84-.53s-2.85.24-2.85.53,1.28.54,2.85.54S280.52,415,280.52,414.66Z" style="fill:#37474f"></path><polygon points="293.6 421.58 287.31 421.58 287.61 414.66 293.3 414.66 293.6 421.58" style="fill:#263238"></polygon><path d="M293.6,421.58c0-.56-1.41-1-3.15-1s-3.14.45-3.14,1,1.4,1,3.14,1S293.6,422.14,293.6,421.58Z" style="fill:#263238"></path><path d="M293.3,414.66c0-.29-1.28-.53-2.85-.53s-2.84.24-2.84.53,1.27.54,2.84.54S293.3,415,293.3,414.66Z" style="fill:#37474f"></path><polygon points="306.38 421.58 300.08 421.58 300.39 414.66 306.07 414.66 306.38 421.58" style="fill:#263238"></polygon><path d="M306.38,421.58c0-.56-1.41-1-3.15-1s-3.15.45-3.15,1,1.41,1,3.15,1S306.38,422.14,306.38,421.58Z" style="fill:#263238"></path><path d="M306.07,414.66c0-.29-1.27-.53-2.84-.53s-2.84.24-2.84.53,1.27.54,2.84.54S306.07,415,306.07,414.66Z" style="fill:#37474f"></path><polygon points="203.07 421.61 193.62 421.61 194.08 414.87 202.61 414.87 203.07 421.61" style="fill:#263238"></polygon><path d="M203.07,421.61c0-.55-2.12-1-4.73-1s-4.72.44-4.72,1,2.11,1,4.72,1S203.07,422.15,203.07,421.61Z" style="fill:#263238"></path><path d="M202.61,414.87c0-.29-1.91-.52-4.27-.52s-4.26.23-4.26.52,1.91.52,4.26.52S202.61,415.16,202.61,414.87Z" style="fill:#37474f"></path><polygon points="216.73 421.61 207.28 421.61 207.75 414.87 216.27 414.87 216.73 421.61" style="fill:#263238"></polygon><path d="M216.73,421.61c0-.55-2.11-1-4.72-1s-4.72.44-4.72,1,2.11,1,4.72,1S216.73,422.15,216.73,421.61Z" style="fill:#263238"></path><path d="M216.27,414.87c0-.29-1.91-.52-4.26-.52s-4.26.23-4.26.52,1.9.52,4.26.52S216.27,415.16,216.27,414.87Z" style="fill:#37474f"></path><polygon points="230.4 421.61 220.95 421.61 221.41 414.87 229.94 414.87 230.4 421.61" style="fill:#263238"></polygon><path d="M230.4,421.61c0-.55-2.12-1-4.72-1s-4.73.44-4.73,1,2.12,1,4.73,1S230.4,422.15,230.4,421.61Z" style="fill:#263238"></path><path d="M229.94,414.87c0-.29-1.91-.52-4.26-.52s-4.27.23-4.27.52,1.91.52,4.27.52S229.94,415.16,229.94,414.87Z" style="fill:#37474f"></path><polygon points="244.77 419.42 235.43 419.42 234.87 422.6 245.33 422.6 244.77 419.42" style="fill:#263238"></polygon><polygon points="244.21 418.88 235.99 418.88 235.43 419.42 244.77 419.42 244.21 418.88" style="fill:#37474f"></polygon><polygon points="257.23 416.92 247.89 416.92 247.33 420.1 257.79 420.1 257.23 416.92" style="fill:#263238"></polygon><polygon points="256.67 416.38 248.45 416.38 247.89 416.92 257.23 416.92 256.67 416.38" style="fill:#37474f"></polygon><rect x="57.46" y="433" width="18.97" height="10.24" style="fill:#263238"></rect><rect x="84.05" y="433" width="18.97" height="10.24" style="fill:#263238"></rect><rect x="196.46" y="429.57" width="107.07" height="17.09" style="fill:#fff;opacity:0.5"></rect><rect x="200.9" y="433.38" width="98.19" height="1.68" style="fill:#263238"></rect><rect x="200.9" y="437.28" width="98.19" height="1.68" style="fill:#263238"></rect><rect x="200.9" y="441.17" width="98.19" height="1.68" style="fill:#263238"></rect></g><g id="freepik--Lines--inject-2"><polygon points="380.94 383.21 404.92 364.73 408.67 368.1 423.86 354.01 430.58 363.89 408.13 374.99 404.25 371.44 380.94 383.21" style="fill:#FFBF49"></polygon><polygon points="372.57 390.65 399.11 405.22 402.3 401.32 419.48 412.9 424.6 402.1 400.71 394.59 397.42 398.7 372.57 390.65" style="fill:#FFBF49"></polygon><polygon points="393.56 387.67 418.55 379.26 420.68 383.1 439.92 375.81 442.64 385.85 418.28 388.62 416.1 384.59 393.56 387.67" style="fill:#FFBF49"></polygon></g><g id="freepik--musical-notes--inject-2"><path d="M383.62,157.35a6.61,6.61,0,1,1-5.32-7.69A6.61,6.61,0,0,1,383.62,157.35Z" style="fill:#FFBF49"></path><rect x="381.6" y="123.86" width="5.05" height="33.23" transform="translate(31.4 -66.57) rotate(10.32)" style="fill:#FFBF49"></rect><path d="M406.39,151.72a6.61,6.61,0,1,1-5.32-7.69A6.62,6.62,0,0,1,406.39,151.72Z" style="fill:#FFBF49"></path><rect x="404.37" y="118.23" width="5.05" height="33.23" transform="translate(30.76 -70.74) rotate(10.32)" style="fill:#FFBF49"></rect><polygon points="412.35 119.02 383.82 128.05 384.62 123.68 413.15 114.65 412.35 119.02" style="fill:#FFBF49"></polygon><polygon points="410.85 127.26 382.32 136.28 383.12 131.91 411.65 122.89 410.85 127.26" style="fill:#FFBF49"></polygon><path d="M100.18,379.24a6.61,6.61,0,1,1-5.32-7.68A6.6,6.6,0,0,1,100.18,379.24Z" style="fill:#FFBF49"></path><rect x="98.16" y="345.76" width="5.05" height="33.23" transform="translate(66.57 -12.18) rotate(10.32)" style="fill:#FFBF49"></rect><path d="M123,373.62a6.61,6.61,0,1,1-5.32-7.69A6.61,6.61,0,0,1,123,373.62Z" style="fill:#FFBF49"></path><rect x="120.94" y="340.13" width="5.05" height="33.23" transform="matrix(0.98, 0.18, -0.18, 0.98, 65.93, -16.35)" style="fill:#FFBF49"></rect><polygon points="128.91 340.92 100.39 349.94 101.18 345.57 129.71 336.55 128.91 340.92" style="fill:#FFBF49"></polygon><polygon points="127.41 349.16 98.89 358.18 99.68 353.81 128.21 344.79 127.41 349.16" style="fill:#FFBF49"></polygon><path d="M75.24,315.63a6.61,6.61,0,1,1-5.32-7.69A6.62,6.62,0,0,1,75.24,315.63Z" style="fill:#FFBF49"></path><rect x="73.22" y="282.14" width="5.05" height="33.23" transform="translate(54.77 -8.74) rotate(10.32)" style="fill:#FFBF49"></rect><rect x="93.74" y="276.99" width="5.05" height="9.61" transform="translate(52.06 -12.69) rotate(10.32)" style="fill:#FFBF49"></rect><polygon points="99.38 278.78 75.44 286.33 76.24 281.96 100.18 274.41 99.38 278.78" style="fill:#FFBF49"></polygon><polygon points="97.88 287.02 73.94 294.57 74.74 290.2 98.68 282.65 97.88 287.02" style="fill:#FFBF49"></polygon><path d="M412.94,281.34a6.61,6.61,0,1,1-5.32-7.69A6.61,6.61,0,0,1,412.94,281.34Z" style="fill:#FFBF49"></path><rect x="410.92" y="247.86" width="5.05" height="33.23" transform="translate(54.09 -69.82) rotate(10.32)" style="fill:#FFBF49"></rect><rect x="431.44" y="242.7" width="5.05" height="9.61" transform="matrix(0.98, 0.18, -0.18, 0.98, 51.4, -73.79)" style="fill:#FFBF49"></rect><polygon points="437.08 244.49 413.14 252.04 413.94 247.67 437.88 240.12 437.08 244.49" style="fill:#FFBF49"></polygon><polygon points="435.58 252.73 411.64 260.28 412.44 255.91 436.38 248.36 435.58 252.73" style="fill:#FFBF49"></polygon><path d="M359.93,341.17a5.62,5.62,0,1,1-4.52-6.53A5.61,5.61,0,0,1,359.93,341.17Z" style="fill:#FFBF49"></path><rect x="358.22" y="312.71" width="4.29" height="28.24" transform="translate(64.41 -59.29) rotate(10.32)" style="fill:#FFBF49"></rect><path d="M379.29,336.39a5.62,5.62,0,1,1-4.52-6.53A5.63,5.63,0,0,1,379.29,336.39Z" style="fill:#FFBF49"></path><rect x="377.57" y="307.93" width="4.29" height="28.24" transform="translate(63.87 -62.84) rotate(10.33)" style="fill:#FFBF49"></rect><polygon points="384.35 308.6 360.11 316.27 360.78 312.56 385.03 304.89 384.35 308.6" style="fill:#FFBF49"></polygon><polygon points="383.08 315.6 358.83 323.27 359.51 319.56 383.75 311.89 383.08 315.6" style="fill:#FFBF49"></polygon><path d="M153.37,240.79a5.62,5.62,0,1,1-4.52-6.53A5.63,5.63,0,0,1,153.37,240.79Z" style="fill:#FFBF49"></path><rect x="151.65" y="212.33" width="4.29" height="28.24" transform="translate(43.08 -23.9) rotate(10.32)" style="fill:#FFBF49"></rect><rect x="169.09" y="207.95" width="4.29" height="8.16" transform="translate(40.78 -27.26) rotate(10.33)" style="fill:#FFBF49"></rect><polygon points="173.88 209.47 153.54 215.89 154.22 212.18 174.56 205.76 173.88 209.47" style="fill:#FFBF49"></polygon><polygon points="172.61 216.47 152.26 222.89 152.94 219.18 173.29 212.76 172.61 216.47" style="fill:#FFBF49"></polygon></g><g id="freepik--Stars--inject-2"><polygon points="333.57 163.87 345.55 166.08 348.23 178.72 350.9 166.08 362.89 163.86 350.96 160.94 348.23 149.01 345.5 160.94 333.57 163.87" style="fill:#fff"></polygon><path d="M348.23,181.13l-3.1-14.62-13.95-2.57,13.9-3.41,3.15-13.76,3.15,13.76,13.89,3.4-13.94,2.58ZM336,163.8l10,1.85,2.26,10.65,2.26-10.65,10-1.86-10-2.43-2.31-10.1-2.31,10.1Z" style="fill:#263238"></path><polygon points="125.78 324.38 137.77 326.6 140.44 339.23 143.12 326.6 155.11 324.37 143.17 321.46 140.44 309.53 137.72 321.46 125.78 324.38" style="fill:#263238"></polygon><polygon points="329.79 289.66 336.49 290.9 337.98 297.96 339.48 290.9 346.18 289.66 339.51 288.03 337.98 281.36 336.46 288.03 329.79 289.66" style="fill:#263238"></polygon><polygon points="140.65 67.64 147.34 68.88 148.84 75.94 150.34 68.88 157.04 67.64 150.37 66.01 148.84 59.34 147.32 66.01 140.65 67.64" style="fill:#fff"></polygon><path d="M148.84,78.35l-1.91-9-8.66-1.6,8.63-2.12,1.94-8.5,1.95,8.5,8.63,2.11-8.66,1.61ZM143,67.57l4.74.88,1.07,5.08,1.08-5.08,4.74-.88L150,66.42l-1.11-4.84-1.1,4.84Z" style="fill:#263238"></path><polygon points="394.64 232.94 401.34 234.18 402.84 241.24 404.34 234.18 411.03 232.94 404.36 231.31 402.84 224.64 401.31 231.31 394.64 232.94" style="fill:#fff"></polygon><path d="M402.84,243.65l-1.92-9-8.66-1.6,8.63-2.11,1.95-8.5,1.94,8.5,8.63,2.11-8.65,1.6ZM397,232.87l4.73.88,1.08,5.08,1.08-5.08,4.73-.88-4.7-1.15-1.11-4.84-1.11,4.84Z" style="fill:#263238"></path><polygon points="154.82 394.6 161.51 395.84 163.01 402.9 164.51 395.84 171.21 394.6 164.54 392.97 163.01 386.3 161.49 392.97 154.82 394.6" style="fill:#fff"></polygon><path d="M163,405.31l-1.92-9-8.65-1.6,8.63-2.11,1.94-8.5,2,8.5,8.63,2.11-8.66,1.6Zm-5.81-10.78,4.73.88,1.08,5.08,1.08-5.08,4.74-.88-4.71-1.15L163,388.54l-1.11,4.84Z" style="fill:#263238"></path><polygon points="374.75 105.19 381.45 106.42 382.95 113.49 384.45 106.42 391.14 105.18 384.48 103.55 382.95 96.88 381.42 103.55 374.75 105.19" style="fill:#263238"></polygon><polygon points="88.97 222.89 95.66 224.13 97.16 231.19 98.66 224.13 105.36 222.89 98.69 221.26 97.16 214.59 95.64 221.26 88.97 222.89" style="fill:#263238"></polygon></g></svg>
