<svg xmlns="http://www.w3.org/2000/svg" viewBox="0 0 500 500"><g id="freepik--background-complete--inject-5"><polygon points="112.51 199.17 141.99 75.66 188.21 190.41 174.66 186.42 208.13 254.95 189 248.58 212.11 274.76 108.52 274.76 117.29 251.76 108.52 263.72 127.68 191.43 112.51 199.17" style="fill:#f5f5f5"></polygon><polygon points="41.09 175.86 72.1 45.96 120.7 166.64 106.46 162.45 141.66 234.53 121.54 227.82 145.85 274.76 36.9 274.76 46.12 231.18 36.9 243.75 57.05 167.71 41.09 175.86" style="fill:#f5f5f5"></polygon><path d="M41.47,274.16s29.46-130.7,162.47-142.08c0,0,119.24,44.26,129.42,145.43Z" style="fill:#e0e0e0"></path><path d="M144.05,270.07a1.78,1.78,0,0,1-.08-.4c0-.29-.09-.68-.16-1.18-.13-1.07-.33-2.6-.57-4.55a140.14,140.14,0,0,1-.72-16.86,136.81,136.81,0,0,1,3.07-24.82,139,139,0,0,1,9.84-29q.87-1.84,1.74-3.66c.59-1.21,1.23-2.38,1.84-3.56,1.19-2.37,2.54-4.6,3.81-6.84,2.65-4.39,5.32-8.56,8.1-12.37a179.17,179.17,0,0,1,16-19.28,164.45,164.45,0,0,1,12.22-11.63c1.52-1.28,2.72-2.26,3.56-2.9.41-.32.73-.55.95-.71s.34-.23.34-.23a1.79,1.79,0,0,1-.31.27l-.92.76c-.81.66-2,1.66-3.49,3-3,2.64-7.22,6.54-12.08,11.73a183,183,0,0,0-15.83,19.31c-2.76,3.81-5.42,8-8.05,12.35-1.26,2.23-2.6,4.46-3.79,6.82-.61,1.18-1.25,2.34-1.83,3.55s-1.16,2.42-1.74,3.65a138.23,138.23,0,0,0-13,53.61,149,149,0,0,0,.55,16.83c.2,1.95.36,3.48.48,4.55,0,.51.08.9.11,1.19A2.53,2.53,0,0,1,144.05,270.07Z" style="fill:#f5f5f5"></path><path d="M314.47,273a4.22,4.22,0,0,1-.14-.46l-.36-1.38c-.31-1.23-.75-3-1.32-5.29s-1.18-5.13-2.23-8.33c-.5-1.6-1-3.32-1.58-5.15s-1.09-3.76-1.88-5.73-1.5-4.06-2.31-6.22c-.41-1.08-.79-2.2-1.24-3.31s-1-2.21-1.49-3.35l-3.14-7-3.8-7.23a169.33,169.33,0,0,0-20.7-29.81,188,188,0,0,0-26.71-24.62L241,160.25,234.57,156l-3.06-2c-1-.65-2-1.23-3-1.83l-5.71-3.39c-1.8-1.11-3.59-2-5.27-2.94l-4.74-2.55c-2.94-1.64-5.57-2.84-7.69-3.9L200.18,137l-1.27-.64-.42-.23s.15,0,.44.18l1.29.59,4.93,2.33c2.14,1,4.79,2.21,7.74,3.82l4.77,2.52c1.69.89,3.49,1.81,5.3,2.91l5.73,3.37c1,.59,2,1.16,3,1.81l3.07,2c2.09,1.36,4.24,2.78,6.46,4.24l6.6,4.85a186.54,186.54,0,0,1,26.81,24.65,168.76,168.76,0,0,1,20.74,29.93l3.79,7.26,3.11,7.07c.5,1.14,1,2.26,1.48,3.37s.83,2.23,1.24,3.31c.79,2.17,1.55,4.26,2.28,6.25s1.29,3.93,1.85,5.76,1.06,3.55,1.54,5.16c1,3.21,1.58,6.06,2.14,8.36s1,4.08,1.23,5.32c.13.59.23,1.05.31,1.39Z" style="fill:#f5f5f5"></path><path d="M282.88,273.86s-.08-.21-.22-.62-.32-1-.56-1.82c-.5-1.63-1.22-4-2.14-7-1.84-6.12-4.5-14.95-7.77-25.86-1.65-5.45-3.42-11.44-5.67-17.75a113.8,113.8,0,0,0-8.8-19.42,62.93,62.93,0,0,0-15.19-17.83c-6.37-5-14.27-8.9-22.91-9.73a38.63,38.63,0,0,0-24,6,49.34,49.34,0,0,0-16.26,16.7,67.21,67.21,0,0,0-7.72,19.78,94.37,94.37,0,0,0-2.21,18.45,150.16,150.16,0,0,0,.42,15.35c.33,4.52.75,8.4,1.11,11.56s.66,5.61.86,7.29c.09.82.16,1.45.22,1.9s.05.65.05.65,0-.22-.11-.65-.15-1.07-.27-1.88c-.23-1.67-.56-4.12-1-7.28s-.84-7-1.2-11.56a149.19,149.19,0,0,1-.5-15.39,94.28,94.28,0,0,1,2.16-18.53,67.5,67.5,0,0,1,7.73-19.94,49.84,49.84,0,0,1,16.4-16.89,42.26,42.26,0,0,1,11.49-5,36.23,36.23,0,0,1,12.86-1.1c8.76.84,16.75,4.76,23.18,9.85a63.2,63.2,0,0,1,15.28,18,111.86,111.86,0,0,1,8.79,19.52c2.25,6.33,4,12.32,5.62,17.79,3.21,10.92,5.81,19.77,7.61,25.91.89,3.05,1.57,5.42,2.05,7.05.22.79.39,1.4.52,1.84S282.88,273.86,282.88,273.86Z" style="fill:#f5f5f5"></path><rect x="22.37" y="263.37" width="2.77" height="12.88" transform="translate(-107.6 32.94) rotate(-23.98)" style="fill:#f5f5f5"></rect><path d="M22.37,273.36c0-.13,4.73-1.66,10.65-3.4s10.75-3,10.79-2.91-4.72,1.67-10.64,3.41S22.42,273.5,22.37,273.36Z" style="fill:#e0e0e0"></path><path d="M297.55,96a28.76,28.76,0,0,1-22.88-46.17A28.75,28.75,0,1,0,315,90.14,28.65,28.65,0,0,1,297.55,96Z" style="fill:#e0e0e0"></path><polyline points="330.99 61.33 330.5 61.49 329.79 63.96 329.02 61.51 326.6 60.8 329.01 60.03 329.71 57.43 330.48 60.02 332.77 60.73 330.99 61.33" style="fill:#ebebeb"></polyline><polyline points="236.97 101.48 236.48 101.64 235.77 104.11 235 101.66 232.58 100.95 234.99 100.19 235.69 97.58 236.46 100.17 238.75 100.88 236.97 101.48" style="fill:#ebebeb"></polyline><polyline points="359.09 75.68 357.95 76.06 356.31 81.81 354.53 76.1 348.88 74.45 354.49 72.68 356.13 66.61 357.91 72.64 363.24 74.29 359.09 75.68" style="fill:#ebebeb"></polyline><polyline points="153.16 47.19 152.02 47.57 150.37 53.32 148.59 47.61 142.95 45.96 148.55 44.19 150.19 38.11 151.98 44.15 157.3 45.8 153.16 47.19" style="fill:#ebebeb"></polyline><polyline points="198.86 84.85 197.72 85.24 196.07 90.99 194.29 85.28 188.65 83.63 194.25 81.85 195.9 75.78 197.68 81.81 203 83.46 198.86 84.85" style="fill:#ebebeb"></polyline><polyline points="360.45 42.46 359.8 42.68 358.86 45.96 357.84 42.7 354.63 41.76 357.82 40.75 358.76 37.29 359.77 40.73 362.81 41.67 360.45 42.46" style="fill:#ebebeb"></polyline><polyline points="179.35 108.41 178.69 108.62 177.76 111.9 176.74 108.65 173.53 107.71 176.72 106.69 177.66 103.23 178.67 106.67 181.71 107.61 179.35 108.41" style="fill:#ebebeb"></polyline><polygon points="317.91 201.53 340.55 106.69 376.04 194.8 365.64 191.75 391.34 244.37 376.65 239.47 394.4 273.74 314.85 273.74 321.58 241.92 314.85 251.1 329.57 195.59 317.91 201.53" style="fill:#f5f5f5"></polygon><polygon points="375.12 175.72 405.85 46.98 454.03 166.59 439.91 162.43 474.79 233.87 454.86 227.22 478.95 273.74 370.96 273.74 380.1 230.54 370.96 243 390.94 167.65 375.12 175.72" style="fill:#f5f5f5"></polygon><polygon points="358.92 217.49 376.56 143.62 404.2 212.25 396.1 209.87 416.12 250.86 404.68 247.05 418.5 273.74 356.54 273.74 361.78 248.95 356.54 256.1 368 212.86 358.92 217.49" style="fill:#ebebeb"></polygon></g><g id="freepik--Trunk--inject-5"><path d="M354.29,367.49c-2.84-2.16-6.49-2.92-10-3.51-18.18-3-36.71-3.06-55.14-3.09L138,360.67,143.82,378l25.79,5.8c3.65.82,7.45,1.65,11.11.84,5.31-1.17,9.36-5.56,14.52-7.29,16.13-5.42,32.33,16.75,48.28,10.82,3.83-1.42,6.92-4.32,10.57-6.15s8.63-2.27,11.36.77c3.56,4,.88,10.8,3.86,15.22,2.66,4,8.68,4,12.94,1.88s7.5-5.84,11.44-8.53c7.92-5.42,18-6.35,27.55-7.11l24.79-2c4.46-.36,9.77-1.29,11.52-5.42C358.94,373.6,357.14,369.64,354.29,367.49Z" style="fill:#ebebeb"></path><path d="M322.06,361.83H109.63a21.06,21.06,0,0,1-21.06-21.06h0a21.06,21.06,0,0,1,21.06-21.06H322.06a21.06,21.06,0,0,1,21.06,21.06h0A21.06,21.06,0,0,1,322.06,361.83Z" style="fill:#455a64"></path><circle cx="108.94" cy="340.77" r="21.06" style="fill:#263238"></circle><path d="M113.48,337.06s.09.07.22.25a3.2,3.2,0,0,1,.37.9,6.18,6.18,0,0,1-.37,3.49,7.85,7.85,0,0,1-1.1,2.21,3.31,3.31,0,0,1-1.09.93,3.88,3.88,0,0,1-1.47.36,11.43,11.43,0,0,1-3.1-.34,5.9,5.9,0,0,1-3-1.67,3.69,3.69,0,0,1-.93-3.3,5.25,5.25,0,0,1,1.6-2.75,11.82,11.82,0,0,1,4.69-2.26h0l.75,0h.08a7.92,7.92,0,0,1,2.62,1.37,1.89,1.89,0,0,1,.65.85s-.24-.3-.78-.69a8.75,8.75,0,0,0-2.61-1.17h.07l-.75.07h0a11.85,11.85,0,0,0-4.44,2.26,4.82,4.82,0,0,0-1.41,2.47,3.16,3.16,0,0,0,.81,2.8,5.23,5.23,0,0,0,2.66,1.5,11.68,11.68,0,0,0,2.93.36,2.79,2.79,0,0,0,2.21-1.05,7.84,7.84,0,0,0,1.09-2.05,6.41,6.41,0,0,0,.54-3.31A8.49,8.49,0,0,0,113.48,337.06Z" style="fill:#455a64"></path><path d="M118.72,337.48a2.48,2.48,0,0,1,.32.59,10.82,10.82,0,0,1,.67,1.84,7.26,7.26,0,0,1,.19,3.1,7.89,7.89,0,0,1-1.79,3.7,12.69,12.69,0,0,1-9.52,4.34,12.3,12.3,0,0,1-6.12-1.55,13.09,13.09,0,0,1-4.9-4.69,10,10,0,0,1-1.08-2.41,3.81,3.81,0,0,1,.15-2.64,8,8,0,0,1,3.63-3.32,12.77,12.77,0,0,0,1.87-1.27,9.64,9.64,0,0,0,1.45-1.61,11.82,11.82,0,0,1,1.45-1.63,4.33,4.33,0,0,1,1.89-1h0a8.57,8.57,0,0,1,6,.31,9.14,9.14,0,0,1,3.76,2.74,12.62,12.62,0,0,1,1.61,2.52,4.36,4.36,0,0,1,.4,1,22,22,0,0,0-2.22-3.31,9,9,0,0,0-3.69-2.57,8.3,8.3,0,0,0-5.74-.21h0a3.92,3.92,0,0,0-1.67.91,11.87,11.87,0,0,0-1.37,1.58,11.3,11.3,0,0,1-1.51,1.7,14.18,14.18,0,0,1-1.94,1.33A7.55,7.55,0,0,0,97.17,340c-.67,1.42.07,3.1.91,4.52a12.67,12.67,0,0,0,4.66,4.49,12,12,0,0,0,5.85,1.51,12.34,12.34,0,0,0,9.2-4.07,7.68,7.68,0,0,0,1.79-3.49,7.3,7.3,0,0,0-.09-3C119.1,338.34,118.66,337.5,118.72,337.48Z" style="fill:#455a64"></path><path d="M109.71,325.38s.08,0,.26-.05l.77-.05a29.26,29.26,0,0,1,3,0,13.62,13.62,0,0,1,4.63,1,9.13,9.13,0,0,1,4.48,4.3,23.88,23.88,0,0,1,2.13,7.27,25.47,25.47,0,0,1,.46,4.21,6.91,6.91,0,0,1-1.4,4.31,25.71,25.71,0,0,1-3.34,3.34,38.09,38.09,0,0,1-3.87,3,19.79,19.79,0,0,1-9.62,3.64,12.89,12.89,0,0,1-9.73-3.11,12.22,12.22,0,0,1-2.77-4.12,27.89,27.89,0,0,1-1.43-4.5,17,17,0,0,1-.2-8.67,14.28,14.28,0,0,1,4-6.43,15.88,15.88,0,0,1,5.35-3.24,18.41,18.41,0,0,1,4.6-1,15.41,15.41,0,0,1,4,.09,6.86,6.86,0,0,1-1,0,21.5,21.5,0,0,0-2.94.14,18.71,18.71,0,0,0-4.52,1.1,15.56,15.56,0,0,0-5.17,3.23A14,14,0,0,0,93.52,336a16.58,16.58,0,0,0,.26,8.42c.73,2.9,1.7,6.07,4.07,8.32a12.28,12.28,0,0,0,9.29,2.94,19.33,19.33,0,0,0,9.34-3.53,36.36,36.36,0,0,0,3.82-3,26.48,26.48,0,0,0,3.28-3.24,6.4,6.4,0,0,0,1.31-4,25.46,25.46,0,0,0-.42-4.13,24.06,24.06,0,0,0-2-7.15,8.88,8.88,0,0,0-4.26-4.19,13.43,13.43,0,0,0-4.5-1c-1.28-.09-2.28-.07-3-.07A8.06,8.06,0,0,1,109.71,325.38Z" style="fill:#455a64"></path><path d="M341.5,339.25s-.18,0-.55.05l-1.6.08-6.17.25c-5.37.2-13.13.48-22.72.68s-21,.29-33.71-.11c-6.35-.22-13-.57-19.88-1.13s-14-1.35-21.27-2.2c-14.53-1.74-28.39-3.4-41.06-3.82a218.41,218.41,0,0,0-33.61,1.3,184.85,184.85,0,0,0-22.32,4.06c-2.6.67-4.61,1.2-6,1.6l-1.55.43c-.35.09-.54.12-.54.12s.17-.07.52-.18l1.53-.48c1.35-.44,3.35-1,5.94-1.71a174.53,174.53,0,0,1,22.33-4.25,214.17,214.17,0,0,1,33.68-1.43c12.7.39,26.58,2,41.11,3.78,7.27.85,14.37,1.66,21.24,2.21s13.52.93,19.86,1.15c12.67.43,24.09.38,33.68.25s17.35-.36,22.72-.49l6.18-.15,1.6,0Z" style="fill:#263238"></path><path d="M340.9,331.11a64.28,64.28,0,0,1-8,2.59,103.42,103.42,0,0,1-22.66,3.18c-4.84.19-10.15.09-15.83-.25s-11.72-1-18.06-1.83c-12.69-1.61-26.54-4.06-41.24-5.16a342.1,342.1,0,0,0-41.52-.44c-12.76.56-24.23,1.63-33.84,2.57s-17.39,1.86-22.76,2.46l-6.19.68-1.61.16c-.36,0-.55,0-.55,0l.54-.1,1.61-.22L137,334c5.36-.67,13.13-1.62,22.74-2.64s21.09-2.11,33.86-2.7a337,337,0,0,1,41.6.39c14.73,1.1,28.59,3.58,41.26,5.21,6.33.84,12.36,1.5,18,1.88s11,.49,15.77.33a106.33,106.33,0,0,0,22.62-3c1.31-.32,2.47-.63,3.47-.93s1.84-.54,2.51-.78l1.54-.5C340.72,331.15,340.9,331.11,340.9,331.11Z" style="fill:#263238"></path><path d="M210.79,347.61s-.2.07-.58.17l-1.74.44c-1.53.38-3.79.89-6.72,1.46a148.46,148.46,0,0,1-25.17,2.49c-2.68,0-5.48,0-8.39-.14-1.46-.07-2.95-.15-4.46-.27a20.19,20.19,0,0,1-4.62-.66,6.74,6.74,0,0,1-2.19-1.1,2.9,2.9,0,0,1-.3-4.59,6.75,6.75,0,0,1,2.22-1.31,99.33,99.33,0,0,1,10-2.54,129.18,129.18,0,0,1,45.78-1.18c2,.28,4,.68,6,1.06a10.52,10.52,0,0,1,5.48,2.62,4.67,4.67,0,0,1,1.25,2.84,5.51,5.51,0,0,1-.7,3,7.34,7.34,0,0,1-2,2.29,9.84,9.84,0,0,1-2.63,1.37,28.22,28.22,0,0,1-5.64,1.14c-1.88.24-3.73.51-5.57.71-3.67.42-7.28.75-10.8,1a252.9,252.9,0,0,1-37.52-.1,248.58,248.58,0,0,1-25.09-3.25c-2.94-.53-5.21-1-6.75-1.34l-1.74-.39-.59-.15.6.09,1.76.33c1.54.31,3.82.74,6.76,1.24,5.88,1,14.44,2.28,25.08,3a256.25,256.25,0,0,0,37.45,0c3.51-.27,7.11-.61,10.78-1,1.83-.2,3.68-.47,5.55-.71a28.11,28.11,0,0,0,5.53-1.12,7.42,7.42,0,0,0,4.28-3.4,5,5,0,0,0,.63-2.67,4.05,4.05,0,0,0-1.1-2.48,10,10,0,0,0-5.18-2.45c-2-.37-4-.77-6-1.05A129.29,129.29,0,0,0,169,342.09a99.25,99.25,0,0,0-10,2.5,6.09,6.09,0,0,0-2,1.19,2.49,2.49,0,0,0-.84,2,2.56,2.56,0,0,0,1.08,1.84,6.36,6.36,0,0,0,2,1,19.21,19.21,0,0,0,4.52.66c1.5.13,3,.21,4.44.29,2.9.14,5.7.19,8.36.17a151.68,151.68,0,0,0,25.13-2.3c2.94-.53,5.21-1,6.74-1.34l1.75-.39Z" style="fill:#263238"></path><path d="M333.88,355.18l-.29,0-.83-.14-3.17-.57c-1.38-.26-3.07-.57-5-.85s-4.2-.7-6.69-1l-3.9-.48c-1.35-.17-2.77-.27-4.24-.41-2.92-.31-6.07-.47-9.37-.67-6.61-.29-13.89-.34-21.52,0s-14.88,1.22-21.43,2.18c-3.26.53-6.37,1-9.25,1.62-1.45.29-2.85.53-4.18.84l-3.83.88c-2.45.52-4.63,1.15-6.56,1.64s-3.57,1-4.91,1.36l-3.11.89-.81.22a1,1,0,0,1-.28.06l.26-.12.8-.27,3.07-1c1.33-.43,3-.95,4.9-1.46s4.1-1.18,6.54-1.73l3.83-.92c1.34-.31,2.74-.57,4.18-.87,2.89-.63,6-1.12,9.27-1.68,6.56-1,13.82-1.81,21.48-2.22s14.95-.3,21.58,0c3.31.22,6.46.39,9.39.72,1.47.16,2.89.27,4.25.45l3.9.52c2.49.3,4.72.73,6.69,1s3.65.66,5,1l3.16.68.81.19A.92.92,0,0,1,333.88,355.18Z" style="fill:#263238"></path><path d="M328,321.06a2.08,2.08,0,0,1-.56.27l-1.65.67c-.72.29-1.61.62-2.66.95s-2.22.76-3.56,1.1-2.8.77-4.4,1.1-3.3.65-5.1,1a88.19,88.19,0,0,1-11.87.94,89.51,89.51,0,0,1-11.89-.79c-1.8-.29-3.53-.54-5.12-.9s-3.06-.69-4.4-1-2.53-.74-3.58-1.06-1.95-.64-2.67-.92l-1.66-.65a2.32,2.32,0,0,1-.56-.26,2.87,2.87,0,0,1,.61.15l1.69.54c.73.25,1.63.54,2.68.83s2.25.67,3.59,1,2.8.69,4.4,1,3.3.57,5.1.84a93.91,93.91,0,0,0,11.8.74,92.77,92.77,0,0,0,11.8-.89c1.79-.29,3.5-.54,5.08-.9s3.05-.67,4.39-1,2.52-.71,3.57-1,2-.6,2.68-.86l1.68-.56A3.5,3.5,0,0,1,328,321.06Z" style="fill:#263238"></path><path d="M199.92,319.45a4.63,4.63,0,0,1-.81.15l-2.34.33c-2,.33-4.94.83-8.52,1.62l-12.56,2.89a96.54,96.54,0,0,1-15.63,2.36,57.14,57.14,0,0,1-8.21-.19c-2.64-.28-5.15-.71-7.54-1.16-4.77-.9-9-1.82-12.67-2.23A43,43,0,0,0,123,323c-1,.05-1.81.19-2.34.25a4.6,4.6,0,0,1-.82.08,3.63,3.63,0,0,1,.8-.19,18.68,18.68,0,0,1,2.34-.37,39.81,39.81,0,0,1,8.7.09c3.67.36,8,1.24,12.73,2.11,2.38.43,4.89.85,7.5,1.12a57.4,57.4,0,0,0,8.12.17,98.84,98.84,0,0,0,15.55-2.3c4.73-1,9-2,12.58-2.77s6.54-1.18,8.58-1.43c1-.12,1.82-.18,2.36-.23A4.22,4.22,0,0,1,199.92,319.45Z" style="fill:#263238"></path></g><g id="freepik--Floor--inject-5"><path d="M481.73,274.16c0,.14-103.31.26-230.72.26s-230.74-.12-230.74-.26,103.29-.26,230.74-.26S481.73,274,481.73,274.16Z" style="fill:#263238"></path></g><g id="freepik--Plants--inject-5"><path d="M448.77,233.39a7.85,7.85,0,0,1,4.07,4.6,13.9,13.9,0,0,1,.54,6.25c-.46,4-2.76,8.13-5.24,11.37-3.41-3-4.19-8.17-4.43-10.83-.36-4.2,1.52-12,5.06-11.39" style="fill:#FFBF49"></path><path d="M452.11,262.3a6.69,6.69,0,0,1,2.16-6.37,8.87,8.87,0,0,1,6.56-2.05,3.75,3.75,0,0,1,2.88,1.29,2.88,2.88,0,0,1,0,2.91,5.81,5.81,0,0,1-2.15,2.11c-3,1.86-6.15,3.11-9.49,2.11" style="fill:#FFBF49"></path><path d="M447.73,274.71a5.45,5.45,0,0,1,.12-.83l.42-2.25a23.26,23.26,0,0,1,2.32-7.18,14.39,14.39,0,0,1,5.15-5.48,9.58,9.58,0,0,1,2.11-.93c.25-.09.46-.12.6-.16a1.17,1.17,0,0,1,.22,0,16,16,0,0,0-2.82,1.3,14.78,14.78,0,0,0-5,5.44,25.17,25.17,0,0,0-2.38,7.09c-.21.94-.37,1.7-.5,2.23A3.81,3.81,0,0,1,447.73,274.71Z" style="fill:#263238"></path><path d="M447.86,239.47a2,2,0,0,1,0,.36l.06,1c.05.9.11,2.22.16,3.84.1,3.24.19,7.73.16,12.68s-.14,9.45-.27,12.69c-.07,1.62-.13,2.93-.19,3.84,0,.43-.05.77-.07,1a1.61,1.61,0,0,1-.05.37,2.12,2.12,0,0,1,0-.37c0-.27,0-.62,0-1,0-.95.05-2.25.09-3.85.08-3.24.17-7.72.19-12.68s0-9.43-.08-12.68c0-1.59-.05-2.9-.06-3.84,0-.43,0-.78,0-1A1.41,1.41,0,0,1,447.86,239.47Z" style="fill:#263238"></path><path d="M446.2,264.76a15.62,15.62,0,0,0-8.55-11.47c-1.14-.55-2.63-.91-3.56-.06s-.73,2.37-.27,3.55a13.36,13.36,0,0,0,12.3,8.31" style="fill:#FFBF49"></path><path d="M438.2,257.13a3.6,3.6,0,0,1,.73.31,8.78,8.78,0,0,1,.82.44c.3.19.67.38,1,.65s.78.54,1.19.9.83.73,1.27,1.15a17.29,17.29,0,0,1,2.4,3.1,16.6,16.6,0,0,1,1.59,3.58,15.4,15.4,0,0,1,.4,1.67,12.23,12.23,0,0,1,.21,1.48,10.71,10.71,0,0,1,0,1.22,6.72,6.72,0,0,1,0,.93,4.29,4.29,0,0,1-.09.79c-.07,0,0-1.13-.15-2.92a12.15,12.15,0,0,0-.24-1.45,14.67,14.67,0,0,0-.42-1.64,17.9,17.9,0,0,0-1.58-3.51,17.62,17.62,0,0,0-2.35-3.06,16,16,0,0,0-1.23-1.15,14,14,0,0,0-1.15-.92C439.2,257.65,438.17,257.19,438.2,257.13Z" style="fill:#263238"></path><path d="M52.17,336.05c-1.24,1.91-3.78,1.38-5,.29a9.5,9.5,0,0,1-2.27-4.27c-1.16-3.54-2.33-7.25-1.7-10.93a6.07,6.07,0,0,1,1.3-3,3.17,3.17,0,0,1,3-1.11,4.65,4.65,0,0,1,2.74,2.67,26.15,26.15,0,0,1,3,11.14,9.13,9.13,0,0,1-1,5.24" style="fill:#FFBF49"></path><g style="opacity:0.2"><path d="M52.17,336.05c-1.24,1.91-3.78,1.38-5,.29a9.5,9.5,0,0,1-2.27-4.27c-1.16-3.54-2.33-7.25-1.7-10.93a6.07,6.07,0,0,1,1.3-3,3.17,3.17,0,0,1,3-1.11,4.65,4.65,0,0,1,2.74,2.67,26.15,26.15,0,0,1,3,11.14,9.13,9.13,0,0,1-1,5.24"></path></g><path d="M47.63,345.63a11.28,11.28,0,0,0-7-.6,5.79,5.79,0,0,0-3.4,1.67,2.47,2.47,0,0,0,.09,3.44,3.3,3.3,0,0,0,2.19.48c1.85-.09,3.89-.49,5.4.57.87.6,1.47,1.64,2.49,1.91A2.38,2.38,0,0,0,50,351.85a4.09,4.09,0,0,0,.19-3A4.57,4.57,0,0,0,47.63,345.63Z" style="fill:#FFBF49"></path><path d="M55.83,338.59a6.78,6.78,0,0,1-1.27-6.18,12,12,0,0,1,3.49-5.47,19.87,19.87,0,0,1,6.45-4.13,7,7,0,0,1,3-.61A3.12,3.12,0,0,1,70,323.61c.74,1.3.14,2.93-.54,4.27a49.9,49.9,0,0,1-4.09,6.75,11.78,11.78,0,0,1-4.62,4.25c-2,.83-4,.81-5.1-.52" style="fill:#FFBF49"></path><path d="M53.26,364.06a5.24,5.24,0,0,1-.15-.84l-.3-2.3c-.15-1-.33-2.11-.64-3.36a26.91,26.91,0,0,0-1.37-3.94,14.66,14.66,0,0,0-2.17-3.53A7.61,7.61,0,0,0,46,348a7.35,7.35,0,0,0-2.19-.6,3.21,3.21,0,0,1-.84-.09,4,4,0,0,1,.85,0,6.64,6.64,0,0,1,2.28.51,7.49,7.49,0,0,1,2.79,2.06,14.13,14.13,0,0,1,2.25,3.6,25,25,0,0,1,1.36,4,28.63,28.63,0,0,1,.57,3.4c.11,1,.17,1.77.2,2.31A4.4,4.4,0,0,1,53.26,364.06Z" style="fill:#263238"></path><path d="M53,362.29a1.47,1.47,0,0,1,0-.39c0-.29,0-.67,0-1.12,0-1-.08-2.38-.19-4.11-.21-3.47-.68-8.25-1.45-13.5s-1.71-10-2.54-13.34c-.19-.84-.39-1.61-.57-2.27s-.32-1.24-.46-1.71-.23-.8-.3-1.08a1.88,1.88,0,0,1-.09-.38,1.22,1.22,0,0,1,.15.36l.37,1.06c.16.46.32,1,.52,1.7s.41,1.42.62,2.26a126.24,126.24,0,0,1,2.64,13.35A135.59,135.59,0,0,1,53,356.65c.09,1.74.1,3.15.09,4.13,0,.45,0,.82,0,1.12A1.93,1.93,0,0,1,53,362.29Z" style="fill:#263238"></path><path d="M52.68,353a9,9,0,0,1,0-1.17c0-.75.08-1.84.24-3.18a42.7,42.7,0,0,1,.87-4.65,39.51,39.51,0,0,1,1.73-5.53,29.21,29.21,0,0,1,5.35-9,14.22,14.22,0,0,1,1.29-1.29c.2-.18.38-.36.56-.5l.5-.38a8.3,8.3,0,0,1,1-.67,36,36,0,0,0-3.12,3,30.52,30.52,0,0,0-5.21,9,42.49,42.49,0,0,0-1.75,5.48,44.23,44.23,0,0,0-.93,4.61c-.2,1.33-.3,2.41-.36,3.16A6.54,6.54,0,0,1,52.68,353Z" style="fill:#263238"></path><path d="M69.07,364.06c0,.14-6.79.26-15.17.26s-15.18-.12-15.18-.26,6.79-.26,15.18-.26S69.07,363.91,69.07,364.06Z" style="fill:#263238"></path></g><g id="freepik--character-3--inject-5"><path d="M245.06,230.86c0,.35,12.8,57.95,12.8,57.95s17.53,11.51,28.47,10.13,35-16.42,35-16.42l-4-42.86-5.11-46.79-24.11-3.62-22.28,3.19-14.64,6.44Z" style="fill:#FFBF49"></path><path d="M253.36,198.3c-2.23.58-12.7,2.42-18.1,15.52-4.91,11.88-16.94,59.33-10.4,63.42s37.08,3.11,37.08,3.11l7.94-14.84-23.11-4.9,4.69-21.32Z" style="fill:#FFBF49"></path><path d="M308.05,192.44l5.69.63a18.47,18.47,0,0,1,13.93,9c9.12,15.6,25.34,44.27,27.05,49.09,2.75,7.79-3.86,12.51-7.57,14.45s-24.36,14.8-24.36,14.8l-13.85-8.95,18.48-21L315.9,234.05Z" style="fill:#FFBF49"></path><path d="M252,262.76c-.14,0-2-7.37-4.07-16.53s-3.7-16.62-3.56-16.66,2,7.37,4.07,16.54S252.12,262.73,252,262.76Z" style="fill:#263238"></path><path d="M315.22,210.35a1.82,1.82,0,0,1,.07.5q0,.59.09,1.44c.08,1.33.17,3.12.29,5.3.25,4.47.64,10.64,1.21,17.45s1.24,13,1.75,17.4c.25,2.17.45,3.95.6,5.27l.15,1.44a2.37,2.37,0,0,1,0,.5,1.77,1.77,0,0,1-.12-.49c-.07-.38-.15-.85-.25-1.42-.2-1.24-.47-3-.77-5.25-.6-4.44-1.32-10.59-1.9-17.41s-.9-13-1.05-17.48c-.08-2.23-.12-4-.13-5.3v-1.44A1.88,1.88,0,0,1,315.22,210.35Z" style="fill:#263238"></path><path d="M319.7,195.36a18,18,0,0,0-3.09,3.4,18.49,18.49,0,0,0-1.69,4.27,2.85,2.85,0,0,1,0-1.39,9.09,9.09,0,0,1,3.51-5.64C319.16,195.5,319.66,195.3,319.7,195.36Z" style="fill:#263238"></path><path d="M239,210.46a8.69,8.69,0,0,1,1.71,3.36,8.52,8.52,0,0,1,.6,3.71,33.89,33.89,0,0,1-1.09-3.55A32.7,32.7,0,0,1,239,210.46Z" style="fill:#263238"></path><path d="M247.31,260.6a10.32,10.32,0,0,1-1.72.06,11.78,11.78,0,0,0-7.38,3.13c-.77.72-1.17,1.25-1.24,1.2a3.88,3.88,0,0,1,1-1.45,10,10,0,0,1,3.47-2.44,10.16,10.16,0,0,1,4.16-.81A4,4,0,0,1,247.31,260.6Z" style="fill:#263238"></path><path d="M269.74,266.44a30.36,30.36,0,0,1-3.35-1c-2.05-.64-4.9-1.49-8.08-2.31s-6.09-1.44-8.19-1.87a26.85,26.85,0,0,1-3.41-.76,2.94,2.94,0,0,1,.94.05c.6.06,1.47.18,2.53.35,2.13.34,5.07.91,8.26,1.73s6,1.73,8.07,2.46c1,.36,1.83.67,2.39.91A3.2,3.2,0,0,1,269.74,266.44Z" style="fill:#263238"></path><path d="M322.79,280.45a6,6,0,0,1-1-.6L319,278l-9.62-6.48-.23-.16.18-.2,7.33-8.3c5-5.63,9.58-10.62,13.18-14,1.78-1.7,3.31-3,4.38-3.85l1.25-1a2.7,2.7,0,0,1,.46-.31s-.12.15-.39.39l-1.19,1c-1,.92-2.51,2.23-4.26,4-3.52,3.42-8.08,8.44-13,14.07-2.62,3-5.1,5.77-7.36,8.27l-.05-.36,9.52,6.65,2.69,1.92A8.3,8.3,0,0,1,322.79,280.45Z" style="fill:#263238"></path><path d="M266.32,249.53l.45-1a3.11,3.11,0,0,0,1.63.48c.57,0,.8-.16.8-.4,0-.78-2.8-.21-2.8-2,0-.88.72-1.6,2.18-1.6a3.66,3.66,0,0,1,1.78.43l-.43,1a2.92,2.92,0,0,0-1.36-.38c-.58,0-.79.2-.79.45,0,.75,2.79.18,2.79,2,0,.86-.72,1.59-2.18,1.59A3.79,3.79,0,0,1,266.32,249.53Z" style="fill:#fff"></path><path d="M271.17,247.79v-2.73h1.39v2.68c0,.85.35,1.18.93,1.18s.93-.33.93-1.18v-2.68h1.37v2.73a2.31,2.31,0,0,1-4.62,0Z" style="fill:#fff"></path><path d="M281.17,250v-2.61l-1.26,2.12h-.62L278,247.44V250h-1.29v-4.92h1.15l1.73,2.84,1.68-2.84h1.15V250Z" style="fill:#fff"></path><path d="M283.48,249.82c.41-.22.82-.41,1.24-.59v-1.79l.76,1.23c.95-.62,2-1,2.93-1.76.24-.19.49-.37.74-.54v-1.31H288l-1.69,2.84-1.73-2.84h-1.14v4.79Z" style="fill:#fff"></path><path d="M288.4,246.81l-.67,1.14-.35-.57-1,.52,1,1.64H288l1.26-2.12V250h1.28v-4.66A21.91,21.91,0,0,1,288.4,246.81Z" style="fill:#fff"></path><path d="M295.51,249V250h-3.95v-4.92h3.86v1.07h-2.48V247h2.18v1h-2.18v.9Z" style="fill:#fff"></path><path d="M298.43,248.72h-.76V250h-1.39v-4.92h2.25c1.34,0,2.19.69,2.19,1.82a1.63,1.63,0,0,1-1,1.55l1.06,1.55h-1.49Zm0-2.52h-.78v1.45h.78c.57,0,.86-.27.86-.72S299,246.2,298.45,246.2Z" style="fill:#fff"></path><path d="M266.32,249.53l.45-1a3.11,3.11,0,0,0,1.63.48c.57,0,.8-.16.8-.4,0-.78-2.8-.21-2.8-2,0-.88.72-1.6,2.18-1.6a3.66,3.66,0,0,1,1.78.43l-.43,1a2.92,2.92,0,0,0-1.36-.38c-.58,0-.79.2-.79.45,0,.75,2.79.18,2.79,2,0,.86-.72,1.59-2.18,1.59A3.79,3.79,0,0,1,266.32,249.53Z" style="fill:#fff"></path><path d="M271.17,247.79v-2.73h1.39v2.68c0,.85.35,1.18.93,1.18s.93-.33.93-1.18v-2.68h1.37v2.73a2.31,2.31,0,0,1-4.62,0Z" style="fill:#fff"></path><path d="M281.17,250v-2.61l-1.26,2.12h-.62L278,247.44V250h-1.29v-4.92h1.15l1.73,2.84,1.68-2.84h1.15V250Z" style="fill:#fff"></path><path d="M283.48,249.82c.41-.22.82-.41,1.24-.59v-1.79l.76,1.23c.95-.62,2-1,2.93-1.76.24-.19.49-.37.74-.54v-1.31H288l-1.69,2.84-1.73-2.84h-1.14v4.79Z" style="fill:#fff"></path><path d="M276.31,255.33a1.12,1.12,0,0,1,0-2.24,1.16,1.16,0,0,1,.92.46l.7-.64a1.24,1.24,0,0,0-.8-.57s-.11.2-.24.13c0,.08-.14.05-.22.1l-.16.09-.23.11-.08,0a.38.38,0,0,1-.15,0,2.27,2.27,0,0,1-.32.22,4.53,4.53,0,0,1-.54.27h0a.27.27,0,0,1-.07.08c-.31.16-.62.32-.94.46a1.5,1.5,0,0,0,0,.37,2,2,0,0,0,2.15,2,2.08,2.08,0,0,0,1.68-.73l-.7-.64A1.18,1.18,0,0,1,276.31,255.33Z" style="fill:#fff"></path><path d="M281,255.4h-1.66l-.31.77h-1.13l1.73-3.92h1.09l1.74,3.92h-1.16Zm-.33-.81-.5-1.25-.51,1.25Z" style="fill:#fff"></path><path d="M286.3,256.17v-2.08l-1,1.69h-.49l-1-1.63v2h-1v-3.92h.92l1.37,2.26,1.34-2.26h.92v3.92Z" style="fill:#fff"></path><path d="M291.63,253.7c0,.89-.67,1.44-1.74,1.44h-.68v1h-1.1v-3.92h1.78C291,252.25,291.63,252.81,291.63,253.7Zm-1.11,0c0-.36-.23-.58-.69-.58h-.62v1.15h.62C290.29,254.27,290.52,254.06,290.52,253.7Z" style="fill:#fff"></path><path d="M287.17,234a4.37,4.37,0,1,1-4.37-4.37A4.37,4.37,0,0,1,287.17,234Z" style="fill:#fff"></path><path d="M282.18,243.78a32.43,32.43,0,0,1,0-3.6s.05.8.05,1.8S282.2,243.78,282.18,243.78Z" style="fill:#fff"></path><path d="M279.66,239.16s-.39.77-.92,1.68-1,1.65-1,1.64a18.55,18.55,0,0,1,.92-1.68C279.19,239.88,279.64,239.15,279.66,239.16Z" style="fill:#fff"></path><path d="M277.08,237.55a10.36,10.36,0,0,1-1,.87,9.57,9.57,0,0,1-1.08.8,10.36,10.36,0,0,1,1-.87A9.57,9.57,0,0,1,277.08,237.55Z" style="fill:#fff"></path><path d="M286.54,242a1.73,1.73,0,0,1-.12-.45c-.06-.27-.15-.65-.26-1.07s-.23-.79-.31-1.05a2,2,0,0,1-.12-.45,2.82,2.82,0,0,1,.18.42c.1.27.23.64.34,1.06s.19.8.24,1.08A2.8,2.8,0,0,1,286.54,242Z" style="fill:#fff"></path><path d="M291,238.86a13.63,13.63,0,0,1-1.29-1.07,12.86,12.86,0,0,1-1.23-1.13s.59.46,1.29,1.06S291,238.84,291,238.86Z" style="fill:#fff"></path><path d="M292.66,234.54a4.29,4.29,0,0,1-.52-.07c-.33-.06-.77-.13-1.27-.19l-1.28-.11-.53,0a2.4,2.4,0,0,1,.54,0c.33,0,.78,0,1.28.08s.95.14,1.27.21A2.46,2.46,0,0,1,292.66,234.54Z" style="fill:#fff"></path><path d="M292.67,230.29a21.58,21.58,0,0,1-2.11.56c-1.17.29-2.13.5-2.14.48s.94-.28,2.12-.56S292.66,230.27,292.67,230.29Z" style="fill:#fff"></path><path d="M287.73,225.34a15.39,15.39,0,0,1-1,1.61c-.58.88-1.06,1.58-1.08,1.57a18.65,18.65,0,0,1,1-1.62C287.23,226,287.71,225.33,287.73,225.34Z" style="fill:#fff"></path><path d="M282.84,224.31a4.72,4.72,0,0,1,0,.6c0,.37,0,.88,0,1.44s0,1.08,0,1.45a5.84,5.84,0,0,1,0,.6,3.57,3.57,0,0,1-.06-.6c0-.37,0-.88,0-1.45s0-1.07,0-1.44A2.61,2.61,0,0,1,282.84,224.31Z" style="fill:#fff"></path><path d="M279.13,228.93a16.27,16.27,0,0,1-1-1.59,18.28,18.28,0,0,1-1-1.65s.48.7,1,1.6S279.15,228.92,279.13,228.93Z" style="fill:#fff"></path><path d="M276.91,230.81a2.1,2.1,0,0,1-.46-.07c-.29-.06-.68-.16-1.1-.28s-.81-.26-1.08-.36l-.43-.19a1.75,1.75,0,0,1,.45.13l1.08.33,1.09.31A2.89,2.89,0,0,1,276.91,230.81Z" style="fill:#fff"></path><path d="M275.94,234.17a13.81,13.81,0,0,1-1.39.18,13.46,13.46,0,0,1-1.4.09,21.72,21.72,0,0,1,2.79-.27Z" style="fill:#fff"></path><path d="M309.37,225.62a2.78,2.78,0,0,1-.25.6c-.19.38-.42,1-.82,1.66a39.6,39.6,0,0,1-3.75,5.7A57.75,57.75,0,0,1,287.37,248a119.51,119.51,0,0,1-20.66,8.85c-2.73.92-4.94,1.62-6.48,2.09l-1.78.53a3,3,0,0,1-.63.15,3.2,3.2,0,0,1,.6-.25l1.74-.62,6.43-2.25a129.42,129.42,0,0,0,20.53-9,60,60,0,0,0,17.15-14.17,46.45,46.45,0,0,0,3.85-5.58c.42-.68.69-1.25.91-1.61A2.78,2.78,0,0,1,309.37,225.62Z" style="fill:#263238"></path><g style="opacity:0.30000000000000004"><path d="M300.07,236c-.54-.31-1.18.1-1.66.5a90.25,90.25,0,0,1-13.5,9.78c-7.4,4.09-16,6.18-22.45,11.63a94.94,94.94,0,0,0,13.1-4.75c8.78-3.62,17.4-8.1,24.09-14.83a3,3,0,0,0,.79-1.11A1,1,0,0,0,300.07,236Z"></path></g><path d="M271.67,258.3h.4l-.76,3.83h-.4Z" style="fill:#fff"></path><path d="M275.48,260.16a1.84,1.84,0,0,1,0,.33l-.33,1.64h-.39l.33-1.64a1.31,1.31,0,0,0,0-.27c0-.41-.25-.64-.74-.64a1.12,1.12,0,0,0-1.18,1l-.3,1.54h-.39l.57-2.88h.37l-.09.46a1.41,1.41,0,0,1,1.13-.48A.89.89,0,0,1,275.48,260.16Z" style="fill:#fff"></path><path d="M275.88,261.81l.18-.31a1.61,1.61,0,0,0,1,.32c.55,0,.85-.19.85-.52,0-.65-1.63-.2-1.63-1.17,0-.55.5-.9,1.25-.9a1.72,1.72,0,0,1,1,.27l-.17.31a1.43,1.43,0,0,0-.84-.25c-.53,0-.83.21-.83.53,0,.67,1.63.21,1.63,1.17,0,.57-.51.9-1.28.9A1.82,1.82,0,0,1,275.88,261.81Z" style="fill:#fff"></path><path d="M279.49,261.26a1.35,1.35,0,0,0,0,.18c0,.25.14.38.42.38a.77.77,0,0,0,.44-.14l.1.29a1,1,0,0,1-.64.19.63.63,0,0,1-.71-.66.83.83,0,0,1,0-.22l.33-1.7h-.51l.06-.33h.52l.12-.63H280l-.12.63h.87l-.06.33h-.88Z" style="fill:#fff"></path><path d="M283.11,259.23l-.07.37h-.11a1.15,1.15,0,0,0-1.17,1.07l-.29,1.46h-.39l.57-2.88H282l-.1.52A1.31,1.31,0,0,1,283.11,259.23Z" style="fill:#fff"></path><path d="M286.45,259.25l-.57,2.88h-.38l.1-.46a1.41,1.41,0,0,1-1.12.49.9.9,0,0,1-1-.94,1.93,1.93,0,0,1,0-.33l.33-1.64h.39l-.33,1.64c0,.1,0,.18,0,.26,0,.42.24.66.73.66a1.13,1.13,0,0,0,1.17-1l.3-1.55Z" style="fill:#fff"></path><path d="M286.94,260.94a1.63,1.63,0,0,1,1.67-1.71,1.22,1.22,0,0,1,1.14.57l-.33.19a.91.91,0,0,0-.84-.42,1.26,1.26,0,0,0-1.25,1.35.84.84,0,0,0,.95.89,1.11,1.11,0,0,0,.91-.41l.28.21a1.47,1.47,0,0,1-1.2.55A1.19,1.19,0,0,1,286.94,260.94Z" style="fill:#fff"></path><path d="M290.7,261.26a1.24,1.24,0,0,0,0,.18c0,.25.14.38.42.38a.77.77,0,0,0,.44-.14l.1.29a1.1,1.1,0,0,1-.65.19.63.63,0,0,1-.7-.66.83.83,0,0,1,0-.22l.33-1.7h-.51l.06-.33h.51l.13-.63h.39l-.13.63H292l-.07.33H291Z" style="fill:#fff"></path><path d="M292.17,260.94a1.64,1.64,0,0,1,1.67-1.71,1.17,1.17,0,0,1,1.3,1.21,1.63,1.63,0,0,1-1.66,1.72A1.19,1.19,0,0,1,292.17,260.94Zm2.59-.47a.85.85,0,0,0-.95-.9,1.26,1.26,0,0,0-1.25,1.35.84.84,0,0,0,.95.89A1.26,1.26,0,0,0,294.76,260.47Z" style="fill:#fff"></path><path d="M297.66,259.23l-.07.37h-.11a1.14,1.14,0,0,0-1.17,1.07l-.29,1.46h-.39l.57-2.88h.37l-.1.52A1.33,1.33,0,0,1,297.66,259.23Z" style="fill:#fff"></path><path d="M290,356.74l18.95,28.52L273.54,409c-2.06-3.52,11.67-22.59,11.67-22.59l-12.89-17.78Z" style="fill:#FFBF49"></path><g style="opacity:0.6000000000000001"><path d="M295.12,377.55a1.74,1.74,0,0,1,2.11,1,1.69,1.69,0,0,1-1,2.1,1.84,1.84,0,0,1-2.23-1.05,1.74,1.74,0,0,1,1.23-2.07" style="fill:#fff"></path></g><g style="opacity:0.6000000000000001"><path d="M308.9,385.26l-2-2.8-33.15,23.82s-1.11,1.75-.19,2.74Z" style="fill:#fff"></path></g><path d="M284.52,386.63c.12.17,1-.33,2.26-.35s2.16.41,2.28.23-.82-1-2.3-.95S284.38,386.5,284.52,386.63Z" style="fill:#263238"></path><path d="M281.84,390.66c.07.19,1,0,2.1.32s1.76,1,1.93.87-.38-1.17-1.73-1.57S281.73,390.49,281.84,390.66Z" style="fill:#263238"></path><path d="M282.72,396.51c.18-.07-.16-1.09-1.24-1.74s-2.14-.48-2.11-.29.86.37,1.74.91S282.53,396.61,282.72,396.51Z" style="fill:#263238"></path><path d="M282,382.25c.18.11.81-.66,1.83-1.25s2-.79,2-1-1.15-.33-2.35.38S281.86,382.18,282,382.25Z" style="fill:#263238"></path><path d="M280.05,377.49c.05.08.8-.28,1.77-1.2a9.5,9.5,0,0,0,1.47-1.81,10,10,0,0,0,.65-1.22,2.46,2.46,0,0,0,.26-.78.9.9,0,0,0-.54-1,1.16,1.16,0,0,0-1,.11,2.68,2.68,0,0,0-.6.54,7.88,7.88,0,0,0-.85,1.12,7.32,7.32,0,0,0-.91,2.17,3.57,3.57,0,0,0-.08,2.13c.12,0,.15-.8.57-2a8.27,8.27,0,0,1,1-1.95,8.07,8.07,0,0,1,.81-1c.3-.35.62-.56.83-.46s.1.06.09.22a2,2,0,0,1-.19.57,10.61,10.61,0,0,1-.57,1.17,11.67,11.67,0,0,1-1.27,1.8C280.62,376.91,280,377.4,280.05,377.49Z" style="fill:#263238"></path><path d="M280.45,377.59a3.44,3.44,0,0,0-.69-2,6.9,6.9,0,0,0-2.71-2.54,1.77,1.77,0,0,0-1.73-.14,1,1,0,0,0-.41,1,2.9,2.9,0,0,0,.25.77,4.65,4.65,0,0,0,.8,1.2,5.08,5.08,0,0,0,2,1.32,2.74,2.74,0,0,0,2.14.1,15.14,15.14,0,0,1-1.95-.58,5,5,0,0,1-1.68-1.28,4.64,4.64,0,0,1-.65-1c-.2-.41-.26-.81-.1-.87a1.24,1.24,0,0,1,1,.17,6.86,6.86,0,0,1,1.09.66,7.64,7.64,0,0,1,1.53,1.54C280.08,376.86,280.33,377.63,280.45,377.59Z" style="fill:#263238"></path><path d="M346.42,365l-1.08,34.23,42.57,1.56c-.1-4.08-21.82-13-21.82-13l1.59-21.9Z" style="fill:#FFBF49"></path><g style="opacity:0.6000000000000001"><path d="M353,385.39a1.75,1.75,0,0,0-1.28,1.94,1.67,1.67,0,0,0,1.92,1.28,1.84,1.84,0,0,0,1.34-2.06,1.75,1.75,0,0,0-2.14-1.11" style="fill:#fff"></path></g><g style="opacity:0.6000000000000001"><path d="M345.34,399.21l.24-3.45,40.73,2.79s1.87.89,1.6,2.22Z" style="fill:#fff"></path></g><path d="M366.78,387.53c0,.21-1,.26-2.1.89s-1.62,1.49-1.81,1.4.16-1.28,1.44-2S366.84,387.34,366.78,387.53Z" style="fill:#263238"></path><path d="M371.18,389.54c0,.2-.87.52-1.61,1.38s-1,1.77-1.18,1.76-.3-1.2.64-2.24S371.19,389.34,371.18,389.54Z" style="fill:#263238"></path><path d="M373.52,395c-.19,0-.44-1,.14-2.13s1.56-1.54,1.64-1.36-.54.76-1,1.69S373.73,395,373.52,395Z" style="fill:#263238"></path><path d="M366.59,382.5c-.09.18-1-.14-2.21-.1s-2.11.37-2.21.19.8-.89,2.19-.91S366.7,382.34,366.59,382.5Z" style="fill:#263238"></path><path d="M365.76,377.41a4,4,0,0,1-2.13-.09,9.54,9.54,0,0,1-2.2-.77,9.22,9.22,0,0,1-1.2-.69,2.43,2.43,0,0,1-.63-.53.91.91,0,0,1-.05-1.11,1.17,1.17,0,0,1,.92-.44,3,3,0,0,1,.8.14,7.28,7.28,0,0,1,1.31.51,7.63,7.63,0,0,1,1.92,1.36c.95.95,1.26,1.74,1.19,1.78s-.56-.61-1.53-1.4a8.57,8.57,0,0,0-1.87-1.14,7.17,7.17,0,0,0-1.21-.42c-.44-.14-.83-.16-.95,0s-.05.11,0,.24a2.11,2.11,0,0,0,.46.39c.37.25.74.48,1.1.68a12.23,12.23,0,0,0,2,.87A14.36,14.36,0,0,1,365.76,377.41Z" style="fill:#263238"></path><path d="M365.48,377.7a3.41,3.41,0,0,1-.48-2.08,6.69,6.69,0,0,1,.37-2.33A7.22,7.22,0,0,1,366,372a1.79,1.79,0,0,1,1.4-1,1,1,0,0,1,.87.63,2.82,2.82,0,0,1,.19.79,4.87,4.87,0,0,1-1,3.6c-.87,1.08-1.75,1.29-1.77,1.22s.68-.48,1.35-1.52a4.8,4.8,0,0,0,.75-2,4.29,4.29,0,0,0,0-1.24c-.05-.45-.21-.82-.38-.78s-.58.31-.77.67a7.19,7.19,0,0,0-1.06,3.25C365.4,376.88,365.6,377.67,365.48,377.7Z" style="fill:#263238"></path><path d="M272.51,288.7S257,274,250.08,274.12s-26-2.29-20.16,30.15,46.62,78,46.62,78l26.89-16.91-24.06-41.68s35.91,1.49,43.72.46,22.41-11.3,22.41-11.3L343.18,370l31-1.73s4.35-68.66,5.6-82.77c1.09-12.29-12.72-26.08-26.79-23-9.2,2-42.08,25.24-42.08,25.24Z" style="fill:#263238"></path><path d="M346.57,282.41a9,9,0,0,1,0,1.5c0,1.06-.12,2.42-.21,4.07-.16,3.43-.27,8.19-.35,13.44s-.18,10-.36,13.45c-.09,1.72-.19,3.12-.28,4.07a8.53,8.53,0,0,1-.2,1.49,7.58,7.58,0,0,1,0-1.5c0-1.06.07-2.42.12-4.07.05-3.54.13-8.25.21-13.45s.25-10,.51-13.45c.12-1.72.25-3.11.37-4.07A7.74,7.74,0,0,1,346.57,282.41Z" style="fill:#455a64"></path><path d="M345.31,309.18a6.4,6.4,0,0,1-1.37-1.65,18.43,18.43,0,0,1-3.05-9.79,6.53,6.53,0,0,1,.19-2.14,33.9,33.9,0,0,0,1.14,7.09A34.55,34.55,0,0,0,345.31,309.18Z" style="fill:#455a64"></path><path d="M303.13,320.76c-.05,0-.12-.78-.35-2.18a28.26,28.26,0,0,0-1.63-5.75,29.12,29.12,0,0,0-4.48-7.62,28.27,28.27,0,0,0-8.29-6.88c-6.73-3.9-12.65-7.72-16.77-10.7-2.07-1.49-3.69-2.77-4.77-3.7-.54-.46-.94-.85-1.21-1.1a2.27,2.27,0,0,1-.4-.42s.63.48,1.74,1.36,2.76,2.11,4.85,3.56c4.17,2.9,10.1,6.66,16.82,10.55a30,30,0,0,1,4.7,3.22,29.38,29.38,0,0,1,3.7,3.81,28.57,28.57,0,0,1,4.45,7.78,25.73,25.73,0,0,1,1.49,5.86c.12.7.11,1.26.15,1.64A2.08,2.08,0,0,1,303.13,320.76Z" style="fill:#455a64"></path><path d="M314.07,287.27a7.21,7.21,0,0,1-.51,1.32c-.37.84-.87,2.06-1.45,3.58a65.92,65.92,0,0,0-3.28,12.25,65,65,0,0,0-.82,12.67c.05,1.62.13,2.94.22,3.85a7.26,7.26,0,0,1,.06,1.42A6.93,6.93,0,0,1,308,321c-.15-.9-.29-2.22-.39-3.86A57.74,57.74,0,0,1,311.77,292c.62-1.52,1.17-2.72,1.6-3.53A7.06,7.06,0,0,1,314.07,287.27Z" style="fill:#455a64"></path><path d="M257.19,287.74a11.11,11.11,0,0,1,1.2,1.18c.74.79,1.81,1.93,3.1,3.37A119.34,119.34,0,0,1,271,304.07a42.39,42.39,0,0,1,6.6,13.58c.55,1.78,1,3.26,1.34,4.38a11.31,11.31,0,0,1,.45,1.62,9.56,9.56,0,0,1-.64-1.56c-.37-1-.88-2.49-1.5-4.33a57.21,57.21,0,0,0-2.44-6.3,52.86,52.86,0,0,0-4.24-7.1,145,145,0,0,0-9.33-11.83c-1.22-1.41-2.22-2.58-3-3.47A10,10,0,0,1,257.19,287.74Z" style="fill:#455a64"></path><path d="M311.73,273.06s-4.54,2.67-6.47,3.84c-.62.38-1.35.51-2,.86-3.13,1.7-7.74,2.94-9.08,2.91-2.34-.06-1.52,2.61,1.1,3a11.76,11.76,0,0,0,4,0l-3.91,6.15a1.54,1.54,0,0,0-.21,1.07l1.87,10a1.71,1.71,0,0,0,1.69,1.52.85.85,0,0,0,.9-.72l.28,1.33c.47,2.2,3.84,1.66,3.5-.56,0,0,0-.06,0-.09,1,1.09,2.08,1.1,3.24-.25,0,0,2.33,1.57,3.06-.69.61-1.87.33-9,.33-9s12.23-10.86,11.18-13.18Z" style="fill:#b78876"></path><path d="M302,286.22a4.7,4.7,0,0,1-1.19,2.12,13.24,13.24,0,0,0-1.44,2.12,5.39,5.39,0,0,0-.33,3c.23,2.26.42,4.31.53,5.8a11.6,11.6,0,0,1,.06,2.42,11.24,11.24,0,0,1-.43-2.38c-.2-1.48-.44-3.52-.68-5.79a5.69,5.69,0,0,1,.42-3.27,11,11,0,0,1,1.59-2.14C301.56,287,302,286.2,302,286.22Z" style="fill:#995037"></path><path d="M305.34,287.62a11.4,11.4,0,0,0-1.33,1.79,10.46,10.46,0,0,0-1.07,5.2c0,4.27.7,7.69.55,7.72a8.05,8.05,0,0,1-.58-2.22,32.68,32.68,0,0,1-.49-5.5,9.8,9.8,0,0,1,1.27-5.39A3.64,3.64,0,0,1,305.34,287.62Z" style="fill:#995037"></path><path d="M304.13,278.93a11.82,11.82,0,0,1-2.28,2.58,11.44,11.44,0,0,1-2.65,2.2,22.36,22.36,0,0,1,4.93-4.78Z" style="fill:#995037"></path><path d="M306.68,292a7.6,7.6,0,0,1-.29,1.45,15,15,0,0,0-.25,3.52c.14,2.77.6,5,.42,5.05a4.3,4.3,0,0,1-.45-1.44,20.49,20.49,0,0,1-.5-3.59,11.41,11.41,0,0,1,.42-3.63A3.12,3.12,0,0,1,306.68,292Z" style="fill:#995037"></path><polygon points="271.94 272.1 272.75 277.16 330.42 296.63 330.91 294.21 315.73 288.67 322.48 285.14 321.95 282.89 312.78 285.72 271.94 272.1" style="fill:#455a64"></polygon><path d="M325.63,287.47c-.25.47-6.3,3.87-5.23,11.27l13.14,6.33s7-7.34,5.29-11.6Z" style="fill:#fafafa"></path><path d="M325.63,287.47a9,9,0,0,1,.93.37l2.69,1.15,9.68,4.27.08,0,0,.09a5.43,5.43,0,0,1,.07,3.12,12.2,12.2,0,0,1-1.23,3,29.15,29.15,0,0,1-4.13,5.67l0,0-.13.14-.17-.08-13.13-6.37-.11-.05v-.12a11,11,0,0,1,.55-5.38,11.18,11.18,0,0,1,2.18-3.56,13.45,13.45,0,0,1,2-1.8l.56-.42c.12-.09.18-.16.19-.14s-1,.82-2.53,2.53a11.27,11.27,0,0,0-2,3.51,10.88,10.88,0,0,0-.45,5.2l-.13-.17,13.17,6.3-.31.05,0,0a29.75,29.75,0,0,0,4.06-5.56c1.05-1.88,1.79-4,1.18-5.75l.12.12-9.45-4.42L326.6,288A7.76,7.76,0,0,1,325.63,287.47Z" style="fill:#263238"></path><path d="M336.51,293.24c.05.07-.57.45-1.36,1.26a8.6,8.6,0,0,0-2.3,8.07c.24,1.11.57,1.75.49,1.79a3.77,3.77,0,0,1-.85-1.69,8.08,8.08,0,0,1,2.41-8.44A3.84,3.84,0,0,1,336.51,293.24Z" style="fill:#263238"></path><path d="M269.24,267.37l-6.32,11.57,6.32,1.59,1.54,5s9.12,4.55,10.4,4.9,7.89-3,7.89-3,3.32-.31,2.77-2.57c0,0,4.58,1.93,6.23,1.27s2.6-1.1,2.26-2-7.22-5-7.22-5-.12-2.59-1-3.75-9-4.75-9.16-4.86S269.24,267.37,269.24,267.37Z" style="fill:#b78876"></path><path d="M290.51,170.83A77.27,77.27,0,0,0,294,158.11a26.74,26.74,0,0,0-.89-13c-.22-.63-2.15-4.85-2.82-4.79-.47,0,.7,4,.45,4.38a22.67,22.67,0,0,0-2.7,13.16,59.48,59.48,0,0,0,2.48,13" style="fill:#263238"></path><path d="M278.18,207.49a12.55,12.55,0,0,0,12.44-12.39l.53-41c.49-11-5.52-20.5-16.55-20.69l-1,0a19.72,19.72,0,0,0-18.9,18.94c-.38,9.55-.67,20.12-.4,25.23.57,10.57,11.22,11.78,11.22,11.78s0,2.46,0,5.56a12.55,12.55,0,0,0,12.65,12.58Z" style="fill:#b78876"></path><path d="M265.5,189.35a25.54,25.54,0,0,0,13.61-4.64s-3,7.83-13.64,7.32Z" style="fill:#995037"></path><path d="M257.61,160.34a1.51,1.51,0,0,0,1.52,1.46,1.43,1.43,0,0,0,1.5-1.42,1.51,1.51,0,0,0-1.51-1.47A1.45,1.45,0,0,0,257.61,160.34Z" style="fill:#263238"></path><path d="M257.12,157.32c.19.19,1.3-.7,2.93-.76s2.85.7,3,.49-.12-.44-.66-.8a4.24,4.24,0,0,0-2.43-.64,4,4,0,0,0-2.32.86C257.18,156.88,257,157.24,257.12,157.32Z" style="fill:#263238"></path><path d="M273,160a1.51,1.51,0,0,0,1.52,1.46,1.45,1.45,0,0,0,1.5-1.43,1.51,1.51,0,0,0-1.52-1.46A1.45,1.45,0,0,0,273,160Z" style="fill:#263238"></path><path d="M272.77,157.07c.2.19,1.31-.71,2.94-.77s2.85.7,3,.49-.12-.44-.66-.79a4.11,4.11,0,0,0-2.43-.64,3.93,3.93,0,0,0-2.32.85C272.83,156.62,272.68,157,272.77,157.07Z" style="fill:#263238"></path><path d="M267.76,169.37a10.85,10.85,0,0,0-2.66-.37c-.42,0-.82-.09-.9-.37a2.12,2.12,0,0,1,.23-1.24c.35-1,.71-2.09,1.09-3.22,1.52-4.57,2.6-8.32,2.42-8.38s-1.57,3.6-3.09,8.17c-.36,1.13-.71,2.2-1,3.23a2.38,2.38,0,0,0-.15,1.64,1.07,1.07,0,0,0,.71.58,3.15,3.15,0,0,0,.71.07A10.76,10.76,0,0,0,267.76,169.37Z" style="fill:#263238"></path><path d="M272.59,170.3c-.27,0-.2,1.76-1.66,3.07s-3.34,1.2-3.35,1.45.44.32,1.23.31a4.34,4.34,0,0,0,2.8-1.11,3.81,3.81,0,0,0,1.28-2.57C272.92,170.71,272.71,170.28,272.59,170.3Z" style="fill:#263238"></path><path d="M272.48,150.71c.17.44,1.79.16,3.71.31s3.48.61,3.71.2c.11-.19-.18-.6-.82-1a6.17,6.17,0,0,0-2.78-.85,6.35,6.35,0,0,0-2.88.46C272.74,150.14,272.4,150.5,272.48,150.71Z" style="fill:#263238"></path><path d="M257.57,152.69c.3.36,1.4-.07,2.75-.14s2.5.14,2.74-.25c.11-.2-.08-.56-.6-.89a3.76,3.76,0,0,0-2.26-.51,3.86,3.86,0,0,0-2.17.83C257.57,152.13,257.43,152.52,257.57,152.69Z" style="fill:#263238"></path><path d="M290.6,161.92c.18-.09,7.19-2.45,7.25,4.79s-7.21,5.82-7.23,5.61S290.6,161.92,290.6,161.92Z" style="fill:#b78876"></path><path d="M292.81,169.55s.13.09.34.19a1.3,1.3,0,0,0,.94,0,3.11,3.11,0,0,0,1.42-2.82,4.17,4.17,0,0,0-.37-1.8,1.47,1.47,0,0,0-1-1,.66.66,0,0,0-.74.35c-.09.21-.05.35-.08.36s-.16-.12-.11-.42a.86.86,0,0,1,.28-.45.92.92,0,0,1,.7-.19,1.76,1.76,0,0,1,1.33,1.11,4.35,4.35,0,0,1,.46,2c0,1.46-.77,2.84-1.82,3.15a1.33,1.33,0,0,1-1.15-.18C292.82,169.73,292.78,169.57,292.81,169.55Z" style="fill:#995037"></path><path d="M259.36,140.33c-1.18-.64,2.34-4.44,5.22-5.75,4.35-2,11-3.2,15-2.06,4.84,1.37,8.86,3.77,11.28,8.17a28.46,28.46,0,0,1,3.21,14.54,8.64,8.64,0,0,1-1,4.43c-1,1.6-2.95,2.61-2.86,4.82a3,3,0,0,1-.75,2.21c-1.33,1.41-2.95.09-3.7-1.24-1.59-2.84-1.77-6.22-1.91-9.47a21.21,21.21,0,0,1,.45-6.89c.36-1.21.93-2.35,1.21-3.58a4.34,4.34,0,0,0-.51-3.61,4.61,4.61,0,0,0-.59-.6,7.58,7.58,0,0,0-7.5-1.42c-4.08,1.45-11,3.6-12.86,2.22a11.2,11.2,0,0,1-3.25-3.29Z" style="fill:#263238"></path></g><g id="freepik--character-4--inject-5"><path d="M445.12,440.17c-2.36-2.07-5.67-2.6-8.79-3A242.75,242.75,0,0,0,406,435.32l-65.55,10.07c.08,3.84,2.81,7.23,6.12,9.17s7.16,2.71,10.93,3.44l25.63,5c1.66.32,3.55.81,4.26,2.34,1.28,2.74-2.42,5.19-5.43,5.44s-6.74.18-8.17,2.84c15.66,3.92,32.26,2.12,47.88-2,5.89-1.53,11.79-3.43,16.79-6.9s9-8.72,9.79-14.76C448.66,446.45,447.8,442.53,445.12,440.17Z" style="fill:#ebebeb"></path><path d="M389.33,306.73c.54-6.53,7.71-12.92,14.21-12.1l21,4.43-.14,3.51-2.15,43.51h0s-1.51,10.72-13.35,9.68c-10.63-.92-10.4-8.86-10.4-8.87l.34-6.12s-8.32-1.55-9.84-12.48C388.29,322.86,388.73,314,389.33,306.73Z" style="fill:#aa6550"></path><path d="M434.48,297.63c-1.19-2.82-3.88-4.66-6.44-6.34-4-2.61-8-5.26-12.5-6.86A59.7,59.7,0,0,0,404.37,282a10.5,10.5,0,0,0-5.4.13,5.28,5.28,0,0,0-3.26,4.53,5.86,5.86,0,0,0-8.14,7.55,5.75,5.75,0,0,0-.48,10.34,3.24,3.24,0,0,0-1.73,3.36,3.32,3.32,0,0,0,3.54,2.6,47.34,47.34,0,0,0,2.05,8.39c.36,1.15,1.6,3.32,2.35-.52.19-1,3.25-2.33,4,.91.91,4.07-2.21,6.56-2,7.28,1.87,7,8.05,13.16,15.32,13.48,7.83.35,15-5.23,18.73-12.09s4.81-14.86,5.64-22.65C435.24,302.71,435.48,300,434.48,297.63Z" style="fill:#263238"></path><path d="M343.8,450.26a10,10,0,0,1-6-3.16c-2.85-3.16-6.33-8.85-3.21-15.77,4.82-10.72,58.12-20.36,58.12-20.36l53,14.73s2.68,20-7.55,23.71c-6.71,2.45-14.78,0-14.78,0s-16.51,1.2-25.89.4l-5.89,7.5Z" style="fill:#263238"></path><path d="M391.64,457.31l23.5,3.86-.52-15.27-.33,0a12.2,12.2,0,0,0-9.44,2.38l-1.46,1.13-5.86.45Z" style="fill:#455a64"></path><path d="M428,448.66c-2,1.3-4.65,1-6.87.12s-4.24-2.19-6.51-2.88-5-.6-6.69,1.09a6.06,6.06,0,0,0-1.35,5.3,11.52,11.52,0,0,0,6,7.72,25.34,25.34,0,0,0,9.69,2.64,28.54,28.54,0,0,0,12.24-.9c2.31-.8,4.6-2.23,5.5-4.51,1.2-3-.66-6.7-3.54-8.24a8.62,8.62,0,0,0-8.46-.34" style="fill:#455a64"></path><path d="M428,448.66l.19-.1a4.68,4.68,0,0,1,.6-.27,9.35,9.35,0,0,1,2.42-.63,8,8,0,0,1,3.92.55,11.21,11.21,0,0,1,2.22,1.15,8.16,8.16,0,0,1,2,2,7.52,7.52,0,0,1,1.17,2.86,5.75,5.75,0,0,1-.39,3.35c-1,2.2-3.28,3.65-5.71,4.45a24.3,24.3,0,0,1-8,1.13,45.32,45.32,0,0,1-8.61-1,17.26,17.26,0,0,1-7.81-3.72,10.48,10.48,0,0,1-3.73-7.09,6.39,6.39,0,0,1,.87-3.73,5,5,0,0,1,2.91-2.12,9.45,9.45,0,0,1,6.29.79c1.78.8,3.29,1.69,4.71,2.25a10.57,10.57,0,0,0,3.78.85,6.39,6.39,0,0,0,3.2-.77,3.36,3.36,0,0,1-.75.46,6,6,0,0,1-2.45.51,10.51,10.51,0,0,1-3.89-.78c-1.45-.55-3-1.42-4.75-2.18a9,9,0,0,0-6-.71,4.44,4.44,0,0,0-2.64,2,5.86,5.86,0,0,0-.78,3.45,10,10,0,0,0,3.59,6.74,16.78,16.78,0,0,0,7.59,3.59,44.72,44.72,0,0,0,8.49,1,24.07,24.07,0,0,0,7.84-1.07c2.37-.77,4.55-2.15,5.46-4.18a5.39,5.39,0,0,0,.4-3.1,7.32,7.32,0,0,0-1.09-2.73,7.63,7.63,0,0,0-1.85-1.94,10.56,10.56,0,0,0-2.13-1.15,7.91,7.91,0,0,0-3.79-.62,10.37,10.37,0,0,0-2.41.53A7.79,7.79,0,0,1,428,448.66Z" style="fill:#263238"></path><path d="M415.18,458.82a29.32,29.32,0,0,1-1.67-5.18,28.72,28.72,0,0,1-1.18-5.31A28.54,28.54,0,0,1,414,453.5,28,28,0,0,1,415.18,458.82Z" style="fill:#263238"></path><path d="M418,456.94a54.71,54.71,0,0,1-2.55-7.78,13.79,13.79,0,0,1,1.63,3.78A14.07,14.07,0,0,1,418,456.94Z" style="fill:#263238"></path><path d="M419.77,452.65a16.52,16.52,0,0,1-4.11-.21,16.69,16.69,0,0,1-4.05-.73,32.35,32.35,0,0,1,8.16.94Z" style="fill:#263238"></path><path d="M418.55,455.54c0,.14-.8.19-1.75.12s-1.73-.26-1.72-.4.8-.2,1.76-.12S418.56,455.39,418.55,455.54Z" style="fill:#263238"></path><path d="M402.15,457.25a9.21,9.21,0,0,1,1.15-7.7c.14.07-.61,1.68-.91,3.8S402.31,457.23,402.15,457.25Z" style="fill:#263238"></path><path d="M399.79,457a7.4,7.4,0,0,1,.57-4.15,7.29,7.29,0,0,1,2.34-3.47c.12.1-1.06,1.55-1.85,3.66S400,457,399.79,457Z" style="fill:#263238"></path><path d="M398.64,451.33a3.18,3.18,0,0,1-.62-.06l-1.78-.28-6.52-1.13L368.26,446l-11.81-2.21c-3.61-.74-6.94-1.15-9.58-2.24a9.38,9.38,0,0,1-5-4.26,5.76,5.76,0,0,1-.59-1.71,4,4,0,0,1,0-.47c0-.11,0-.16,0-.16a8.57,8.57,0,0,0,.81,2.25,9.43,9.43,0,0,0,5,4c2.57,1,5.91,1.4,9.53,2.1l11.81,2.18,21.44,4.06,6.49,1.29,1.76.37A2.21,2.21,0,0,1,398.64,451.33Z" style="fill:#455a64"></path><path d="M435.47,435.61s.07.25.1.71a9.79,9.79,0,0,1-.1,2,13.82,13.82,0,0,1-.72,2.85,15.79,15.79,0,0,1-1.68,3.18,15.45,15.45,0,0,1-2.42,2.68,13.65,13.65,0,0,1-2.42,1.66,9.43,9.43,0,0,1-1.82.77,2.31,2.31,0,0,1-.71.16c0-.1.95-.41,2.35-1.25a15.42,15.42,0,0,0,2.29-1.7,17.16,17.16,0,0,0,2.3-2.62A16.81,16.81,0,0,0,434.3,441a15.57,15.57,0,0,0,.81-2.73C435.41,436.64,435.37,435.61,435.47,435.61Z" style="fill:#455a64"></path><polygon points="371.42 386.25 365.4 399.4 353.86 420.58 373.37 415.11 386.29 390.48 371.42 386.25" style="fill:#aa6550"></polygon><path d="M389.59,382.23l3.46,24.41-4.83,5.2s-6.24,20.34,8.22,24.63,49.63-1.57,49.63-1.57l2.36-9.73-2.62-54.69-8.91-18.43-13.08-9.9-26.9,3.23-2.74,4.07-10.62,4.07Z" style="fill:#FFBF49"></path><path d="M383.56,353.52s-3.4,1.46-6.07,9.33-8.57,19-8.29,19.68,11.76,17.59,17.09,12.12c.82-.84,8.21-13.38,8.21-13.38S404.53,355,383.56,353.52Z" style="fill:#FFBF49"></path><path d="M392.27,355.15a1.63,1.63,0,0,1,.38.25c.23.19.57.47,1,.84a18.84,18.84,0,0,1,3.16,3.61,9,9,0,0,1,1.35,3.07,24.13,24.13,0,0,1,.33,3.81,30.55,30.55,0,0,1-1.2,8.63,48,48,0,0,1-7,14.1c-1.15,1.66-2.14,3-2.84,3.85-.35.44-.62.78-.82,1a1.57,1.57,0,0,1-.31.33,11.53,11.53,0,0,1,1-1.46c.64-.93,1.59-2.26,2.7-3.93a50.86,50.86,0,0,0,6.81-14,30.84,30.84,0,0,0,1.23-8.49,23,23,0,0,0-.28-3.72,8.76,8.76,0,0,0-1.23-3,20.71,20.71,0,0,0-3-3.66A16.69,16.69,0,0,1,392.27,355.15Z" style="fill:#263238"></path><path d="M395.45,425.82a2.07,2.07,0,0,1-.66-.45,8.49,8.49,0,0,1-1.43-1.62,13,13,0,0,1-2.13-6.75,25.39,25.39,0,0,1,.8-7,13.84,13.84,0,0,1,.82-2.81,19,19,0,0,1-.46,2.88,30.63,30.63,0,0,0-.64,6.94,13.87,13.87,0,0,0,1.91,6.58A22.15,22.15,0,0,0,395.45,425.82Z" style="fill:#263238"></path><path d="M396.26,417.52a26.91,26.91,0,0,1-3-12c.15,0,.47,2.74,1.31,6S396.4,417.46,396.26,417.52Z" style="fill:#263238"></path><path d="M444.24,424.14a8.69,8.69,0,0,1-1.24.91,15.6,15.6,0,0,1-1.53,1c-.62.34-1.3.77-2.12,1.13a28.14,28.14,0,0,1-2.66,1.17c-1,.41-2,.73-3.16,1.09a38.1,38.1,0,0,1-15.17,1.23c-1.16-.18-2.27-.32-3.29-.57a27.38,27.38,0,0,1-2.82-.73,22.72,22.72,0,0,1-2.26-.77,17.7,17.7,0,0,1-1.67-.7,7.91,7.91,0,0,1-1.37-.71c0-.1,2,.88,5.41,1.83.84.23,1.78.48,2.8.66s2.11.35,3.26.51a43.68,43.68,0,0,0,7.55.11,43.22,43.22,0,0,0,7.43-1.32c1.11-.34,2.18-.64,3.14-1s1.85-.73,2.66-1.1C442.39,425.33,444.18,424,444.24,424.14Z" style="fill:#263238"></path></g><g id="freepik--character-2--inject-5"><path d="M157,350.8l3.89,24.3-30.21,5c-.3-2.92,14.37-11.3,14.37-11.3l-3.13-15.46Z" style="fill:#455a64"></path><g style="opacity:0.6000000000000001"><path d="M154.17,366a1.24,1.24,0,0,1,1.08,1.27,1.2,1.2,0,0,1-1.24,1.09,1.34,1.34,0,0,1-1.15-1.35,1.25,1.25,0,0,1,1.43-1" style="fill:#fff"></path></g><g style="opacity:0.6000000000000001"><path d="M160.88,375.1l-.49-2.43-28.78,5.7s-1.24.81-.94,1.73Z" style="fill:#fff"></path></g><path d="M144.53,368.73c0,.15.78.09,1.58.45s1.29.91,1.42.83-.23-.9-1.22-1.31S144.47,368.6,144.53,368.73Z" style="fill:#263238"></path><path d="M141.58,370.57c0,.15.67.29,1.27.83s.86,1.18,1,1.15.11-.88-.66-1.54S141.56,370.43,141.58,370.57Z" style="fill:#263238"></path><path d="M140.4,374.66c.14,0,.23-.77-.29-1.51s-1.25-.95-1.29-.82.45.49.86,1.11S140.26,374.67,140.4,374.66Z" style="fill:#263238"></path><path d="M144.21,365.13c.08.12.72-.19,1.57-.27s1.53.07,1.59-.07-.66-.56-1.65-.45S144.11,365,144.21,365.13Z" style="fill:#263238"></path><path d="M144.33,361.42a2.75,2.75,0,0,0,1.51-.25,7,7,0,0,0,1.51-.75,8.39,8.39,0,0,0,.79-.61,2.12,2.12,0,0,0,.4-.43.65.65,0,0,0-.07-.79.81.81,0,0,0-.7-.23,2,2,0,0,0-.55.17,5.79,5.79,0,0,0-.89.48,5.34,5.34,0,0,0-1.24,1.14,2.59,2.59,0,0,0-.69,1.38c.08,0,.34-.48,1-1.14a6.87,6.87,0,0,1,1.23-1,6.27,6.27,0,0,1,.82-.41c.31-.14.58-.18.69-.06s0,.07,0,.18a1.35,1.35,0,0,1-.29.31,6.51,6.51,0,0,1-.73.59,8.55,8.55,0,0,1-1.37.81A13.66,13.66,0,0,0,144.33,361.42Z" style="fill:#263238"></path><path d="M144.56,361.6a2.39,2.39,0,0,0,.16-1.52,5.15,5.15,0,0,0-.48-1.62,5.33,5.33,0,0,0-.54-.86,1.27,1.27,0,0,0-1.09-.6.7.7,0,0,0-.56.52,2.08,2.08,0,0,0-.07.58,3.69,3.69,0,0,0,.17,1,3.54,3.54,0,0,0,.9,1.46c.72.68,1.37.76,1.37.71s-.52-.29-1.1-1a3.59,3.59,0,0,1-.71-1.35,3.12,3.12,0,0,1-.12-.88c0-.32.07-.6.2-.59s.44.17.61.41a4.59,4.59,0,0,1,.51.76,5.26,5.26,0,0,1,.54,1.46C144.54,361,144.48,361.6,144.56,361.6Z" style="fill:#263238"></path><path d="M205.07,349.67,201.18,374l30.21,5c.3-2.92-14.37-11.29-14.37-11.29l3.13-15.47Z" style="fill:#455a64"></path><g style="opacity:0.6000000000000001"><path d="M207.9,364.82a1.26,1.26,0,0,0-1.09,1.27,1.21,1.21,0,0,0,1.25,1.09,1.33,1.33,0,0,0,1.14-1.35,1.24,1.24,0,0,0-1.42-1" style="fill:#fff"></path></g><g style="opacity:0.6000000000000001"><path d="M201.18,374l.49-2.43,28.78,5.7s1.25.81.94,1.73Z" style="fill:#fff"></path></g><path d="M217.54,367.6c0,.15-.78.09-1.59.45s-1.29.91-1.42.83.24-.9,1.22-1.31S217.59,367.47,217.54,367.6Z" style="fill:#263238"></path><path d="M220.49,369.44c0,.15-.67.29-1.28.83s-.86,1.18-1,1.15-.1-.88.66-1.54S220.51,369.3,220.49,369.44Z" style="fill:#263238"></path><path d="M221.66,373.53c-.14,0-.22-.76.29-1.51s1.25-.95,1.3-.82-.46.5-.87,1.11S221.81,373.54,221.66,373.53Z" style="fill:#263238"></path><path d="M217.86,364c-.09.12-.73-.19-1.57-.27s-1.54.07-1.59-.07.65-.56,1.64-.45S218,363.9,217.86,364Z" style="fill:#263238"></path><path d="M217.73,360.3a3,3,0,0,1-1.51-.26,7,7,0,0,1-1.5-.75,8.66,8.66,0,0,1-.79-.6,1.74,1.74,0,0,1-.4-.44.64.64,0,0,1,.06-.79.81.81,0,0,1,.7-.23,2,2,0,0,1,.56.17,5.25,5.25,0,0,1,.88.48A5.64,5.64,0,0,1,217,359c.59.77.74,1.36.68,1.38s-.34-.48-1-1.13a6.08,6.08,0,0,0-1.22-1,6.41,6.41,0,0,0-.83-.41c-.31-.14-.58-.18-.68-.05s-.05.07,0,.17a1.7,1.7,0,0,0,.3.32,7.62,7.62,0,0,0,.72.58,8.25,8.25,0,0,0,1.37.81A9.62,9.62,0,0,1,217.73,360.3Z" style="fill:#263238"></path><path d="M217.5,360.48a2.51,2.51,0,0,1-.15-1.53,4.67,4.67,0,0,1,.48-1.62,5.26,5.26,0,0,1,.53-.86,1.27,1.27,0,0,1,1.1-.6.71.71,0,0,1,.56.52,2,2,0,0,1,.06.58,3.3,3.3,0,0,1-.17,1,3.54,3.54,0,0,1-.9,1.46c-.72.68-1.36.76-1.37.71s.53-.29,1.1-1a3.6,3.6,0,0,0,.72-1.35,3.1,3.1,0,0,0,.11-.87c0-.33-.07-.61-.2-.6s-.44.17-.61.41a4.59,4.59,0,0,0-.51.76,5.26,5.26,0,0,0-.54,1.46C217.52,359.89,217.59,360.47,217.5,360.48Z" style="fill:#263238"></path><path d="M163,293.87s-20.64-3.71-25.64-1c-4.29,2.32-5.46,5.57-6,9.13-.37,2.38,7,60.6,7,60.6l23-4.77-5.53-41.54s4.49,6.08,12.17,5.82l29.32.26,6.66-1.85-1.85,37.58L223,362.6l6.21-50.41a21.45,21.45,0,0,0-1.78-11.64c-1.21-2.61-2.77-5.35-4.43-6.68-3.71-3-19-2.72-19-2.72Z" style="fill:#263238"></path><path d="M178.48,322.2a32.49,32.49,0,0,1,0-3.48c.06-2.3.14-5.2.22-8.4s.21-6.26.32-8.41a23.23,23.23,0,0,1,.27-3.47,22.45,22.45,0,0,1,.1,3.48c0,2.16-.07,5.13-.17,8.41s-.23,6.26-.37,8.41A17.6,17.6,0,0,1,178.48,322.2Z" style="fill:#455a64"></path><path d="M213.71,299.58c.07.06-.91,1-2.29,2.76a37.39,37.39,0,0,0-4.53,7.3,38.17,38.17,0,0,0-2.68,8.17c-.43,2.17-.55,3.54-.64,3.53a3.66,3.66,0,0,1,0-1,23.6,23.6,0,0,1,.29-2.62,31.88,31.88,0,0,1,7.29-15.64A21,21,0,0,1,213,300.2C213.42,299.77,213.69,299.55,213.71,299.58Z" style="fill:#455a64"></path><path d="M204.13,303.7a18.16,18.16,0,0,1-.33,2.72,64,64,0,0,0-.53,6.54,60.54,60.54,0,0,0,.19,6.57,19.68,19.68,0,0,1,.18,2.73,10.94,10.94,0,0,1-.55-2.69,42.62,42.62,0,0,1,.35-13.21A11.49,11.49,0,0,1,204.13,303.7Z" style="fill:#455a64"></path><path d="M150.48,303.54a7.29,7.29,0,0,1,1.21,1.7,32.72,32.72,0,0,1,2.22,4.51,31.21,31.21,0,0,1,1.49,4.8,7.31,7.31,0,0,1,.3,2.07c-.16,0-.82-3.07-2.27-6.67S150.34,303.63,150.48,303.54Z" style="fill:#455a64"></path><path d="M153.25,298.94s.21.2.51.61a14.73,14.73,0,0,1,1.13,1.83,22,22,0,0,1,2.25,13.8,15.93,15.93,0,0,1-.49,2.1c-.15.48-.25.74-.29.73s.2-1.1.41-2.88a24.68,24.68,0,0,0-2.21-13.58C153.79,299.93,153.18,299,153.25,298.94Z" style="fill:#455a64"></path><path d="M180.68,314a6.39,6.39,0,0,1-.28-2.42A15,15,0,0,1,185,301a6.79,6.79,0,0,1,2-1.45c0,.08-.69.63-1.7,1.71a17.1,17.1,0,0,0-3.14,4.78,17.36,17.36,0,0,0-1.36,5.56C180.67,313,180.77,313.94,180.68,314Z" style="fill:#455a64"></path><path d="M177.17,316.48c-.09,0-.09-1.09-.39-2.79a20.23,20.23,0,0,0-2.29-6.3,20,20,0,0,0-4.28-5.16c-1.32-1.12-2.25-1.67-2.2-1.75a2.26,2.26,0,0,1,.69.31,13.33,13.33,0,0,1,1.74,1.15,17.78,17.78,0,0,1,4.5,5.19,18,18,0,0,1,2.2,6.5,12,12,0,0,1,.11,2.09C177.23,316.21,177.21,316.48,177.17,316.48Z" style="fill:#455a64"></path><path d="M166.25,272.47l.35-.78a2.28,2.28,0,0,0,1.22.37c.44,0,.61-.12.61-.3,0-.59-2.12-.16-2.12-1.54,0-.67.55-1.21,1.65-1.21a2.73,2.73,0,0,1,1.35.33l-.32.78a2.24,2.24,0,0,0-1-.29c-.45,0-.6.15-.6.33,0,.57,2.1.15,2.1,1.52,0,.65-.54,1.2-1.64,1.2A3,3,0,0,1,166.25,272.47Z" style="fill:#fff"></path><path d="M169.92,271.15v-2.06H171v2c0,.64.26.9.7.9s.7-.26.7-.9v-2h1v2.06a1.75,1.75,0,0,1-3.49,0Z" style="fill:#fff"></path><path d="M177.48,272.8v-2l-1,1.61h-.46l-1-1.55v1.91h-1v-3.71H175l1.31,2.14,1.27-2.14h.87v3.71Z" style="fill:#fff"></path><path d="M179.22,272.68c.31-.16.62-.31.94-.44v-1.35l.57.92a24.94,24.94,0,0,0,2.22-1.32c.18-.15.37-.28.56-.41v-1h-.86l-1.28,2.14-1.3-2.14h-.87v3.62Z" style="fill:#fff"></path><path d="M157.41,231.22s-9.69,2.73-11.9,6.57c-2.93,5.07-9.91,22.78-9.91,22.78l17.28,4.5,1.55,28.12s8.44,9.19,19.86,11,29.61-12.72,29.61-12.72V259.53L216,255.32l-3.31-11.51a14.26,14.26,0,0,0-7.85-9.08L192,228.88l-25.45-1.3Z" style="fill:#FFBF49"></path><path d="M153.68,279.54a4,4,0,0,1-.19-1.06c-.09-.7-.19-1.7-.29-2.94-.21-2.47-.43-5.9-.63-9.68s-.36-7.09-.49-9.7q-.08-1.73-.12-2.94a4.14,4.14,0,0,1,0-1.08,4.68,4.68,0,0,1,.18,1.07c.09.69.19,1.69.29,2.93.21,2.48.43,5.9.64,9.69s.35,7.08.48,9.69q.08,1.73.12,2.94A4.53,4.53,0,0,1,153.68,279.54Z" style="fill:#263238"></path><path d="M204.31,245.82a30.18,30.18,0,0,1,.05,3.41c0,2.25,0,5.09-.05,8.22s-.08,6.13-.16,8.23a19.92,19.92,0,0,1-.25,3.41,24.85,24.85,0,0,1-.12-3.41c0-2.11,0-5,0-8.23s.1-6.13.2-8.23A18.12,18.12,0,0,1,204.31,245.82Z" style="fill:#263238"></path><path d="M182.94,270.41l-.51.86-.26-.43-.75.39.76,1.24h.47l1-1.6v2h1v-3.52A16.52,16.52,0,0,1,182.94,270.41Z" style="fill:#fff"></path><path d="M188.31,272v.81h-3v-3.72h2.91v.82h-1.87v.62H188v.79h-1.65V272Z" style="fill:#fff"></path><path d="M190.52,271.85H190v1h-1v-3.72h1.7c1,0,1.65.53,1.65,1.38a1.23,1.23,0,0,1-.73,1.17l.8,1.17H191.2Zm0-1.9H190V271h.58c.44,0,.66-.2.66-.54S191,270,190.53,270Z" style="fill:#fff"></path><path d="M166.25,272.47l.35-.78a2.28,2.28,0,0,0,1.22.37c.44,0,.61-.12.61-.3,0-.59-2.12-.16-2.12-1.54,0-.67.55-1.21,1.65-1.21a2.73,2.73,0,0,1,1.35.33l-.32.78a2.24,2.24,0,0,0-1-.29c-.45,0-.6.15-.6.33,0,.57,2.1.15,2.1,1.52,0,.65-.54,1.2-1.64,1.2A3,3,0,0,1,166.25,272.47Z" style="fill:#fff"></path><path d="M169.92,271.15v-2.06H171v2c0,.64.26.9.7.9s.7-.26.7-.9v-2h1v2.06a1.75,1.75,0,0,1-3.49,0Z" style="fill:#fff"></path><path d="M177.48,272.8v-2l-1,1.61h-.46l-1-1.55v1.91h-1v-3.71H175l1.31,2.14,1.27-2.14h.87v3.71Z" style="fill:#fff"></path><path d="M179.22,272.68c.31-.16.62-.31.94-.44v-1.35l.57.92a24.94,24.94,0,0,0,2.22-1.32c.18-.15.37-.28.56-.41v-1h-.86l-1.28,2.14-1.3-2.14h-.87v3.62Z" style="fill:#fff"></path><path d="M173.8,276.85A.79.79,0,0,1,173,276a.78.78,0,0,1,.82-.84.9.9,0,0,1,.7.34L175,275a1,1,0,0,0-.6-.43s-.09.15-.18.1-.12,0-.18.07l-.12.07-.17.09-.06,0h-.12a1.88,1.88,0,0,1-.23.16,3.11,3.11,0,0,1-.41.2h0s0,.05-.05.06a6.82,6.82,0,0,1-.72.35,1.27,1.27,0,0,0,0,.28,1.53,1.53,0,0,0,1.63,1.54A1.57,1.57,0,0,0,175,277l-.53-.48A.91.91,0,0,1,173.8,276.85Z" style="fill:#fff"></path><path d="M177.34,276.9h-1.25l-.24.58H175l1.31-3h.82l1.31,3h-.87Zm-.25-.61-.38-1-.38,1Z" style="fill:#fff"></path><path d="M181.35,277.48v-1.57l-.76,1.28h-.37l-.76-1.24v1.53h-.77v-3h.69l1,1.71,1-1.71h.69v3Z" style="fill:#fff"></path><path d="M185.38,275.62c0,.67-.5,1.09-1.31,1.09h-.52v.77h-.83v-3h1.35C184.88,274.52,185.38,274.94,185.38,275.62Zm-.84,0c0-.28-.17-.44-.52-.44h-.47v.87H184C184.37,276.05,184.54,275.89,184.54,275.62Z" style="fill:#fff"></path><path d="M182,260.74a3.3,3.3,0,1,1-3.3-3.3A3.3,3.3,0,0,1,182,260.74Z" style="fill:#fff"></path><path d="M178.24,268.12a23.14,23.14,0,0,1,0-2.72s0,.61,0,1.36S178.26,268.12,178.24,268.12Z" style="fill:#fff"></path><path d="M176.34,264.63s-.3.58-.7,1.27a14.35,14.35,0,0,1-.75,1.23s.29-.57.69-1.27A13,13,0,0,1,176.34,264.63Z" style="fill:#fff"></path><path d="M174.39,263.41a7.49,7.49,0,0,1-.78.66,5.94,5.94,0,0,1-.81.6,7.37,7.37,0,0,1,.77-.65A7.64,7.64,0,0,1,174.39,263.41Z" style="fill:#fff"></path><path d="M181.53,266.78a1.71,1.71,0,0,1-.08-.34c0-.2-.12-.49-.2-.8s-.17-.6-.24-.8a2,2,0,0,1-.09-.34,2,2,0,0,1,.14.32,6.48,6.48,0,0,1,.25.8,6.17,6.17,0,0,1,.18.81A1.28,1.28,0,0,1,181.53,266.78Z" style="fill:#fff"></path><path d="M184.88,264.4a9.52,9.52,0,0,1-1-.8,10.25,10.25,0,0,1-.93-.86,11,11,0,0,1,1,.8A12.22,12.22,0,0,1,184.88,264.4Z" style="fill:#fff"></path><path d="M186.16,261.14l-.39-.06-1-.14-1-.08-.4,0a2,2,0,0,1,.41,0c.24,0,.59,0,1,.06s.71.11,1,.16A1.32,1.32,0,0,1,186.16,261.14Z" style="fill:#fff"></path><path d="M186.17,257.93s-.71.21-1.6.42-1.61.38-1.61.36.71-.21,1.6-.43S186.16,257.91,186.17,257.93Z" style="fill:#fff"></path><path d="M182.44,254.19s-.33.55-.77,1.21a11.12,11.12,0,0,1-.82,1.18s.33-.55.77-1.21A11.12,11.12,0,0,1,182.44,254.19Z" style="fill:#fff"></path><path d="M178.74,253.4s0,.18,0,.46,0,.66,0,1.09,0,.81,0,1.09a2.65,2.65,0,0,1,0,.45,2.57,2.57,0,0,1-.05-.45c0-.28,0-.66,0-1.09s0-.81,0-1.09A2.8,2.8,0,0,1,178.74,253.4Z" style="fill:#fff"></path><path d="M175.93,256.9s-.36-.53-.77-1.21a11.58,11.58,0,0,1-.72-1.24s.36.53.77,1.21A11.58,11.58,0,0,1,175.93,256.9Z" style="fill:#fff"></path><path d="M174.26,258.32a1.41,1.41,0,0,1-.35-.06,7.2,7.2,0,0,1-.83-.21c-.32-.09-.61-.19-.82-.27l-.32-.14.34.09.82.25.82.24A1.6,1.6,0,0,1,174.26,258.32Z" style="fill:#fff"></path><path d="M173.53,260.86a9.81,9.81,0,0,1-1.06.13,7.51,7.51,0,0,1-1.06.07,14.25,14.25,0,0,1,2.12-.2Z" style="fill:#fff"></path><path d="M198.79,254.39a1.68,1.68,0,0,1-.18.46c-.14.29-.31.73-.61,1.26a28.73,28.73,0,0,1-2.82,4.33,43.4,43.4,0,0,1-13,10.91A88.39,88.39,0,0,1,166.57,278c-2.07.69-3.75,1.21-4.91,1.56l-1.35.39a1.33,1.33,0,0,1-.48.1,2.9,2.9,0,0,1,.45-.2l1.31-.48,4.85-1.71a99,99,0,0,0,15.5-6.79,45.24,45.24,0,0,0,13-10.68,34.56,34.56,0,0,0,2.92-4.2C198.44,255,198.75,254.37,198.79,254.39Z" style="fill:#263238"></path><g style="opacity:0.30000000000000004"><path d="M191.76,262.22c-.41-.23-.89.08-1.25.38A68.15,68.15,0,0,1,180.3,270c-5.59,3.09-12.08,4.67-17,8.79a71.85,71.85,0,0,0,9.9-3.59c6.63-2.73,13.15-6.12,18.2-11.2a2.1,2.1,0,0,0,.6-.85A.78.78,0,0,0,191.76,262.22Z"></path></g><path d="M197.48,196.59c3.37-1.59,1.73-9.13-1.29-12-2.34-2.25-5-3.84-8.23-3.78-2.88,0-5.69.89-8.57,1-2.41.09-4.83-.36-7.23-.12s-4.95,1.35-5.93,3.55a4.14,4.14,0,0,1-.88,1.61,3.58,3.58,0,0,1-1.77.58,7.2,7.2,0,0,0-5.53,7.92c.47,2.89,2.73,5.32,2.85,8.25a40.63,40.63,0,0,1-.59,4.51,8.14,8.14,0,0,0,15.25,4.53" style="fill:#263238"></path><path d="M197,199.7c-.48-5.85-6.91-11.58-12.73-10.84l-18.86,4,.13,3.15,1.93,39h0s1.35,9.6,11.95,8.68c9.53-.83,9.33-8,9.33-8l-.21-7.18s7.45-.37,8.81-10.17C198,213.47,197.54,206.2,197,199.7Z" style="fill:#ffbe9d"></path><path d="M194.88,206.13a1.24,1.24,0,0,1-1.18,1.28,1.19,1.19,0,0,1-1.31-1.1,1.25,1.25,0,0,1,1.18-1.29A1.19,1.19,0,0,1,194.88,206.13Z" style="fill:#263238"></path><path d="M195.36,204.24c-.16.16-1.12-.52-2.47-.49s-2.32.72-2.47.56.08-.37.51-.69a3.38,3.38,0,0,1,2-.65,3.28,3.28,0,0,1,2,.59C195.28,203.87,195.43,204.16,195.36,204.24Z" style="fill:#263238"></path><path d="M182.32,206.13a1.26,1.26,0,0,1-1.18,1.28,1.2,1.2,0,0,1-1.32-1.1A1.26,1.26,0,0,1,181,205,1.2,1.2,0,0,1,182.32,206.13Z" style="fill:#263238"></path><path d="M182.33,204.24c-.15.16-1.12-.52-2.46-.49s-2.32.72-2.47.56.08-.37.5-.69a3.44,3.44,0,0,1,2-.65,3.32,3.32,0,0,1,2,.59C182.26,203.87,182.4,204.16,182.33,204.24Z" style="fill:#263238"></path><path d="M187.2,214.3a10.19,10.19,0,0,1,2.19-.4c.34,0,.66-.1.72-.3s-.07-.53-.24-.86l-1-2.19a33.71,33.71,0,0,1-2.35-5.75,35.43,35.43,0,0,1,2.89,5.56l1,2.21a1.43,1.43,0,0,1,.19,1.14.83.83,0,0,1-.56.44,3.59,3.59,0,0,1-.58.09A11.48,11.48,0,0,1,187.2,214.3Z" style="fill:#263238"></path><path d="M188.53,228.51a24.81,24.81,0,0,1-13.14-3.24s3.47,6.82,13.22,5.72Z" style="fill:#eb996e"></path><path d="M183.56,214.05c.21,0,.25,1.45,1.52,2.46s2.82.82,2.84,1-.34.29-1,.32a3.6,3.6,0,0,1-2.37-.77,3.17,3.17,0,0,1-1.18-2.07C183.3,214.41,183.46,214.05,183.56,214.05Z" style="fill:#263238"></path><path d="M181.53,200.93c-.06.43-1.24.37-2.58.74s-2.38,1-2.6.65c-.1-.17,0-.59.44-1a3.81,3.81,0,0,1,1.85-1.14,3.48,3.48,0,0,1,2.1.08C181.27,200.42,181.56,200.72,181.53,200.93Z" style="fill:#263238"></path><path d="M195.82,201.82c-.31.44-1.52,0-3-.07s-2.69.28-3-.19c-.13-.23.07-.68.61-1.1a3.89,3.89,0,0,1,4.79.21C195.79,201.13,196,201.6,195.82,201.82Z" style="fill:#263238"></path><path d="M178.91,212.31c0,.05-.13,0-.19,0a.13.13,0,0,1,0-.18s.12,0,.19,0S179,212.27,178.91,212.31Z" style="fill:#eb996e"></path><path d="M181.06,212.37c-.06,0-.1-.13-.09-.29s.05-.28.11-.27.1.13.09.28S181.12,212.37,181.06,212.37Z" style="fill:#eb996e"></path><path d="M183.07,211.86c-.06,0-.1-.08-.09-.18s.06-.17.12-.16.1.08.09.18S183.13,211.87,183.07,211.86Z" style="fill:#eb996e"></path><path d="M180.31,214.43c-.05,0-.15,0-.22-.13s-.1-.21-.06-.25.15,0,.23.13S180.35,214.4,180.31,214.43Z" style="fill:#eb996e"></path><path d="M182.06,213.84c-.05,0-.08-.1-.06-.19s.08-.17.14-.16.08.1.06.2S182.12,213.86,182.06,213.84Z" style="fill:#eb996e"></path><path d="M194,211.93c-.06,0-.13-.07-.21-.17s-.14-.2-.11-.25.18,0,.28.12S194,211.92,194,211.93Z" style="fill:#eb996e"></path><path d="M195.38,211.88s0-.16,0-.3.15-.25.2-.23,0,.16,0,.3S195.44,211.9,195.38,211.88Z" style="fill:#eb996e"></path><path d="M196.82,212.08c-.06,0-.07-.13,0-.25s.12-.2.17-.18.07.13,0,.25S196.87,212.1,196.82,212.08Z" style="fill:#eb996e"></path><path d="M194.44,214.2c-.05,0-.14,0-.2-.08s-.07-.18,0-.22.14,0,.2.09S194.48,214.16,194.44,214.2Z" style="fill:#eb996e"></path><path d="M195.84,213.76c-.06,0-.09-.08-.09-.16s.07-.15.12-.14.1.08.09.16S195.9,213.77,195.84,213.76Z" style="fill:#eb996e"></path><path d="M188.13,212.84c-.06,0-.1-.12-.09-.26s.05-.26.11-.26.1.12.09.26S188.19,212.84,188.13,212.84Z" style="fill:#eb996e"></path><path d="M191.58,211.85a.11.11,0,0,1-.13-.06.11.11,0,0,1,.2-.06A.1.1,0,0,1,191.58,211.85Z" style="fill:#eb996e"></path><path d="M187.31,210.75c-.05,0-.12-.05-.15-.14s0-.19.06-.2.12.05.15.14S187.37,210.74,187.31,210.75Z" style="fill:#eb996e"></path><path d="M184.91,212.61s-.09-.09-.09-.2.06-.19.12-.19.1.1.09.21S185,212.62,184.91,212.61Z" style="fill:#eb996e"></path><path d="M187,207.44c-.06,0-.1-.1-.09-.2s.06-.2.12-.19.1.09.09.2S187.07,207.44,187,207.44Z" style="fill:#eb996e"></path><path d="M166.63,207.33c-.19-.07-7.52-1.78-6.88,5.58s7.89,5.19,7.88,5S166.63,207.33,166.63,207.33Z" style="fill:#ffbe9d"></path><path d="M165.79,215.26s-.12.1-.32.22a1.33,1.33,0,0,1-1,.1,3.2,3.2,0,0,1-1.72-2.71A4.39,4.39,0,0,1,163,211a1.52,1.52,0,0,1,.88-1.07.67.67,0,0,1,.79.29c.11.19.08.35.12.36s.15-.14.06-.44a.81.81,0,0,0-.33-.44,1,1,0,0,0-.72-.12,1.79,1.79,0,0,0-1.24,1.26,4.41,4.41,0,0,0-.27,2.08c.18,1.48,1.06,2.8,2.15,3a1.37,1.37,0,0,0,1.15-.3C165.8,215.44,165.82,215.27,165.79,215.26Z" style="fill:#eb996e"></path><path d="M196.76,192.15a8.8,8.8,0,0,0-5.77-3.77,26.47,26.47,0,0,0-7.06-.24l-20,2.55v16l1.83,2.53,1.61,1.55c2-.73,4-3.39,4.06-6.51a6.85,6.85,0,0,0,4.78-3.71,9.08,9.08,0,0,0,.57-6.12,6.72,6.72,0,0,0,3.83,3.64,4.24,4.24,0,0,0,2.11.28,3.35,3.35,0,0,0,2.34-4.7,14,14,0,0,0,6.61,4.34c1.56.46,3.4.6,4.66-.42C197.83,196.3,197.77,193.84,196.76,192.15Z" style="fill:#263238"></path><path d="M215.64,255.46s5,17,5.72,21.78,3,10.54-1.63,13.5a6.13,6.13,0,0,1-.72.4c-5.67,2.8-22.47,5.25-22.47,5.25L195,287.3l12.2-8.43-3-11.63.06-7.85Z" style="fill:#ffbe9d"></path><path d="M196.49,286s-4.51,2.65-6,3.52c-.47.29-1,.39-1.5.65a20.31,20.31,0,0,1-6.81,2.18c-1.74-.05-1.13,2,.83,2.24a9,9,0,0,0,3,0l-2.93,4.61a1.07,1.07,0,0,0-.15.8l1.39,7.49a1.28,1.28,0,0,0,1.27,1.14.65.65,0,0,0,.68-.54l.21,1a1.33,1.33,0,0,0,2.62-.42v-.07c.75.82,1.56.82,2.43-.19,0,0,1.74,1.18,2.3-.51.46-1.41.24-6.72.24-6.72s9.17-8.14,8.38-9.88Z" style="fill:#ffbe9d"></path><path d="M188.1,296.54c.07,0-.14.73-.85,1.62a9.15,9.15,0,0,0-1.06,1.59A4,4,0,0,0,186,302a37.6,37.6,0,0,1,.38,6.17,35.56,35.56,0,0,1-.9-6.12,4.22,4.22,0,0,1,.33-2.48,7.4,7.4,0,0,1,1.21-1.61C187.73,297.12,188,296.52,188.1,296.54Z" style="fill:#eb996e"></path><path d="M190.59,297.59c.06.06-.48.46-1,1.36a8,8,0,0,0-.77,3.88c0,3.19.49,5.76.34,5.79a16.06,16.06,0,0,1-.86-5.79,7.24,7.24,0,0,1,1-4.06C189.92,297.84,190.57,297.53,190.59,297.59Z" style="fill:#eb996e"></path><path d="M189.68,291.08c.11.1-.64,1-1.66,2s-1.93,1.71-2,1.61.65-1,1.67-2S189.58,291,189.68,291.08Z" style="fill:#eb996e"></path><path d="M191.6,300.84a20.68,20.68,0,0,0-.35,3.73c.11,2.06.42,3.76.25,3.78a9.61,9.61,0,0,1-.77-3.77,8,8,0,0,1,.34-2.73C191.29,301.18,191.54,300.81,191.6,300.84Z" style="fill:#eb996e"></path><path d="M213.69,284.15A8,8,0,0,0,207,279a2.42,2.42,0,0,1,1.36-.06,6.38,6.38,0,0,1,3,1.26,6.55,6.55,0,0,1,2,2.6A2.42,2.42,0,0,1,213.69,284.15Z" style="fill:#eb996e"></path><polygon points="164.65 288.97 165.31 293.07 212.06 308.86 212.46 306.9 200.15 302.41 205.62 299.55 205.19 297.72 197.76 300.01 164.65 288.97" style="fill:#455a64"></polygon><path d="M208.18,301.44c-.21.38-5.11,3.13-4.24,9.13l10.65,5.14s5.65-6,4.29-9.41Z" style="fill:#fafafa"></path><path d="M208.18,301.44a3.34,3.34,0,0,1,.75.28l2.18.92c1.89.81,4.61,2,7.87,3.45l.08,0,0,.09a4.42,4.42,0,0,1,.06,2.55,10.38,10.38,0,0,1-1,2.49,24.27,24.27,0,0,1-3.35,4.6l0,0-.13.14-.17-.08-10.64-5.17-.11,0v-.12a8.89,8.89,0,0,1,.46-4.38,9,9,0,0,1,1.77-2.88,10.88,10.88,0,0,1,1.61-1.46,5.41,5.41,0,0,1,.62-.44c.08.09-.84.67-2,2.06a9,9,0,0,0-1.63,2.84,8.72,8.72,0,0,0-.37,4.2l-.12-.17,10.68,5.1-.31.06,0,0a23.61,23.61,0,0,0,3.28-4.49c.85-1.52,1.44-3.23,1-4.62l.12.12c-3.15-1.45-5.78-2.7-7.64-3.6L209,301.85A6.69,6.69,0,0,1,208.18,301.44Z" style="fill:#263238"></path><path d="M217,306.11c.05.08-.45.39-1.08,1.05a7.07,7.07,0,0,0-1.86,6.51,14.09,14.09,0,0,1,.37,1.46,2.8,2.8,0,0,1-.72-1.37,6.49,6.49,0,0,1,2-6.87A2.84,2.84,0,0,1,217,306.11Z" style="fill:#263238"></path><path d="M184.49,297.18c-.27-.72-5.86-4.07-5.86-4.07a6.87,6.87,0,0,0-.81-3c-.71-.94-7.29-3.85-7.42-3.94s-13.76-4.08-13.76-4.08h0l-9.17-4.51,4.63-12.67-15-3.9s-8,19.6-5.22,23.84c2.07,3.11,14.36,6.76,20.75,8.47h0c2.31.62,3.85,1,3.85,1l0-.08,2.2.52,1.76,3.56s7.39,3.69,8.43,4,6.4-2.4,6.4-2.4,2.69-.25,2.24-2.09c0,0,3.71,1.57,5.06,1S184.76,297.9,184.49,297.18Z" style="fill:#ffbe9d"></path></g><g id="freepik--character-1--inject-5"><path d="M158.13,452.34a122.93,122.93,0,0,0-72.33-9.62l-8.18,2c-2.26-.2-4.62-.39-6.7.5s-3.73,3.24-3,5.4,3,3,5,3.65l15.84,5.21a12.57,12.57,0,0,0-5,2.69c-1.32,1.37-1.94,3.62-.88,5.19,1.21,1.79,3.77,1.86,5.93,1.74l44.58-2.46c8.29-.45,16.71-.94,24.51-3.77,2.43-.89,5.15-2.52,5.2-5.1S160.51,453.45,158.13,452.34Z" style="fill:#ebebeb"></path><path d="M100,429.24,87.56,450.36,61.19,435c1.63-2.43,18.22.48,18.22.48l7.44-13.86Z" style="fill:#FFBF49"></path><g style="opacity:0.6000000000000001"><path d="M88.23,439.07a1.24,1.24,0,0,1,0,1.66,1.18,1.18,0,0,1-1.64,0,1.31,1.31,0,0,1,0-1.76,1.23,1.23,0,0,1,1.72.15" style="fill:#fff"></path></g><g style="opacity:0.6000000000000001"><path d="M87.56,450.36l1.17-2.18L63,434.24s-1.48-.18-1.83.73Z" style="fill:#fff"></path></g><path d="M79.06,435.06c-.07.14.54.57.93,1.35s.41,1.53.56,1.54.39-.83-.1-1.77S79.1,434.93,79.06,435.06Z" style="fill:#263238"></path><path d="M75.63,434.59c-.1.11.33.66.44,1.46s-.09,1.44.05,1.51.63-.61.47-1.6S75.7,434.47,75.63,434.59Z" style="fill:#263238"></path><path d="M72.13,437c.1.09.65-.45.73-1.34s-.36-1.53-.47-1.46,0,.67,0,1.41S72,436.9,72.13,437Z" style="fill:#263238"></path><path d="M81.11,432.09c0,.15.68.32,1.38.79s1.13,1,1.26,1-.15-.85-1-1.4S81.1,432,81.11,432.09Z" style="fill:#263238"></path><path d="M83.56,429.33a2.94,2.94,0,0,0,1.33.77,7,7,0,0,0,1.62.38,8.11,8.11,0,0,0,1,0,1.9,1.9,0,0,0,.58-.08.65.65,0,0,0,.46-.65.81.81,0,0,0-.4-.62,2.06,2.06,0,0,0-.53-.22,5.27,5.27,0,0,0-1-.2,5,5,0,0,0-1.68.09,2.55,2.55,0,0,0-1.4.62c0,.07.56-.16,1.46-.26a6.32,6.32,0,0,1,1.56,0,6.14,6.14,0,0,1,.9.21c.32.09.56.23.56.39s0,.09-.12.14a1.61,1.61,0,0,1-.42.05,7.15,7.15,0,0,1-.93,0,8.64,8.64,0,0,1-1.56-.25A11.4,11.4,0,0,0,83.56,429.33Z" style="fill:#263238"></path><path d="M83.62,429.61c0,.05.56-.26,1.09-1.07a4.73,4.73,0,0,0,.67-1.55,5.15,5.15,0,0,0,.13-1,1.25,1.25,0,0,0-.45-1.15.71.71,0,0,0-.77,0,2.05,2.05,0,0,0-.42.41,3.24,3.24,0,0,0-.52.89,3.5,3.5,0,0,0-.23,1.69c.12,1,.56,1.45.6,1.41a12.72,12.72,0,0,1-.23-1.43,3.54,3.54,0,0,1,.3-1.49,3.34,3.34,0,0,1,.47-.75c.21-.25.44-.42.53-.33a.9.9,0,0,1,.21.7,4.46,4.46,0,0,1-.09.91,5.74,5.74,0,0,1-.51,1.47C84,429.15,83.56,429.55,83.62,429.61Z" style="fill:#263238"></path><path d="M84.73,399.33v15.5s1,21.19,4,27.93,13.94,14.49,25.1,15.92h17.8a19.35,19.35,0,0,0,15.71-7.75,11.78,11.78,0,0,0,2.15-4.5c1.19-6.12,1.79-18.77,1.79-18.77H97.5l-6.68-38.75Z" style="fill:#263238"></path><path d="M97.5,427.66s8.76,10.34,31,8.41,22.76-9,22.76-9Z" style="fill:#ffbe9d"></path><path d="M128.45,437.31a2.63,2.63,0,0,1,.28.82,22.25,22.25,0,0,1,.48,2.29,31.92,31.92,0,0,1-1.35,15.31,20.85,20.85,0,0,1-.88,2.18c-.24.5-.38.76-.42.75s.38-1.17,1-3a38.55,38.55,0,0,0,1.44-7.51,39.13,39.13,0,0,0-.1-7.64C128.62,438.52,128.37,437.33,128.45,437.31Z" style="fill:#455a64"></path><path d="M141.3,438.75a10.55,10.55,0,0,1-.36-2.35,10.9,10.9,0,0,1-.35-2.36,4,4,0,0,1,.86,2.28A3.89,3.89,0,0,1,141.3,438.75Z" style="fill:#455a64"></path><path d="M144.47,437.8c-.14-.06.16-1.06.07-2.32s-.52-2.2-.39-2.28a3,3,0,0,1,.9,2.25A3,3,0,0,1,144.47,437.8Z" style="fill:#455a64"></path><path d="M108,438.21c-.14,0-.2-.89-.13-2s.25-1.94.39-1.93.2.89.13,2S108.18,438.22,108,438.21Z" style="fill:#455a64"></path><path d="M111.83,437.94c-.14,0-.2-.46-.12-1s.24-.92.39-.9.2.46.12,1S112,438,111.83,437.94Z" style="fill:#455a64"></path><path d="M94,437a3.6,3.6,0,0,1-.37-1.57,9.09,9.09,0,0,1,2.7-7.12,3.37,3.37,0,0,1,1.31-.93A11.46,11.46,0,0,0,94,437Z" style="fill:#455a64"></path><path d="M90.65,427.74a5.74,5.74,0,0,1,6.65-.53,19,19,0,0,0-3.37-.28A19.49,19.49,0,0,0,90.65,427.74Z" style="fill:#455a64"></path><path d="M149.08,447.84a12.35,12.35,0,0,1-.12-1.65,11.46,11.46,0,0,0-1-4.23l.35.05a40.19,40.19,0,0,1-6.79,5.86c-2.75,1.94-5.4,3.56-7.5,4.86l.09-.21a26.17,26.17,0,0,0,1.23,4.23,8.14,8.14,0,0,1,.25,1.21,1.51,1.51,0,0,1,0,.44c-.05,0-.15-.59-.48-1.58a20.84,20.84,0,0,1-1.42-4.24l0-.13.11-.08c2.07-1.35,4.69-3,7.43-4.93a44.75,44.75,0,0,0,6.78-5.71l.21-.23.13.29a10.7,10.7,0,0,1,.83,4.39A6.45,6.45,0,0,1,149.08,447.84Z" style="fill:#455a64"></path><path d="M114.23,454.79a13.68,13.68,0,0,1-2.77-1c-1.68-.71-3.95-1.78-6.39-3.11S100.48,448,99,447a13.41,13.41,0,0,1-2.35-1.78,20.72,20.72,0,0,1,2.54,1.47c1.56.93,3.72,2.2,6.14,3.52s4.67,2.43,6.3,3.22A19.84,19.84,0,0,1,114.23,454.79Z" style="fill:#455a64"></path><path d="M110.22,458a14.75,14.75,0,0,0,4-3.44,4.39,4.39,0,0,0,.71-1,.86.86,0,0,0-.08-1.05,4.49,4.49,0,0,0-1.32-.46c-.5-.13-1-.29-1.53-.46a39.37,39.37,0,0,1-14.92-8.78l.33-.05a15.45,15.45,0,0,0-2,5.31c-.24,1.36-.25,2.15-.3,2.15s0-.2,0-.57a12.73,12.73,0,0,1,.11-1.62,14.63,14.63,0,0,1,1.9-5.49l.13-.22.2.18a42,42,0,0,0,8.32,5.85,40.93,40.93,0,0,0,6.46,2.79c.51.17,1,.33,1.51.47l.73.21a1.76,1.76,0,0,1,.75.37,1,1,0,0,1,.34.79,1.8,1.8,0,0,1-.18.75,4.59,4.59,0,0,1-.8,1.08,11.75,11.75,0,0,1-3,2.58,8.41,8.41,0,0,1-1,.5A1.35,1.35,0,0,1,110.22,458Z" style="fill:#455a64"></path><path d="M148.56,443.23a11.71,11.71,0,0,1-1.74,2,51.93,51.93,0,0,1-4.81,4.35,51.1,51.1,0,0,1-5.33,3.7,11.09,11.09,0,0,1-2.38,1.23,17.51,17.51,0,0,1,2.19-1.54c1.36-.93,3.23-2.24,5.2-3.8s3.66-3.08,4.87-4.21A17.28,17.28,0,0,1,148.56,443.23Z" style="fill:#455a64"></path><path d="M90.19,361.5s-6.24,2.33-9,7.12S69.93,411.73,72.13,414s11,2.37,12.6.85v-15.5l6.09-10.42Z" style="fill:#FFBF49"></path><path d="M148.1,370.71s-1.19-11-7.77-13.67-16.73-5.66-16.73-5.66l-19.52,1.78L90.19,361.5l.63,27.41,6.68,38.75,53.76-.59.12-.22a5.6,5.6,0,0,0,.14-5.19l-.26-.54Z" style="fill:#FFBF49"></path><path d="M97.44,427.66a3.88,3.88,0,0,1-2.32-2.91,11,11,0,0,1,.07-3.88,12.58,12.58,0,0,0,.15-3.87c-.27-1.48-1.08-2.81-1.38-4.28-.55-2.73.22-6.44-.6-9.1l13.45,18.78Z" style="fill:#FFBF49"></path><path d="M98.54,412.65a21.28,21.28,0,0,1-3.17,5.88,11,11,0,0,1,1.36-3.06A10.91,10.91,0,0,1,98.54,412.65Z" style="fill:#263238"></path><path d="M95.2,390.5a8.92,8.92,0,0,1,.52,2.44,25.63,25.63,0,0,1,.06,6,26.44,26.44,0,0,1-1.3,5.89,8.72,8.72,0,0,1-1,2.28,52.56,52.56,0,0,0,1.8-8.22A52.65,52.65,0,0,0,95.2,390.5Z" style="fill:#263238"></path><path d="M145.66,415.48a10.92,10.92,0,0,1-1.38.82,18.13,18.13,0,0,1-1.67.85c-.67.31-1.41.69-2.28,1a45.77,45.77,0,0,1-6.16,2,52.74,52.74,0,0,1-7.83,1.32,51.52,51.52,0,0,1-8,0,46.36,46.36,0,0,1-6.41-1c-.91-.17-1.71-.42-2.42-.61a17,17,0,0,1-1.79-.56,8.6,8.6,0,0,1-1.5-.58,10.56,10.56,0,0,1,1.56.39c.49.14,1.09.31,1.81.47s1.51.38,2.41.53a52.85,52.85,0,0,0,6.38.85,57.65,57.65,0,0,0,7.86-.06,56.49,56.49,0,0,0,7.77-1.28,49.55,49.55,0,0,0,6.13-1.91c.87-.3,1.62-.65,2.3-.93s1.24-.54,1.7-.77A9.79,9.79,0,0,1,145.66,415.48Z" style="fill:#263238"></path><path d="M92.08,396.7a13.31,13.31,0,0,1-.76-2.7c-.39-1.68-.82-4-1.25-6.63s-.79-4.78-1.1-6.65a19.87,19.87,0,0,1-.42-2.77,12.69,12.69,0,0,1,.78,2.69c.4,1.69.84,4,1.26,6.64s.78,4.78,1.09,6.65A16.37,16.37,0,0,1,92.08,396.7Z" style="fill:#263238"></path><polygon points="127.33 349.77 126.72 352.33 123.6 351.38 127.33 349.77" style="fill:#ffbe9d"></polygon><path d="M131.34,318.44a26.49,26.49,0,0,0,.68,10.24,53.3,53.3,0,0,1,1.67,10.17c.06,3.44-.82,7.06-3.19,9.51s-12,4.86-15.44,3.9L99.87,333.21l14.6-19.72Z" style="fill:#ffbe9d"></path><path d="M103.33,353.35a26.45,26.45,0,0,1-9.55-11.78c-2.21-5.48-4-11.41-3.12-17.27a20.92,20.92,0,0,1,10.68-15,22.56,22.56,0,0,1,18.27-1.12c4.07,1.5,7.88,4.31,9.65,8.35s1,9.39-2.43,12.07c-1.21.93-2.68,1.53-3.66,2.72-1.69,2.07-1.3,5.15-.65,7.76s1.47,5.48.36,7.93a9.79,9.79,0,0,1-6.55,5.51,39.51,39.51,0,0,1-13,.87" style="fill:#263238"></path><path d="M112.16,306.76c2.64-.56,5.37.09,8,.86a24.47,24.47,0,0,1,8.36,3.87,10.14,10.14,0,0,1,4.14,7.91,2.66,2.66,0,0,1-.61,1.82c-.84.86-2.38.54-3.34,1.27a33.52,33.52,0,0,0-14.19-14.81" style="fill:#263238"></path><path d="M128.23,337.69s.21.16.24.6a1.76,1.76,0,0,1-.86,1.54,2.36,2.36,0,0,1-2.57-.32,5,5,0,0,1-1.59-2.74,8.27,8.27,0,0,1-.39-3.11,3.65,3.65,0,0,1,1.1-2.35,2.6,2.6,0,0,1,1.57-.75c.42,0,.64.06.64.09s-.23,0-.6.11a2.71,2.71,0,0,0-1.35.81,3.4,3.4,0,0,0-.89,2.13,8.44,8.44,0,0,0,.42,2.93,4.76,4.76,0,0,0,1.38,2.5,2,2,0,0,0,2.1.38,1.63,1.63,0,0,0,.84-1.22A4.2,4.2,0,0,0,128.23,337.69Z" style="fill:#eb996e"></path><path d="M98.24,341.45s0-.15.06-.44a8,8,0,0,1,.32-1.23,12.63,12.63,0,0,1,2.32-4,17.21,17.21,0,0,1,5.45-4.27,20.24,20.24,0,0,1,8.19-2.19c3-.2,5.87-.25,8.2-1.31a10.5,10.5,0,0,0,4.86-4.52A11.22,11.22,0,0,0,129,319.1c.08-1.08,0-1.69.06-1.69a2.26,2.26,0,0,1,.08.43,8.54,8.54,0,0,1,.06,1.28,10.49,10.49,0,0,1-1.24,4.5,10.68,10.68,0,0,1-5,4.78c-2.45,1.13-5.41,1.18-8.36,1.39a19.34,19.34,0,0,0-13.4,6.18,13.25,13.25,0,0,0-2.41,3.88C98.41,340.86,98.3,341.47,98.24,341.45Z" style="fill:#455a64"></path><path d="M123.05,331.86a4.15,4.15,0,0,1-.58.94,29.36,29.36,0,0,1-1.9,2.35,23.45,23.45,0,0,1-8,6,20.94,20.94,0,0,1-5.35,1.36c-1.67.24-3.19.37-4.46.46s-2.3.14-3,.16a4.37,4.37,0,0,1-1.11,0,4.89,4.89,0,0,1,1.09-.18l3-.32c1.26-.14,2.77-.31,4.42-.57a22.31,22.31,0,0,0,5.22-1.37,25,25,0,0,0,7.93-5.72C122.05,333.08,123,331.8,123.05,331.86Z" style="fill:#455a64"></path><path d="M96.07,338.75s-.06-.13-.11-.4-.13-.67-.18-1.18a24.66,24.66,0,0,1-.15-4.41,27.92,27.92,0,0,1,15.05-23.48,25,25,0,0,1,4.06-1.71c.49-.17.89-.25,1.15-.32a1.63,1.63,0,0,1,.41-.08,11.11,11.11,0,0,1-1.49.59,30.93,30.93,0,0,0-4,1.84A28.58,28.58,0,0,0,96,332.79a29.9,29.9,0,0,0,0,4.36A12.62,12.62,0,0,1,96.07,338.75Z" style="fill:#455a64"></path><path d="M99.54,343.82a7.86,7.86,0,0,1-.81,2.87,2.39,2.39,0,0,1-2.33,1.54,3.48,3.48,0,0,1-2-1.58c-.68-.88-1.34-1.79-2-2.7-1-1.39-2-3.2-1.17-4.71A3.14,3.14,0,0,1,94,337.7a6,6,0,0,1,1.86.24,3.81,3.81,0,0,1,2,1.36A7.79,7.79,0,0,1,99.54,343.82Z" style="fill:#FFBF49"></path><path d="M105,360.39c-1.86-2.46-4.49-4.24-6.65-6.44a12.65,12.65,0,0,1-3.22-5.12,5,5,0,0,1,.4-3.62,2.61,2.61,0,0,0-.08-2.83,2,2,0,0,0-1.61-.91c-2.86-.26-6,2.95-7.5,5.46a13.58,13.58,0,0,0-1.46,8.52c0,.13,0,.26,0,.38a18.15,18.15,0,0,0,1.14,4.86c.25.78.51,1.55.77,2.32a13.18,13.18,0,0,1,.69,3.85c0,1.32-.29,2.63-.34,4a5.07,5.07,0,0,0,1.13,3.7,2.54,2.54,0,0,0,3.53.23,5.05,5.05,0,0,0,10,.91,2.63,2.63,0,0,0,3.43.22,5.6,5.6,0,0,0,2-3.14A14.2,14.2,0,0,0,105,360.39Z" style="fill:#263238"></path><path d="M96.4,346.41a5.94,5.94,0,0,1-.13-1.12,5.53,5.53,0,0,0-.91-2.42,5.66,5.66,0,0,0-1.94-1.71c-.59-.33-1-.45-1-.53s.46-.07,1.15.19a4.84,4.84,0,0,1,3.06,4.45C96.64,346,96.47,346.42,96.4,346.41Z" style="fill:#263238"></path><path d="M96.3,378.28s.1-.55.17-1.55a11.49,11.49,0,0,0-.57-4.13,23.84,23.84,0,0,0-2.76-5.6,48.24,48.24,0,0,1-3.89-6.71,14.76,14.76,0,0,1-1.06-7.69,15.86,15.86,0,0,1,2-6,13.81,13.81,0,0,1,2.7-3.32,7.19,7.19,0,0,1,.9-.73,1.44,1.44,0,0,1,.34-.22,11.84,11.84,0,0,1-1.1,1.09,15,15,0,0,0-2.52,3.37,16,16,0,0,0-1.87,5.89,14.43,14.43,0,0,0,1.06,7.43,52.22,52.22,0,0,0,3.81,6.66,23.12,23.12,0,0,1,2.71,5.74,10.92,10.92,0,0,1,.42,4.26,6.53,6.53,0,0,1-.23,1.15A2,2,0,0,1,96.3,378.28Z" style="fill:#455a64"></path><path d="M103.75,376.24s.35-.44.78-1.33a7.65,7.65,0,0,0,.65-4.05,11.07,11.07,0,0,0-2.28-5.63,43.51,43.51,0,0,0-5.29-5.5,22.25,22.25,0,0,1-4.86-6,10.18,10.18,0,0,1-1-3.26,8.48,8.48,0,0,1,.18-3,6.6,6.6,0,0,1,2.17-3.65,3.8,3.8,0,0,1,.55-.39,2.36,2.36,0,0,1,.44-.23,1.29,1.29,0,0,1,.38-.14c0,.06-.5.26-1.24.91a6.65,6.65,0,0,0-1.94,3.58,8.3,8.3,0,0,0-.11,2.84,9.81,9.81,0,0,0,1,3.1A22.55,22.55,0,0,0,98,359.35a40.59,40.59,0,0,1,5.31,5.6,11.15,11.15,0,0,1,2.27,5.88,7.53,7.53,0,0,1-.84,4.18,5,5,0,0,1-.67.95A1.61,1.61,0,0,1,103.75,376.24Z" style="fill:#455a64"></path></g><g id="freepik--Bonfire--inject-5"><path d="M274.44,431.74A7.2,7.2,0,0,0,270.5,430c-12.29-2.74-24.71-5.5-37.3-5.37S207.65,428,198,436.15l1.23.88a69.53,69.53,0,0,0,34.44,3,23,23,0,0,1-14.24,8A34.62,34.62,0,0,0,251.75,446c2.82-1.77,5.45-4,8.66-4.87s7-.28,10.32-1.37S276.76,434.33,274.44,431.74Z" style="fill:#ebebeb"></path><polygon points="189.02 439.21 187.18 427.94 279.57 412.91 283.12 420.83 189.02 439.21" style="fill:#455a64"></polygon><path d="M282.17,420.44a4.49,4.49,0,0,1-1,.16l-2.78.31L268.17,422c-8.64.91-20.59,2.17-33.64,4.5-6.53,1.17-12.69,2.55-18.25,4s-10.53,2.89-14.76,3.92-7.7,1.71-10.11,2.07c-1.2.17-2.14.29-2.78.35a6,6,0,0,1-1,.06,6.08,6.08,0,0,1,1-.2l2.76-.47c2.39-.43,5.83-1.17,10-2.27s9.17-2.56,14.72-4.06,11.75-2.89,18.29-4.06c13.08-2.33,25.06-3.52,33.72-4.31,4.33-.39,7.84-.67,10.26-.85l2.8-.19A6.63,6.63,0,0,1,282.17,420.44Z" style="fill:#263238"></path><path d="M210.47,424.14a6.66,6.66,0,0,1,1.58.13c1,.14,2.46.36,4.25.64l.94.15-.9.33c-2.94,1.07-6.92,2.47-11.29,4-4.66,1.6-8.89,3-12,4-1.53.49-2.78.88-3.65,1.14a4.94,4.94,0,0,1-1.37.33,6.17,6.17,0,0,1,1.29-.58c.84-.33,2.06-.79,3.58-1.34,3-1.11,7.24-2.59,11.9-4.2,4.37-1.5,8.36-2.84,11.33-3.8l0,.48c-1.78-.35-3.22-.64-4.21-.85A6.63,6.63,0,0,1,210.47,424.14Z" style="fill:#263238"></path><path d="M281.21,415.76a2.38,2.38,0,0,1-.46.41,10.45,10.45,0,0,1-1.52.9,16,16,0,0,1-6.32,1.44c-2.76.16-6-.28-9.57-.41a44,44,0,0,0-11.51,1.49c-4,1-7.9,1.92-11.49,2.4a74.25,74.25,0,0,1-9.57.75c-2.73,0-4.94-.1-6.46-.23-.76-.06-1.35-.13-1.75-.19a1.74,1.74,0,0,1-.61-.12,21.22,21.22,0,0,1,2.37.05c1.52.05,3.72.11,6.44,0a81.62,81.62,0,0,0,9.49-.89c3.55-.51,7.38-1.48,11.43-2.45a43.17,43.17,0,0,1,11.68-1.45c3.62.17,6.83.65,9.53.56a17.23,17.23,0,0,0,6.23-1.2C280.51,416.24,281.17,415.71,281.21,415.76Z" style="fill:#263238"></path><polygon points="186.11 419.98 188.25 408.76 280.2 426.28 280.82 434.94 186.11 419.98" style="fill:#263238"></polygon><path d="M280.06,434.25a6.37,6.37,0,0,1-1-.19l-2.73-.66-10-2.51c-8.44-2.1-20.1-5-33.16-7.3-6.53-1.13-12.79-1.94-18.51-2.49s-10.89-.89-15.21-1.37-7.82-1-10.2-1.52c-1.2-.25-2.12-.45-2.74-.62a5.74,5.74,0,0,1-.94-.28,5.65,5.65,0,0,1,1,.15l2.75.5c2.4.41,5.88.89,10.2,1.3s9.49.73,15.23,1.22,12,1.31,18.57,2.45c13.09,2.29,24.75,5.28,33.15,7.5,4.21,1.12,7.6,2.06,9.94,2.72l2.69.78A5.28,5.28,0,0,1,280.06,434.25Z" style="fill:#455a64"></path><path d="M211.43,413.16a7.25,7.25,0,0,1,1.43.67c.91.47,2.2,1.17,3.78,2.05l.84.47h-1c-3.12,0-7.34-.05-12-.14-4.92-.09-9.38-.21-12.61-.33-1.61-.06-2.92-.12-3.82-.17a5.57,5.57,0,0,1-1.4-.16,5.46,5.46,0,0,1,1.41-.1c.9,0,2.21,0,3.82,0,3.23,0,7.69,0,12.62.13,4.62.09,8.83.2,12,.31l-.13.46c-1.55-.93-2.8-1.7-3.66-2.24A6.44,6.44,0,0,1,211.43,413.16Z" style="fill:#455a64"></path><path d="M280.76,429.52a2,2,0,0,1-.57.22,10,10,0,0,1-1.74.34,16.06,16.06,0,0,1-6.43-.82c-2.64-.79-5.54-2.32-8.85-3.66a44.35,44.35,0,0,0-11.32-2.55c-4.12-.47-8.09-.89-11.62-1.67A73.84,73.84,0,0,1,231,418.8a62.27,62.27,0,0,1-6-2.43c-.7-.32-1.23-.58-1.58-.77a2.44,2.44,0,0,1-.53-.32,19.54,19.54,0,0,1,2.21.85c1.41.57,3.46,1.38,6,2.22a79.16,79.16,0,0,0,9.22,2.42c3.52.74,7.44,1.14,11.58,1.62A43,43,0,0,1,263.4,425c3.35,1.4,6.19,3,8.76,3.79a17.06,17.06,0,0,0,6.27,1C279.94,429.73,280.75,429.46,280.76,429.52Z" style="fill:#455a64"></path><path d="M273.75,425a3.93,3.93,0,0,1-.79-.09l-2.23-.36c-1.94-.31-4.74-.8-8.2-1.43-6.91-1.24-16.44-3.06-27-5.12l-26.94-5.27-8.16-1.59-2.22-.45a3.38,3.38,0,0,1-.76-.19,7.41,7.41,0,0,1,.78.09l2.23.36c1.94.32,4.74.81,8.2,1.43,6.91,1.25,16.45,3.06,27,5.13l26.93,5.26,8.17,1.59,2.21.45A4.6,4.6,0,0,1,273.75,425Z" style="fill:#FFBF49"></path><polygon points="223.96 378.74 218.02 369.07 220.51 342.27 226.51 351.29 225.63 360.82 232.33 348.25 230.42 337.32 232.4 316.01 235.68 333.25 239.24 330 240.43 348.52 237.92 375.48 223.96 378.74" style="fill:#FFBF49"></polygon><polygon points="223.96 378.74 218.02 369.07 220.51 342.27 226.51 351.29 225.63 360.82 232.33 348.25 230.42 337.32 232.4 316.01 235.68 333.25 239.24 330 240.43 348.52 237.92 375.48 223.96 378.74" style="opacity:0.2"></polygon><polygon points="214.29 377.19 218.53 409.18 234.77 420.14 243.17 420.92 258.49 406.71 260.83 381.52 250.94 368.87 250.48 349.29 245.61 359.58 243.19 340.14 231.89 363.52 225.27 371.7 214.29 377.19" style="fill:#FFBF49"></polygon><polygon points="258.31 306.2 250.83 313.86 252.76 321.63 258.88 315.36 258.31 306.2" style="fill:#FFBF49"></polygon><g style="opacity:0.2"><path d="M237.56,417.39c-1.8-3-3.65-6.17-3.75-9.66a19.84,19.84,0,0,1,1.76-7.57q2.22-5.82,4.65-11.54,2.34,5.61,4.67,11.21c1.23,2.95,2.47,6.14,1.71,9.24-.55,2.23-2.07,4.06-3.55,5.82s-3.23,3.56-5.44,3.34" style="fill:#fff"></path></g><g style="opacity:0.2"><path d="M235.67,419.54l-8.43-10.41a10,10,0,0,1-2.36-4.15c-.4-2,.46-4,1.3-5.88,4.67-10.42,9.48-21,17.21-29.45.26,5.19,3.08,9.85,5.64,14.37s5,9.5,4.46,14.66c-.38,3.44-2.07,6.57-3.16,9.86-.74,2.23-1.21,4.56-2.17,6.71a9.07,9.07,0,0,1-4.72,5c-3.05,1.14-6.41-.22-9.38-1.57" style="fill:#fff"></path></g><path d="M276.94,413.16a7.11,7.11,0,0,1-1.26.3l-3.46.64-11.42,2c-4.46.79-8.49,1.53-11.41,2.09l-3.45.67a6.86,6.86,0,0,1-1.27.2,5.85,5.85,0,0,1,1.23-.39c.8-.22,2-.5,3.42-.83,2.9-.65,6.93-1.44,11.39-2.24s8.52-1.44,11.45-1.88c1.47-.22,2.66-.38,3.49-.49A5.64,5.64,0,0,1,276.94,413.16Z" style="fill:#FFBF49"></path></g></svg>