<svg xmlns="http://www.w3.org/2000/svg" viewBox="0 0 500 500"><g id="freepik--Floor--inject-2"><path d="M413.9,251.25c-91.11-52.6-238.35-52.6-328.87,0S-5,389.15,86.1,441.75s238.35,52.61,328.88,0S505,303.86,413.9,251.25Z" style="fill:#f5f5f5"></path></g><g id="freepik--Shadows--inject-2"><path d="M400.21,383.61c-18.29-10.56-47.86-10.56-66,0s-18.08,27.69.21,38.25,47.86,10.57,66,0S418.51,394.18,400.21,383.61Z" style="fill:#e0e0e0"></path><polygon points="309.14 304.76 248.16 269.56 187.57 304.76 248.55 339.97 309.14 304.76" style="fill:#e0e0e0"></polygon><path d="M174.76,387.58c-18.54-10.71-48.51-10.71-66.93,0s-18.33,28.06.22,38.77,48.51,10.7,66.93,0S193.3,398.28,174.76,387.58Z" style="fill:#e0e0e0"></path><path d="M245.38,373.64a13.66,13.66,0,0,0-12.39,0c-3.41,2-3.39,5.2,0,7.18a13.66,13.66,0,0,0,12.39,0C248.83,378.84,248.82,375.62,245.38,373.64Z" style="fill:#e0e0e0"></path><path d="M351.7,314.54a13.66,13.66,0,0,0-12.39,0c-3.41,2-3.39,5.2,0,7.18a13.66,13.66,0,0,0,12.39,0C355.15,319.74,355.13,316.52,351.7,314.54Z" style="fill:#e0e0e0"></path><path d="M160.65,325.5a13.6,13.6,0,0,0-12.39,0c-3.41,2-3.39,5.19,0,7.17a13.6,13.6,0,0,0,12.39,0C164.1,330.69,164.08,327.48,160.65,325.5Z" style="fill:#e0e0e0"></path></g><g id="freepik--Paintings--inject-2"><polygon points="182.57 75.47 156.59 90.48 156.64 110.34 182.63 95.33 182.57 75.47" style="fill:none"></polygon><polygon points="182.57 75.47 182.63 95.33 185.04 96.73 184.97 74.09 182.57 75.47" style="fill:#f0f0f0"></polygon><polygon points="156.64 110.34 156.65 113.12 185.04 96.73 182.63 95.33 156.64 110.34" style="fill:#f5f5f5"></polygon><path d="M187.87,69.07l-34.2,19.75.08,29.32L188,98.4Zm-31.22,44.05v-2.78l0-19.86,26-15,2.4-1.38L185,96.73Z" style="fill:#e0e0e0"></path><polygon points="187.87 69.07 185.46 67.67 151.26 87.42 153.67 88.82 187.87 69.07" style="fill:#f5f5f5"></polygon><polygon points="151.26 87.42 151.34 116.74 153.75 118.14 153.67 88.82 151.26 87.42" style="fill:#f0f0f0"></polygon><polygon points="182.56 120.05 156.57 135.05 156.63 154.91 182.61 139.91 182.56 120.05" style="fill:none"></polygon><polygon points="182.56 120.05 182.61 139.91 185.02 141.3 184.95 118.66 182.56 120.05" style="fill:#f0f0f0"></polygon><polygon points="156.63 154.91 156.63 157.69 185.02 141.3 182.61 139.91 156.63 154.91" style="fill:#f5f5f5"></polygon><path d="M187.85,113.64l-34.2,19.75.08,29.32L187.94,143Zm-31.22,44.05v-2.78l-.06-19.86,26-15,2.39-1.38L185,141.3Z" style="fill:#e0e0e0"></path><polygon points="187.85 113.64 185.45 112.24 151.24 131.99 153.65 133.39 187.85 113.64" style="fill:#f5f5f5"></polygon><polygon points="151.24 131.99 151.33 161.31 153.74 162.71 153.65 133.39 151.24 131.99" style="fill:#f0f0f0"></polygon><path d="M222.72,87.72h0l.93-.46h0Z" style="fill:none"></path><path d="M222.38,87.88h0l.35-.17h0Z" style="fill:none"></path><polygon points="233.32 49.02 226.22 53.13 219 57.3 226.22 53.13 233.32 49.02" style="fill:none"></polygon><polygon points="233.39 72.45 233.37 65.86 233.35 59.83 233.37 65.86 233.39 72.45" style="fill:none"></polygon><path d="M223.66,87.26l.19-.09-.19.09Z" style="fill:none"></path><polygon points="233.47 101.35 233.46 95.84 233.44 91.01 233.46 95.84 233.47 101.35" style="fill:none"></polygon><path d="M219.62,89c.92-.33,1.84-.71,2.76-1.13h0Q221,88.53,219.62,89Z" style="fill:none"></path><polygon points="212.22 69.37 212.28 90.55 212.31 102.82 212.28 90.55 212.22 69.37" style="fill:none"></polygon><path d="M233.46,95.84l0-4.83-.22.13-.4.24a50.66,50.66,0,0,0-10.47,9.18c-.55.61-1.1,1.22-1.63,1.84-2.81,3.21-5.56,6.61-8.38,9.8l0,7.79,3.4-2A74.75,74.75,0,0,1,233.46,95.84Z" style="fill:#ebebeb"></path><path d="M233.49,107.8l0-6.45A40.73,40.73,0,0,0,226.24,112Z" style="fill:#ebebeb"></path><path d="M226.24,112a40.73,40.73,0,0,1,7.23-10.63V95.84A74.75,74.75,0,0,0,215.76,118l10.48-6Z" style="fill:#fafafa"></path><path d="M222.38,87.88h0" style="fill:none;stroke:gray;stroke-linecap:round;stroke-linejoin:round;stroke-width:0px"></path><path d="M222.72,87.72h0" style="fill:none;stroke:gray;stroke-linecap:round;stroke-linejoin:round;stroke-width:0px"></path><path d="M219.13,89.19l.49-.17q1.38-.49,2.76-1.14l.34-.16.94-.46c.54-.27,1.07-.56,1.61-.86-.54.3-1.07.59-1.61.86l.19-.09c.48-.25,1-.5,1.42-.77l.31-.17.24-.15a51.39,51.39,0,0,0,7.28-5.21l.31-.27,0-8.15c-5.17,2.64-10.26,3.47-14.37,2.19a12.64,12.64,0,0,1-6.8-5.27l.06,21.18A25,25,0,0,0,219.13,89.19Z" style="fill:#fafafa"></path><path d="M222.35,100.56a50.66,50.66,0,0,1,10.47-9.18l.4-.24.22-.13V86.34a101.15,101.15,0,0,0-19.05,14.51c-.69.65-1.38,1.33-2.07,2l0,9.38c2.82-3.19,5.57-6.59,8.38-9.8C221.25,101.78,221.8,101.17,222.35,100.56Z" style="fill:#fafafa"></path><path d="M233.43,86.34l0-5.74-.31.27a51.39,51.39,0,0,1-7.28,5.21l-.24.15-.31.17c-.47.27-.94.52-1.42.77l-.19.09-.13.07h0l.13-.07-.93.46-.35.17c-.92.42-1.84.8-2.76,1.13l.52-.19-.52.19-.49.17a25,25,0,0,1-6.85,1.36l0,12.27c.69-.64,1.38-1.32,2.07-2A101.15,101.15,0,0,1,233.43,86.34Z" style="fill:#ebebeb"></path><path d="M233.37,65.86l0-6a10.11,10.11,0,0,1-7.13-6.7L219,57.3A14.92,14.92,0,0,0,233.37,65.86Z" style="fill:#fafafa"></path><path d="M219,74.64c4.11,1.28,9.2.45,14.37-2.19l0-6.59A14.92,14.92,0,0,1,219,57.3l-6.8,3.92,0,8.15A12.64,12.64,0,0,0,219,74.64Z" style="fill:#ebebeb"></path><path d="M234.51,47,211,60.55l.17,61.5,23.51-13.58Zm-22.15,73,0-7.79,0-9.38,0-12.27-.06-21.18,0-8.15L219,57.3l7.22-4.17,7.1-4.11,0,10.81,0,6,0,6.59,0,8.15,0,5.74V91l0,4.83v5.51l0,6.45L226.24,112h0l-10.48,6Z" style="fill:#fff"></path><path d="M223.51,87.34h0" style="fill:none;stroke:gray;stroke-linecap:round;stroke-linejoin:round;stroke-width:0px"></path><path d="M223.53,87.33l.13-.07" style="fill:none;stroke:gray;stroke-linecap:round;stroke-linejoin:round;stroke-width:0px"></path><path d="M225.27,86.4c-.54.3-1.07.59-1.61.86" style="fill:none;stroke:gray;stroke-linecap:round;stroke-linejoin:round;stroke-width:0px"></path><line x1="223.66" y1="87.26" x2="223.66" y2="87.26" style="fill:none;stroke:gray;stroke-linecap:round;stroke-linejoin:round;stroke-width:0px"></line><path d="M219.62,89l.52-.19" style="fill:none;stroke:gray;stroke-linecap:round;stroke-linejoin:round;stroke-width:0px"></path><path d="M233.35,59.83l0-10.81-7.1,4.11A10.11,10.11,0,0,0,233.35,59.83Z" style="fill:#ebebeb"></path><polygon points="234.68 108.47 211.17 122.05 211.18 123.68 236.1 109.3 234.68 108.47" style="fill:#cacaca"></polygon><polygon points="234.51 46.97 234.68 108.47 236.1 109.3 235.92 46.16 234.51 46.97" style="fill:#f0f0f0"></polygon><path d="M239.7,39.61,207.19,58.38l.21,71.85,32.5-18.77Zm-28.52,84.07v-1.63L211,60.55,234.51,47l1.41-.81.18,63.13Z" style="fill:#e0e0e0"></path><polygon points="239.7 39.61 237.02 38.17 204.51 56.94 207.19 58.38 239.7 39.61" style="fill:#f5f5f5"></polygon><polygon points="204.51 56.94 204.72 128.79 207.4 130.23 207.19 58.38 204.51 56.94" style="fill:#f0f0f0"></polygon><polygon points="387.89 114.26 387.89 114.26 362.45 99.57 387.89 114.26 387.89 114.26" style="fill:#e0e0e0"></polygon><polygon points="362.57 56.93 362.57 56.93 362.45 99.57 362.57 56.93 362.57 56.93" style="fill:#e0e0e0"></polygon><polygon points="385.8 110.63 385.8 110.63 385.8 110.63 364.55 98.37 364.55 98.37 385.8 110.63" style="fill:#e0e0e0"></polygon><rect x="385.86" y="72.82" height="37.81" style="fill:#e0e0e0"></rect><polygon points="385.8 110.63 364.55 98.37 364.66 60.55 385.91 72.82 385.8 110.63" style="fill:#ebebeb"></polygon><polygon points="362.57 56.93 362.57 56.93 388.01 71.62 362.57 56.93" style="fill:#e0e0e0"></polygon><polygon points="388.01 71.62 387.89 114.26 387.89 114.26 388.01 71.62" style="fill:#e0e0e0"></polygon><path d="M357.76,102.24l34.8,20.09L392.71,69l-34.8-20.09Zm4.69-2.67.12-42.64h0L388,71.62l-.12,42.64h0Z" style="fill:#ebebeb"></path><path d="M362.57,56.93l-.12,42.64,25.44,14.69L388,71.62Zm2,41.44h0l.11-37.82,21.25,12.27h0l-.11,37.81h0Z" style="fill:#e0e0e0"></path><polygon points="395.59 67.27 395.44 120.66 392.56 122.33 392.71 68.95 395.59 67.27" style="fill:#e0e0e0"></polygon><polygon points="357.91 48.86 360.79 47.18 395.59 67.27 392.71 68.95 357.91 48.86" style="fill:#f5f5f5"></polygon><polygon points="434.25 141.01 434.25 141.01 408.81 126.32 434.25 141.01 434.25 141.01" style="fill:#e0e0e0"></polygon><polygon points="408.93 83.69 408.93 83.69 408.81 126.32 408.93 83.69 408.93 83.69" style="fill:#e0e0e0"></polygon><polygon points="432.16 137.39 432.16 137.39 432.16 137.39 410.91 125.12 410.91 125.12 432.16 137.39" style="fill:#e0e0e0"></polygon><rect x="432.21" y="99.57" height="37.81" style="fill:#e0e0e0"></rect><polygon points="432.16 137.39 410.91 125.12 411.02 87.31 432.27 99.57 432.16 137.39" style="fill:#ebebeb"></polygon><polygon points="408.93 83.69 408.93 83.69 434.37 98.38 408.93 83.69" style="fill:#e0e0e0"></polygon><polygon points="434.37 98.38 434.25 141.01 434.25 141.01 434.37 98.38" style="fill:#e0e0e0"></polygon><path d="M404.11,129l34.8,20.09.15-53.39-34.8-20.09Zm4.7-2.68.12-42.63h0l25.44,14.69L434.25,141h0Z" style="fill:#ebebeb"></path><path d="M408.93,83.69l-.12,42.63L434.25,141l.12-42.63Zm2,41.43h0L411,87.31l21.25,12.26h0l-.11,37.82h0Z" style="fill:#e0e0e0"></path><polygon points="441.95 94.03 441.8 147.41 438.91 149.09 439.06 95.7 441.95 94.03" style="fill:#e0e0e0"></polygon><polygon points="404.26 75.61 407.15 73.93 441.95 94.03 439.06 95.7 404.26 75.61" style="fill:#f5f5f5"></polygon><polygon points="387.89 179.78 387.89 179.78 362.45 165.09 387.89 179.78 387.89 179.78" style="fill:#e0e0e0"></polygon><polygon points="362.57 122.46 362.57 122.46 362.45 165.09 362.57 122.46 362.57 122.46" style="fill:#e0e0e0"></polygon><polygon points="385.8 176.16 385.8 176.16 385.8 176.16 364.55 163.89 364.55 163.89 385.8 176.16" style="fill:#e0e0e0"></polygon><rect x="385.86" y="138.35" height="37.81" style="fill:#e0e0e0"></rect><polygon points="385.8 176.16 364.55 163.89 364.66 126.08 385.91 138.35 385.8 176.16" style="fill:#ebebeb"></polygon><polygon points="362.57 122.46 362.57 122.46 388.01 137.15 362.57 122.46" style="fill:#e0e0e0"></polygon><polygon points="388.01 137.15 387.89 179.78 387.89 179.78 388.01 137.15" style="fill:#e0e0e0"></polygon><path d="M357.76,167.77l34.8,20.09.15-53.39-34.8-20.09Zm4.69-2.68.12-42.63h0L388,137.15l-.12,42.63h0Z" style="fill:#ebebeb"></path><path d="M362.57,122.46l-.12,42.63,25.44,14.69.12-42.63Zm2,41.43h0l.11-37.81,21.25,12.27h0l-.11,37.81h0Z" style="fill:#e0e0e0"></path><polygon points="395.59 132.8 395.44 186.18 392.56 187.86 392.71 134.47 395.59 132.8" style="fill:#e0e0e0"></polygon><polygon points="357.91 114.38 360.79 112.7 395.59 132.8 392.71 134.47 357.91 114.38" style="fill:#f5f5f5"></polygon><polygon points="434.25 206.54 434.25 206.54 408.81 191.85 434.25 206.54 434.25 206.54" style="fill:#e0e0e0"></polygon><polygon points="408.93 149.21 408.93 149.21 408.81 191.85 408.93 149.21 408.93 149.21" style="fill:#e0e0e0"></polygon><polygon points="432.16 202.91 432.16 202.91 432.16 202.91 410.91 190.65 410.91 190.65 432.16 202.91" style="fill:#e0e0e0"></polygon><rect x="432.21" y="165.1" height="37.81" style="fill:#e0e0e0"></rect><polygon points="432.16 202.91 410.91 190.65 411.02 152.83 432.27 165.1 432.16 202.91" style="fill:#ebebeb"></polygon><polygon points="408.93 149.21 408.93 149.21 434.37 163.9 408.93 149.21" style="fill:#e0e0e0"></polygon><polygon points="434.37 163.9 434.25 206.54 434.25 206.54 434.37 163.9" style="fill:#e0e0e0"></polygon><path d="M404.11,194.52l34.8,20.09.15-53.38-34.8-20.09Zm4.7-2.67.12-42.64h0l25.44,14.69-.12,42.64h0Z" style="fill:#ebebeb"></path><path d="M408.93,149.21l-.12,42.64,25.44,14.69.12-42.64Zm2,41.44h0l.11-37.82,21.25,12.27h0l-.11,37.81h0Z" style="fill:#e0e0e0"></path><polygon points="441.95 159.55 441.8 212.94 438.91 214.61 439.06 161.23 441.95 159.55" style="fill:#e0e0e0"></polygon><polygon points="404.26 141.14 407.15 139.46 441.95 159.55 439.06 161.23 404.26 141.14" style="fill:#f5f5f5"></polygon><polygon points="129.29 77.81 121.93 90.55 57.03 128.02 49.62 123.81 129.29 77.81" style="fill:#e0e0e0"></polygon><path d="M101.46,159.18l.06-.61,0,.61Z" style="fill:#353c56"></path><polygon points="122.22 192.42 129.63 196.64 49.95 242.64 57.32 229.89 122.22 192.42" style="fill:#e0e0e0"></polygon><path d="M104.2,142.3a38.15,38.15,0,0,1,2.15,12.28,131.68,131.68,0,0,1-.66,15.44c-.07.86-.15,1.73-.22,2.59l-4.59.53.62-14,0-.61c.1-1,.14-2.09.14-3.11l0-7.09A29.13,29.13,0,0,0,104.2,142.3Z" style="fill:#e0e0e0"></path><path d="M101.64,148.37l0,7.09c0,1,0,2.06-.14,3.11l-.06.61a46.24,46.24,0,0,1-2.86,11.6l-1.8,4.71L95,172.17a20,20,0,0,1-2.22-7.75c-.08-.88-.13-1.78-.13-2.71a28.84,28.84,0,0,0,6.24-7.48,36.11,36.11,0,0,0,2.49-5.37C101.45,148.69,101.55,148.53,101.64,148.37Z" style="fill:#ebebeb"></path><path d="M92.64,164.08l.12.34A20,20,0,0,0,95,172.17l1.82,3.32,1.8-4.71a46.24,46.24,0,0,0,2.86-11.6l-.58,14,4.59-.53c.07-.86.15-1.73.22-2.59l5.16-4.14a61.63,61.63,0,0,0,0-8.82l11.3-2.56,0,6.37-8.66,12.49a53.65,53.65,0,0,1-16.63,16C91,192.74,85.12,194,80.17,192.58L68,189.15l-1.84-.53Z" style="fill:#f5f5f5"></path><path d="M97.48,127.84a7.75,7.75,0,0,0,7.6,5.33v3.24a20.71,20.71,0,0,1-.13,2.19,22.52,22.52,0,0,1-.76,3.7,29.13,29.13,0,0,1-2.56,6.07c-.09.16-.19.32-.28.49A25.42,25.42,0,0,1,92.62,158c-3.4,2-6.49,2.19-8.76,1s-3.79-4.08-3.8-8.12v-5.07a43.62,43.62,0,0,0,8.48-10c.34-.12.69-.26,1-.42s.52-.25.78-.4l.27-.14c.39-.23.78-.48,1.18-.76a19.2,19.2,0,0,0,1.84-1.5c.16-.14.3-.28.45-.43A21.35,21.35,0,0,0,97.48,127.84Z" style="fill:#ebebeb"></path><path d="M57,128l64.9-37.47.18,64-11.3,2.56a42.92,42.92,0,0,0-3.24-13.69c6.86-7.73,11.37-16.78,11.35-24.1,0-11.59-11.45-14.42-25.5-6.31S68,137.06,68,148.65c0,8.77,6.56,12.52,15.82,10.32,2.27,1.23,5.36,1,8.76-1v3.7c0,.93.05,1.83.13,2.71l-.12-.34L66.2,188.62l1.84.53-4.1,36.92-6.62,3.82Z" style="fill:#e0e0e0"></path><g style="opacity:0.1"><path d="M57,128l64.9-37.47.18,64-11.3,2.56a42.92,42.92,0,0,0-3.24-13.69c6.86-7.73,11.37-16.78,11.35-24.1,0-11.59-11.45-14.42-25.5-6.31S68,137.06,68,148.65c0,8.77,6.56,12.52,15.82,10.32,2.27,1.23,5.36,1,8.76-1v3.7c0,.93.05,1.83.13,2.71l-.12-.34L66.2,188.62l1.84.53-4.1,36.92-6.62,3.82Z"></path></g><path d="M105,138.6a29,29,0,0,1,2.61,4.77,42.92,42.92,0,0,1,3.24,13.69,61.63,61.63,0,0,1,0,8.82L105.69,170a131.68,131.68,0,0,0,.66-15.44,38.15,38.15,0,0,0-2.15-12.28A22.52,22.52,0,0,0,105,138.6Z" style="fill:#ebebeb"></path><path d="M68,189.15l12.13,3.43c5,1.41,10.81.16,16.67-3.23a53.65,53.65,0,0,0,16.63-16l8.66-12.49V162l-7,12.43c-5,8.88-11.65,15.73-18.32,19.58s-13.35,4.7-18.37,1.59Z" style="fill:#e0e0e0"></path><path d="M68,189.15l10.44,6.48c5,3.11,11.7,2.26,18.37-1.59s13.33-10.7,18.32-19.58l7-12.43.09,30.39L96.89,207.05l-32.95,19Z" style="fill:#f5f5f5"></path><path d="M92.51,121.21c6.92-4,12.53-.78,12.55,7.16l0,4.8a7.75,7.75,0,0,1-7.6-5.33,21.35,21.35,0,0,1-3.4,4.33c-.15.15-.29.29-.45.43a19.2,19.2,0,0,1-1.84,1.5c-.4.28-.79.53-1.18.76l-.27.14c-.26.15-.52.28-.78.4s-.69.3-1,.42a43.62,43.62,0,0,1-8.48,10v-3C80,134.88,85.6,125.2,92.51,121.21Z" style="fill:#e0e0e0"></path><g style="opacity:0.05"><path d="M92.51,121.21c6.92-4,12.53-.78,12.55,7.16l0,4.8a7.75,7.75,0,0,1-7.6-5.33,21.35,21.35,0,0,1-3.4,4.33c-.15.15-.29.29-.45.43a19.2,19.2,0,0,1-1.84,1.5c-.4.28-.79.53-1.18.76l-.27.14c-.26.15-.52.28-.78.4s-.69.3-1,.42a43.62,43.62,0,0,1-8.48,10v-3C80,134.88,85.6,125.2,92.51,121.21Z"></path></g><path d="M93.42,113c14-8.11,25.47-5.28,25.5,6.31,0,7.32-4.49,16.37-11.35,24.1A29,29,0,0,0,105,138.6a20.71,20.71,0,0,0,.13-2.19v-3.24l0-4.8c0-7.94-5.63-11.15-12.55-7.16S80,134.88,80,142.82v8c0,4,1.47,6.85,3.8,8.12-9.26,2.2-15.8-1.55-15.82-10.32C68,137.06,79.37,121.07,93.42,113Z" style="fill:#f5f5f5"></path><polygon points="49.62 123.81 57.03 128.02 57.32 229.89 49.95 242.64 49.62 123.81" style="fill:#ebebeb"></polygon><polygon points="129.29 77.81 129.63 196.64 122.22 192.42 122.13 162.03 122.13 160.87 122.11 154.5 121.93 90.55 129.29 77.81" style="fill:#ebebeb"></polygon><polygon points="49.62 123.81 129.29 77.81 125.78 75.78 46.1 121.78 49.62 123.81" style="fill:#f5f5f5"></polygon><polygon points="49.95 242.64 49.62 123.81 46.1 121.78 46.1 240.32 49.95 242.64" style="fill:#e0e0e0"></polygon><path d="M101.36,148.86a36.11,36.11,0,0,1-2.49,5.37,28.84,28.84,0,0,1-6.24,7.48V158A25.42,25.42,0,0,0,101.36,148.86Z" style="fill:#e0e0e0"></path><polygon points="174.32 83.01 181.4 88.59 181.42 94.05 157.85 107.65 157.83 102.2 162.32 93.28 166.36 96.41 164.93 100.84 167 96.91 174.32 83.01" style="fill:#e0e0e0"></polygon><path d="M166.57,85.76c1.11-.64,2-.12,2,1.15a4.43,4.43,0,0,1-2,3.47c-1.11.64-2,.12-2-1.15A4.41,4.41,0,0,1,166.57,85.76Z" style="fill:#e0e0e0"></path><polygon points="174.3 127.59 181.39 133.17 181.4 138.62 157.83 152.22 157.81 146.77 162.31 137.85 166.34 140.98 164.91 145.41 166.98 141.48 174.3 127.59" style="fill:#e0e0e0"></polygon><path d="M166.56,130.33c1.11-.64,2-.12,2,1.15a4.39,4.39,0,0,1-2,3.47c-1.11.64-2,.13-2-1.15A4.44,4.44,0,0,1,166.56,130.33Z" style="fill:#e0e0e0"></path></g><g id="freepik--Statue--inject-2"><path d="M253.32,262.17V260h1.2a5.07,5.07,0,0,1,.76-.53,9.15,9.15,0,0,1,3.81-1.09,9.9,9.9,0,0,1,5.6,1.09,5.07,5.07,0,0,1,.76.53h1.17v2.19h0a3.35,3.35,0,0,1-2,2.72,9.19,9.19,0,0,1-3.44,1.06,10.14,10.14,0,0,1-6-1.06,3.29,3.29,0,0,1-1.93-2.72Z" style="fill:#455a64"></path><path d="M253.32,262.17V260h1.2a5.07,5.07,0,0,1,.76-.53,9.15,9.15,0,0,1,3.81-1.09,9.9,9.9,0,0,1,5.6,1.09,5.07,5.07,0,0,1,.76.53h1.17v2.19h0a3.35,3.35,0,0,1-2,2.72,9.19,9.19,0,0,1-3.44,1.06,10.14,10.14,0,0,1-6-1.06,3.29,3.29,0,0,1-1.93-2.72Z" style="fill:#fff;opacity:0.30000000000000004"></path><path d="M255.28,257.25a9.15,9.15,0,0,1,3.81-1.09,9.9,9.9,0,0,1,5.6,1.09c2.59,1.5,2.57,3.94,0,5.44a8.84,8.84,0,0,1-3.44,1.06,10.06,10.06,0,0,1-6-1.05C252.66,261.19,252.67,258.75,255.28,257.25Z" style="fill:#455a64"></path><path d="M255.28,257.25a9.15,9.15,0,0,1,3.81-1.09,9.9,9.9,0,0,1,5.6,1.09c2.59,1.5,2.57,3.94,0,5.44a8.84,8.84,0,0,1-3.44,1.06,10.06,10.06,0,0,1-6-1.05C252.66,261.19,252.67,258.75,255.28,257.25Z" style="fill:#fff;opacity:0.4"></path><path d="M262.49,160.59v99.72h0a1.27,1.27,0,0,1-.74,1,3.37,3.37,0,0,1-1.3.41,3.86,3.86,0,0,1-2.26-.41,1.24,1.24,0,0,1-.72-1h0V160.59Z" style="fill:#455a64"></path><path d="M262.49,160.59v99.72h0a1.27,1.27,0,0,1-.74,1,3.37,3.37,0,0,1-1.3.41,3.86,3.86,0,0,1-2.26-.41,1.24,1.24,0,0,1-.72-1h0V160.59Z" style="fill:#fff;opacity:0.30000000000000004"></path><path d="M253.78,160.72a6,6,0,1,0,6-6A6.05,6.05,0,0,0,253.78,160.72Z" style="fill:#455a64"></path><path d="M253.78,160.72a6,6,0,1,0,6-6A6.05,6.05,0,0,0,253.78,160.72Z" style="fill:#fff;opacity:0.4"></path><path d="M259.1,158.73a2.08,2.08,0,1,0,2.08-2.07A2.08,2.08,0,0,0,259.1,158.73Z" style="fill:#fff"></path><path d="M318.64,224a39.36,39.36,0,0,0,23.54-8,1.89,1.89,0,0,0-2.23-3.05c-10.54,7.72-22.6,9.35-34.88,4.72-19.13-7.2-36.2-28.95-41.51-52.89a1.89,1.89,0,0,0-3.69.82c5.57,25.11,23.61,48,43.87,55.61A42.22,42.22,0,0,0,318.64,224Z" style="fill:#FFBF49"></path><path d="M183.16,234.3a54.07,54.07,0,0,0,18.73-3.56c26.54-9.77,52-38.65,58-65.73a1.89,1.89,0,1,0-3.69-.82c-5.66,25.52-30.62,53.79-55.64,63-10.73,4-26.6,6.34-41.29-4.75a1.89,1.89,0,1,0-2.27,3A42.56,42.56,0,0,0,183.16,234.3Z" style="fill:#FFBF49"></path><g style="opacity:0.30000000000000004"><path d="M318.64,224a39.36,39.36,0,0,0,23.54-8,1.89,1.89,0,0,0-2.23-3.05c-10.54,7.72-22.6,9.35-34.88,4.72-19.13-7.2-36.2-28.95-41.51-52.89a1.89,1.89,0,0,0-3.69.82c5.57,25.11,23.61,48,43.87,55.61A42.22,42.22,0,0,0,318.64,224Z" style="fill:#fff"></path></g><g style="opacity:0.30000000000000004"><path d="M183.16,234.3a54.07,54.07,0,0,0,18.73-3.56c26.54-9.77,52-38.65,58-65.73a1.89,1.89,0,1,0-3.69-.82c-5.66,25.52-30.62,53.79-55.64,63-10.73,4-26.6,6.34-41.29-4.75a1.89,1.89,0,1,0-2.27,3A42.56,42.56,0,0,0,183.16,234.3Z" style="fill:#fff"></path></g><polygon points="248.19 265.3 197.71 294.64 197.69 303.95 248.5 333.29 298.97 303.95 299 294.64 248.19 265.3" style="fill:#FFBF49"></polygon><polygon points="248.52 323.97 248.5 333.29 298.97 303.95 299 294.64 248.52 323.97" style="opacity:0.2"></polygon><polygon points="197.71 294.64 197.69 303.95 248.5 333.29 248.52 323.97 197.71 294.64" style="opacity:0.30000000000000004"></polygon><polygon points="286.74 218.37 248.23 196.13 209.96 218.37 248.48 240.61 286.74 218.37" style="fill:#FFBF49"></polygon><polygon points="286.74 218.37 248.23 196.13 209.96 218.37 248.48 240.61 286.74 218.37" style="opacity:0.1"></polygon><polygon points="248.48 240.61 248.46 316.47 286.72 294.23 286.74 218.37 248.48 240.61" style="fill:#FFBF49"></polygon><polygon points="248.48 240.61 248.46 316.47 286.72 294.23 286.74 218.37 248.48 240.61" style="opacity:0.30000000000000004"></polygon><polygon points="209.96 218.37 209.94 294.23 248.46 316.47 248.48 240.61 209.96 218.37" style="fill:#FFBF49"></polygon><polygon points="209.96 218.37 209.94 294.23 248.46 316.47 248.48 240.61 209.96 218.37" style="opacity:0.4"></polygon><g style="opacity:0.2"><path d="M260.67,212.33c1.11-.64,2-.12,2,1.15l.23,80.38a4.38,4.38,0,0,1-2,3.46c-1.1.64-2,.13-2-1.14l-.23-80.39A4.41,4.41,0,0,1,260.67,212.33Z"></path><path d="M268.69,207.7c1.11-.64,2-.12,2,1.15l.23,80.38a4.4,4.4,0,0,1-2,3.46c-1.1.64-2,.13-2-1.14l-.23-80.39A4.41,4.41,0,0,1,268.69,207.7Z"></path><path d="M276.71,203.07c1.11-.64,2-.12,2,1.15L279,284.6a4.4,4.4,0,0,1-2,3.46c-1.1.64-2,.13-2-1.14l-.23-80.39A4.41,4.41,0,0,1,276.71,203.07Z"></path></g><g style="opacity:0.2"><path d="M236.24,212.33c-1.1-.64-2-.12-2,1.15L234,293.86a4.37,4.37,0,0,0,2,3.46c1.11.64,2,.13,2-1.14l.22-80.39A4.38,4.38,0,0,0,236.24,212.33Z"></path><path d="M228.22,207.7c-1.1-.64-2-.12-2,1.15L226,289.23a4.38,4.38,0,0,0,2,3.46c1.11.64,2,.13,2-1.14l.22-80.39A4.38,4.38,0,0,0,228.22,207.7Z"></path><path d="M220.2,203.07c-1.1-.64-2-.12-2,1.15L218,284.6a4.38,4.38,0,0,0,2,3.46c1.11.64,2,.13,2-1.14l.22-80.39A4.38,4.38,0,0,0,220.2,203.07Z"></path></g><polygon points="248.19 176.59 197.71 205.93 197.69 215.25 248.5 244.58 298.97 215.25 299 205.93 248.19 176.59" style="fill:#FFBF49"></polygon><polygon points="299 205.93 248.19 176.6 197.71 205.93 248.52 235.26 299 205.93" style="opacity:0.1"></polygon><polygon points="248.52 235.26 248.5 244.58 298.97 215.25 299 205.93 248.52 235.26" style="opacity:0.2"></polygon><polygon points="197.71 205.93 197.69 215.25 248.5 244.58 248.52 235.26 197.71 205.93" style="opacity:0.30000000000000004"></polygon><path d="M338.25,113s.85-3.56-1.38-4c0,0,1.92-4-.5-4.84s-5.47,7.3-9,10.6c-.76.84-6.35,5.87-5.28,2.16.91-3.17,1.82-6.18.09-7.43a1,1,0,0,0-1.45.43c-.69,1.49-2.33,4.16-3.26,5.94-1.2,2.26-1,6.7-2.77,8.92-6.1,9.31-13.07,13.79-18.27,20.42L292.09,141c-7.35-7.35-20.46-23.9-30.08-23.47l-.05,22s10,7.52,20.89,15l8.32,6.22a10.53,10.53,0,0,0,15-2.55l17.37-25.81a8.85,8.85,0,0,1,2.87-2.71c2.77-1.64,8.08-5,10-7.37C339.2,118.89,339.57,115.3,338.25,113Z" style="fill:#FFBF49"></path><path d="M338.25,113s.85-3.56-1.38-4c0,0,1.92-4-.5-4.84s-5.47,7.3-9,10.6c-.76.84-6.35,5.87-5.28,2.16.91-3.17,1.82-6.18.09-7.43a1,1,0,0,0-1.45.43c-.69,1.49-2.33,4.16-3.26,5.94-1.2,2.26-1,6.7-2.77,8.92-6.1,9.31-13.07,13.79-18.27,20.42L292.09,141c-7.35-7.35-20.46-23.9-30.08-23.47l-.05,22s10,7.52,20.89,15l8.32,6.22a10.53,10.53,0,0,0,15-2.55l17.37-25.81a8.85,8.85,0,0,1,2.87-2.71c2.77-1.64,8.08-5,10-7.37C339.2,118.89,339.57,115.3,338.25,113Z" style="fill:#fff;opacity:0.2"></path><path d="M262,133.13v6.31s6.8,5.13,15.33,11.13a42.32,42.32,0,0,0-5.83-20.72A77.22,77.22,0,0,1,262,133.13Z" style="opacity:0.2"></path><path d="M226.67,125.17c13.77-6.45,24.09-7.2,35.34-7.68,16.85,10.84,10.54,19.87,10.25,34.35a200.88,200.88,0,0,0,5.2,47.32c-22.07,17.63-51.29,13.49-57.95,9.25C221.08,165.28,219.19,128.27,226.67,125.17Z" style="fill:#FFBF49"></path><path d="M226.67,125.17c13.77-6.45,24.09-7.2,35.34-7.68,16.85,10.84,10.54,19.87,10.25,34.35a200.88,200.88,0,0,0,5.2,47.32c-22.07,17.63-51.29,13.49-57.95,9.25C221.08,165.28,219.19,128.27,226.67,125.17Z" style="fill:#fff;opacity:0.2"></path><path d="M225.66,137.85c-1.36,1.11-2.74,2.27-4.11,3.45-.58,6.2-.86,13.91-1.06,22.68A57.82,57.82,0,0,0,225.66,137.85Z" style="opacity:0.2"></path><path d="M244,116a4.8,4.8,0,0,1-4.93,1.13,5,5,0,0,1-3-4.2,7.06,7.06,0,0,1-5.52-5.83c-.38-2.83,1.79-5.45,4.35-6.71a6.85,6.85,0,0,1-2.5-4.73,7.65,7.65,0,0,1,2.16-5.22,6.09,6.09,0,0,1,2.15-11,7.29,7.29,0,0,1,.84-8.21,7.19,7.19,0,0,1,8-1.56A6.42,6.42,0,0,1,250,66.79a6.53,6.53,0,0,1,5.1,1.29,4,4,0,0,1,3.07-1.74,4.15,4.15,0,0,1,3.34,1.36c1.1-1.79,3.69-2.29,5.74-1.86a6.3,6.3,0,0,1,4.48,4,7.81,7.81,0,0,1-.45,6.1,5.92,5.92,0,0,1,3.12,4.7A5.37,5.37,0,0,1,272,85.42a8.11,8.11,0,0,1,.3,6.49,7.11,7.11,0,0,1-4.65,3.89c-6.45,1.64-11.17,7.9-16.59,11.77C248.06,109.67,246.51,113.4,244,116Z" style="fill:#FFBF49"></path><path d="M244,116a4.8,4.8,0,0,1-4.93,1.13,5,5,0,0,1-3-4.2,7.06,7.06,0,0,1-5.52-5.83c-.38-2.83,1.79-5.45,4.35-6.71a6.85,6.85,0,0,1-2.5-4.73,7.65,7.65,0,0,1,2.16-5.22,6.09,6.09,0,0,1,2.15-11,7.29,7.29,0,0,1,.84-8.21,7.19,7.19,0,0,1,8-1.56A6.42,6.42,0,0,1,250,66.79a6.53,6.53,0,0,1,5.1,1.29,4,4,0,0,1,3.07-1.74,4.15,4.15,0,0,1,3.34,1.36c1.1-1.79,3.69-2.29,5.74-1.86a6.3,6.3,0,0,1,4.48,4,7.81,7.81,0,0,1-.45,6.1,5.92,5.92,0,0,1,3.12,4.7A5.37,5.37,0,0,1,272,85.42a8.11,8.11,0,0,1,.3,6.49,7.11,7.11,0,0,1-4.65,3.89c-6.45,1.64-11.17,7.9-16.59,11.77C248.06,109.67,246.51,113.4,244,116Z" style="opacity:0.30000000000000004"></path><path d="M268.47,81.36a14.46,14.46,0,0,1-9.65,4.06c-3.39,0-6.68-1.08-9.95-2a7.5,7.5,0,0,1-2.25,4.15,8.6,8.6,0,0,1-4.63,2,29.58,29.58,0,0,1,0,9.25,1.73,1.73,0,0,1-1.17,1.42c-1.1.32-1.83-.81-2.37-1.72A7.49,7.49,0,0,0,236,95.89a3.73,3.73,0,0,0-3.45-.35,3.61,3.61,0,0,0-1.82,2.22,6.58,6.58,0,0,0-.15,2.93,8.87,8.87,0,0,0,1.91,4.48,6,6,0,0,0,4.25,2.19,4.4,4.4,0,0,0,4.1-2l.07.3a11.32,11.32,0,0,0,.45,1.43,12.21,12.21,0,0,0,8.93,7.65c2.08.44,4.38.85,6.73,1.21,1.15.17,2.31.34,3.47.48a8.39,8.39,0,0,0,9.25-6.85C271.34,100.63,271.87,90.21,268.47,81.36Z" style="fill:#FFBF49"></path><path d="M268.47,81.36a14.46,14.46,0,0,1-9.65,4.06c-3.39,0-6.68-1.08-9.95-2a7.5,7.5,0,0,1-2.25,4.15,8.6,8.6,0,0,1-4.63,2,29.58,29.58,0,0,1,0,9.25,1.73,1.73,0,0,1-1.17,1.42c-1.1.32-1.83-.81-2.37-1.72A7.49,7.49,0,0,0,236,95.89a3.73,3.73,0,0,0-3.45-.35,3.61,3.61,0,0,0-1.82,2.22,6.58,6.58,0,0,0-.15,2.93,8.87,8.87,0,0,0,1.91,4.48,6,6,0,0,0,4.25,2.19,4.4,4.4,0,0,0,4.1-2l.07.3a11.32,11.32,0,0,0,.45,1.43,12.21,12.21,0,0,0,8.93,7.65c2.08.44,4.38.85,6.73,1.21,1.15.17,2.31.34,3.47.48a8.39,8.39,0,0,0,9.25-6.85C271.34,100.63,271.87,90.21,268.47,81.36Z" style="fill:#fff;opacity:0.2"></path><path d="M241.38,107.07v15.57a17.14,17.14,0,0,0,12.53,6.94,6.06,6.06,0,0,0,4.5-1.15,3.75,3.75,0,0,0,1.12-3.5,3.68,3.68,0,0,0-1.58-2.27A2,2,0,0,1,257,121v-5.06c-2.35-.36-4.65-.77-6.73-1.21A12.21,12.21,0,0,1,241.38,107.07Z" style="fill:#FFBF49"></path><path d="M241.38,107.07v15.57a17.14,17.14,0,0,0,12.53,6.94,6.06,6.06,0,0,0,4.5-1.15,3.75,3.75,0,0,0,1.12-3.5,3.68,3.68,0,0,0-1.58-2.27A2,2,0,0,1,257,121v-5.06c-2.35-.36-4.65-.77-6.73-1.21A12.21,12.21,0,0,1,241.38,107.07Z" style="fill:#fff;opacity:0.2"></path><path d="M251.78,118.15a32.18,32.18,0,0,0,5.26.93v-3.15c-2.35-.36-4.65-.77-6.73-1.21a12.18,12.18,0,0,1-8.63-7,12.45,12.45,0,0,0,3.15,6.52A15,15,0,0,0,251.78,118.15Z" style="opacity:0.2"></path><path d="M234.56,90.43c10.48,3.76,30.4,5.4,38.17-2.26a11.32,11.32,0,0,1,1.13,7.9,8,8,0,0,1-5.45,6.15C257,105.8,242,98.77,232.79,93.31A2.39,2.39,0,0,1,234.56,90.43Z" style="fill:#FFBF49"></path><path d="M234.56,90.43c10.48,3.76,30.4,5.4,38.17-2.26a11.32,11.32,0,0,1,1.13,7.9,8,8,0,0,1-5.45,6.15C257,105.8,242,98.77,232.79,93.31A2.39,2.39,0,0,1,234.56,90.43Z" style="opacity:0.1"></path><g style="opacity:0.2"><path d="M271.84,92.77a60,60,0,0,1-31.54,1.08h0a37.89,37.89,0,0,0,31.54-1.08Z"></path><path d="M271.41,99.06a49.58,49.58,0,0,1-22.3-.18h0a29.23,29.23,0,0,0,22.3.18Z"></path><path d="M270.84,95.08h0a31.53,31.53,0,0,1-13.65,3.3,18.57,18.57,0,0,0,13.65-3.3Z"></path></g><path d="M257,117.74c5.18,6.75-5,39.74-36.69,53.69l.05-3.05-4.13,3.05s1.28,24.79-1.25,37.26c32.24,23,60.17-1.84,64.69-9.37-6.11-22.38-7.79-38.82-7.17-52.12s-4.91-24.47-9.58-29.71l-.67-.68-5.25.24Z" style="fill:#FFBF49"></path><path d="M257,117.74c5.18,6.75-5,39.74-36.69,53.69l.05-3.05-4.13,3.05s1.28,24.79-1.25,37.26c32.24,23,60.17-1.84,64.69-9.37-6.11-22.38-7.79-38.82-7.17-52.12s-4.91-24.47-9.58-29.71l-.67-.68-5.25.24Z" style="opacity:0.2"></path><g style="opacity:0.2"><path d="M225,179.34a39.4,39.4,0,0,0,15.36-7,53.09,53.09,0,0,0,20.18-32.38,48.29,48.29,0,0,0,.29-16.89h0a69.72,69.72,0,0,1-2.46,16.39,62.07,62.07,0,0,1-3.05,8.66,59.76,59.76,0,0,1-4.36,8.35,61.15,61.15,0,0,1-12,14.13A52.19,52.19,0,0,1,225,179.34Z"></path><path d="M254.79,169.51A53.37,53.37,0,0,0,260.37,159a60.33,60.33,0,0,0,4.14-26.66,53.64,53.64,0,0,0-2.13-11.68h0a98.13,98.13,0,0,1-.49,24.92A97.92,97.92,0,0,1,254.79,169.51Z"></path><path d="M218.53,209.53h0A86.67,86.67,0,0,0,252,173.79h0a228.75,228.75,0,0,1-15.67,18.89A226.16,226.16,0,0,1,218.53,209.53Z"></path><path d="M239.9,205.27a61.34,61.34,0,0,0,10.46-9.79A68.64,68.64,0,0,0,265,166.42a61.53,61.53,0,0,0,1.6-14.24h0a118.93,118.93,0,0,1-3.42,13.74,102.67,102.67,0,0,1-6,14.78,101.32,101.32,0,0,1-8.28,13.62A118.09,118.09,0,0,1,239.9,205.27Z"></path><path d="M249.61,211a52,52,0,0,0,8.52-9.39,58.43,58.43,0,0,0,10.36-26.85,52.12,52.12,0,0,0,0-12.68h0a98.42,98.42,0,0,1-1.65,12.42A85.42,85.42,0,0,1,262.91,188a84.56,84.56,0,0,1-6.18,12.67A96.63,96.63,0,0,1,249.61,211Z"></path><path d="M242.26,159a59.35,59.35,0,0,1-23.8,15h0a35.76,35.76,0,0,0,23.8-15Z"></path><path d="M255.1,163.11a79.48,79.48,0,0,1-37.66,29h0a47.75,47.75,0,0,0,11-3.34,53.9,53.9,0,0,0,20.64-15.9A48.12,48.12,0,0,0,255.1,163.11Z"></path></g><path d="M214.67,215l-19.44-34.11a13.71,13.71,0,0,1-.34-11.48L205.7,144a33.08,33.08,0,0,1,18.83-18l2.72-1c1.55,15.24-3.05,22.59-17,49.07,0,0,7.35,24.7,13.1,35.69a41.62,41.62,0,0,1,12.3,8.91,2.24,2.24,0,0,1,.12,2.93l0,0a2.08,2.08,0,0,1-2.57.55c-1.87-1-3.73-2-5.61-2.91a61.07,61.07,0,0,0,7.29,12.07,2.28,2.28,0,0,1-.14,3l0,0a2.29,2.29,0,0,1-2,.69l-6.08-.89a11,11,0,0,1-8.27-6.05A37.42,37.42,0,0,1,214.67,215Z" style="fill:#FFBF49"></path><g style="opacity:0.2"><path d="M214.67,215l-19.44-34.11a13.71,13.71,0,0,1-.34-11.48L205.7,144a33.08,33.08,0,0,1,18.83-18l2.72-1c1.55,15.24-3.05,22.59-17,49.07,0,0,7.35,24.7,13.1,35.69a41.62,41.62,0,0,1,12.3,8.91,2.24,2.24,0,0,1,.12,2.93l0,0a2.08,2.08,0,0,1-2.57.55c-1.87-1-3.73-2-5.61-2.91a61.07,61.07,0,0,0,7.29,12.07,2.28,2.28,0,0,1-.14,3l0,0a2.29,2.29,0,0,1-2,.69l-6.08-.89a11,11,0,0,1-8.27-6.05A37.42,37.42,0,0,1,214.67,215Z" style="fill:#fff"></path></g><path d="M147.68,328v-2.24h1.22a5.48,5.48,0,0,1,.79-.55,9.29,9.29,0,0,1,3.88-1.11,10.23,10.23,0,0,1,5.73,1.11,5.24,5.24,0,0,1,.77.55h1.2V328h0a3.42,3.42,0,0,1-2,2.78,8.92,8.92,0,0,1-3.51,1.08,10.34,10.34,0,0,1-6.1-1.08,3.35,3.35,0,0,1-2-2.78Z" style="fill:#455a64"></path><path d="M147.68,328v-2.24h1.22a5.48,5.48,0,0,1,.79-.55,9.29,9.29,0,0,1,3.88-1.11,10.23,10.23,0,0,1,5.73,1.11,5.24,5.24,0,0,1,.77.55h1.2V328h0a3.42,3.42,0,0,1-2,2.78,8.92,8.92,0,0,1-3.51,1.08,10.34,10.34,0,0,1-6.1-1.08,3.35,3.35,0,0,1-2-2.78Z" style="fill:#fff;opacity:0.30000000000000004"></path><path d="M149.69,323a9.29,9.29,0,0,1,3.88-1.11A10.23,10.23,0,0,1,159.3,323c2.64,1.54,2.63,4,0,5.57a8.92,8.92,0,0,1-3.51,1.08,10.34,10.34,0,0,1-6.1-1.08C147,327,147,324.51,149.69,323Z" style="fill:#455a64"></path><path d="M149.69,323a9.29,9.29,0,0,1,3.88-1.11A10.23,10.23,0,0,1,159.3,323c2.64,1.54,2.63,4,0,5.57a8.92,8.92,0,0,1-3.51,1.08,10.34,10.34,0,0,1-6.1-1.08C147,327,147,324.51,149.69,323Z" style="fill:#fff;opacity:0.4"></path><path d="M157.05,224.22V326.11h0a1.3,1.3,0,0,1-.75,1,3.4,3.4,0,0,1-1.33.41,3.94,3.94,0,0,1-2.31-.41,1.29,1.29,0,0,1-.74-1h0V224.22Z" style="fill:#455a64"></path><path d="M157.05,224.22V326.11h0a1.3,1.3,0,0,1-.75,1,3.4,3.4,0,0,1-1.33.41,3.94,3.94,0,0,1-2.31-.41,1.29,1.29,0,0,1-.74-1h0V224.22Z" style="fill:#fff;opacity:0.30000000000000004"></path><path d="M148.16,224.36a6.18,6.18,0,1,0,6.17-6.18A6.17,6.17,0,0,0,148.16,224.36Z" style="fill:#455a64"></path><path d="M148.16,224.36a6.18,6.18,0,1,0,6.17-6.18A6.17,6.17,0,0,0,148.16,224.36Z" style="fill:#fff;opacity:0.4"></path><path d="M153.59,222.33a2.12,2.12,0,1,0,2.12-2.12A2.12,2.12,0,0,0,153.59,222.33Z" style="fill:#fff"></path><path d="M338.73,317.11v-2.24H340a5.48,5.48,0,0,1,.79-.55,9.29,9.29,0,0,1,3.88-1.11,10.23,10.23,0,0,1,5.73,1.11,5.24,5.24,0,0,1,.77.55h1.2v2.24h0a3.4,3.4,0,0,1-2,2.78A8.92,8.92,0,0,1,346.8,321a10.34,10.34,0,0,1-6.1-1.08,3.35,3.35,0,0,1-2-2.78Z" style="fill:#455a64"></path><path d="M338.73,317.11v-2.24H340a5.48,5.48,0,0,1,.79-.55,9.29,9.29,0,0,1,3.88-1.11,10.23,10.23,0,0,1,5.73,1.11,5.24,5.24,0,0,1,.77.55h1.2v2.24h0a3.4,3.4,0,0,1-2,2.78A8.92,8.92,0,0,1,346.8,321a10.34,10.34,0,0,1-6.1-1.08,3.35,3.35,0,0,1-2-2.78Z" style="fill:#fff;opacity:0.30000000000000004"></path><path d="M340.74,312.08a9.29,9.29,0,0,1,3.88-1.11,10.23,10.23,0,0,1,5.73,1.11c2.64,1.54,2.63,4,0,5.57a8.92,8.92,0,0,1-3.51,1.08,10.34,10.34,0,0,1-6.1-1.08C338.06,316.11,338.07,313.62,340.74,312.08Z" style="fill:#455a64"></path><path d="M340.74,312.08a9.29,9.29,0,0,1,3.88-1.11,10.23,10.23,0,0,1,5.73,1.11c2.64,1.54,2.63,4,0,5.57a8.92,8.92,0,0,1-3.51,1.08,10.34,10.34,0,0,1-6.1-1.08C338.06,316.11,338.07,313.62,340.74,312.08Z" style="fill:#fff;opacity:0.4"></path><path d="M348.1,213.33V315.22h0a1.3,1.3,0,0,1-.75,1,3.52,3.52,0,0,1-1.33.41,4,4,0,0,1-2.31-.41,1.29,1.29,0,0,1-.74-1h0V213.33Z" style="fill:#455a64"></path><path d="M348.1,213.33V315.22h0a1.3,1.3,0,0,1-.75,1,3.52,3.52,0,0,1-1.33.41,4,4,0,0,1-2.31-.41,1.29,1.29,0,0,1-.74-1h0V213.33Z" style="fill:#fff;opacity:0.30000000000000004"></path><path d="M339.21,213.47a6.18,6.18,0,1,0,6.17-6.18A6.17,6.17,0,0,0,339.21,213.47Z" style="fill:#455a64"></path><path d="M339.21,213.47a6.18,6.18,0,1,0,6.17-6.18A6.17,6.17,0,0,0,339.21,213.47Z" style="fill:#fff;opacity:0.4"></path><path d="M344.64,211.43a2.12,2.12,0,1,0,2.12-2.12A2.12,2.12,0,0,0,344.64,211.43Z" style="fill:#fff"></path><path d="M213.87,288a40.25,40.25,0,0,0,24-8.22,1.93,1.93,0,0,0-2.28-3.12c-10.77,7.88-23.09,9.55-35.64,4.83-19.55-7.37-37-29.59-42.41-54a1.93,1.93,0,0,0-3.77.83c5.69,25.66,24.12,49,44.82,56.82A43.22,43.22,0,0,0,213.87,288Z" style="fill:#FFBF49"></path><path d="M266.89,288.75A55.31,55.31,0,0,0,286,285.11c27.1-10,53.15-39.48,59.29-67.16a1.93,1.93,0,0,0-3.77-.84c-5.79,26.09-31.29,55-56.86,64.38-11,4-27.18,6.48-42.18-4.85a1.93,1.93,0,1,0-2.32,3.08A43.53,43.53,0,0,0,266.89,288.75Z" style="fill:#FFBF49"></path><g style="opacity:0.5"><path d="M213.87,288a40.25,40.25,0,0,0,24-8.22,1.93,1.93,0,0,0-2.28-3.12c-10.77,7.88-23.09,9.55-35.64,4.83-19.55-7.37-37-29.59-42.41-54a1.93,1.93,0,0,0-3.77.83c5.69,25.66,24.12,49,44.82,56.82A43.22,43.22,0,0,0,213.87,288Z" style="fill:#fff"></path></g><g style="opacity:0.5"><path d="M266.89,288.75A55.31,55.31,0,0,0,286,285.11c27.1-10,53.15-39.48,59.29-67.16a1.93,1.93,0,0,0-3.77-.84c-5.79,26.09-31.29,55-56.86,64.38-11,4-27.18,6.48-42.18-4.85a1.93,1.93,0,1,0-2.32,3.08A43.53,43.53,0,0,0,266.89,288.75Z" style="fill:#fff"></path></g><path d="M232.41,376.09v-2.24h1.23a5.36,5.36,0,0,1,.78-.55,9.34,9.34,0,0,1,3.89-1.11A10.21,10.21,0,0,1,244,373.3a5.24,5.24,0,0,1,.77.55H246v2.23h0a3.39,3.39,0,0,1-2,2.78,9,9,0,0,1-3.52,1.08,10.29,10.29,0,0,1-6.09-1.08,3.36,3.36,0,0,1-2-2.78Z" style="fill:#455a64"></path><path d="M232.41,376.09v-2.24h1.23a5.36,5.36,0,0,1,.78-.55,9.34,9.34,0,0,1,3.89-1.11A10.21,10.21,0,0,1,244,373.3a5.24,5.24,0,0,1,.77.55H246v2.23h0a3.39,3.39,0,0,1-2,2.78,9,9,0,0,1-3.52,1.08,10.29,10.29,0,0,1-6.09-1.08,3.36,3.36,0,0,1-2-2.78Z" style="fill:#fff;opacity:0.30000000000000004"></path><path d="M234.42,371.06a9.34,9.34,0,0,1,3.89-1.11,10.21,10.21,0,0,1,5.72,1.11c2.64,1.54,2.63,4,0,5.57a9,9,0,0,1-3.52,1.08,10.29,10.29,0,0,1-6.09-1.08C231.74,375.09,231.75,372.6,234.42,371.06Z" style="fill:#455a64"></path><path d="M234.42,371.06a9.34,9.34,0,0,1,3.89-1.11,10.21,10.21,0,0,1,5.72,1.11c2.64,1.54,2.63,4,0,5.57a9,9,0,0,1-3.52,1.08,10.29,10.29,0,0,1-6.09-1.08C231.74,375.09,231.75,372.6,234.42,371.06Z" style="fill:#fff;opacity:0.4"></path><path d="M241.78,272.31V374.19h0a1.3,1.3,0,0,1-.75,1,3.52,3.52,0,0,1-1.33.41,4,4,0,0,1-2.31-.41,1.29,1.29,0,0,1-.74-1h0V272.31Z" style="fill:#455a64"></path><path d="M241.78,272.31V374.19h0a1.3,1.3,0,0,1-.75,1,3.52,3.52,0,0,1-1.33.41,4,4,0,0,1-2.31-.41,1.29,1.29,0,0,1-.74-1h0V272.31Z" style="fill:#fff;opacity:0.30000000000000004"></path><path d="M232.89,272.45a6.18,6.18,0,1,0,6.17-6.18A6.17,6.17,0,0,0,232.89,272.45Z" style="fill:#455a64"></path><path d="M232.89,272.45a6.18,6.18,0,1,0,6.17-6.18A6.17,6.17,0,0,0,232.89,272.45Z" style="fill:#fff;opacity:0.4"></path><circle cx="240.44" cy="270.41" r="2.12" style="fill:#fff"></circle></g><g id="freepik--character-2--inject-2"><path d="M362.25,216.86c-.89,1.67-1.78,3.35-2.68,5l2.39,1.61C362.09,221.35,362.11,219,362.25,216.86Z" style="fill:#f28f8f"></path><path d="M384.72,236.45c5.6-4.48,10.24,3.92,13.63,13.28,2.06,5.68,4.17,11.22,5.51,14.7a7.05,7.05,0,0,1-.95,6.79l-10,13.26-4.45-9.63,5.52-8.38-5.62-10.28Z" style="fill:#FFBF49"></path><path d="M331.06,281a29.2,29.2,0,0,1-9.56,2.78,17.78,17.78,0,0,1-9.72-1.68,13.16,13.16,0,0,1-6.45-7.45l0,0a3.06,3.06,0,0,1,3.81-.57,12.7,12.7,0,0,0,9.57,1.15,21.88,21.88,0,0,1-2.7-3.38c-.39-.6-.75-1.39-.35-2a1.35,1.35,0,0,1,1.52-.41,4.44,4.44,0,0,1,1.43.92,19.28,19.28,0,0,0,8.36,3.91C328.24,276.38,329.81,278.88,331.06,281Z" style="fill:#ffc0bf"></path><path d="M348.38,410.69a4,4,0,0,0,2.91.81,34,34,0,0,0,9.25-1.29,19,19,0,0,0,4.86-2,13.15,13.15,0,0,0,4.28-4.37,34.67,34.67,0,0,1-.7-5.92c-2.55,0-5.2,0-7.76,0V402a40.05,40.05,0,0,1-12.79,5.63,2,2,0,0,0-.57.85A2.16,2.16,0,0,0,348.38,410.69Z" style="fill:#ffc0bf"></path><path d="M370.28,406.34c-.23-.84-.43-1.68-.6-2.53a13.15,13.15,0,0,1-4.28,4.37,19,19,0,0,1-4.86,2,34,34,0,0,1-9.25,1.29,4,4,0,0,1-2.91-.81,2.16,2.16,0,0,1-.52-2.18,2,2,0,0,1,.57-.85c-.35.08-.69.17-1,.24a10.47,10.47,0,0,0-3.53,1.15,3,3,0,0,0-1.49,3.14,3.9,3.9,0,0,0,2.41,2.21,17.79,17.79,0,0,0,12.62.67c2.55-.83,5-2.27,7.7-2.19,1.53,0,3.21.55,4.5-.29a3.44,3.44,0,0,0,1.36-2.94A12.66,12.66,0,0,0,370.28,406.34Z" style="fill:#FFBF49"></path><path d="M379.93,381.34a2.92,2.92,0,0,0-2.58,2.42c-.08,1.23.87,2.25,1.74,3.1l3.36,3.27a7.78,7.78,0,0,0,3.2,2.2,4.39,4.39,0,0,0,3.76-.8,5.35,5.35,0,0,0,1.49-1.81c-.11-.76-.2-1.52-.35-2.28a6,6,0,0,0-1-2.71c-1.07-1.32-2.8-1.5-4.37-1.66a5.72,5.72,0,0,1-3-1.6A6.06,6.06,0,0,0,379.93,381.34Z" style="fill:#ffc0bf"></path><path d="M390.9,389.72a5.35,5.35,0,0,1-1.49,1.81,4.39,4.39,0,0,1-3.76.8,7.78,7.78,0,0,1-3.2-2.2l-3.36-3.27c-.87-.85-1.82-1.87-1.74-3.1a2.92,2.92,0,0,1,2.58-2.42,6.06,6.06,0,0,1,2.24.13l-.33-.24a15.13,15.13,0,0,0-2.75-1.54,4.89,4.89,0,0,0-3.32-.44,3.58,3.58,0,0,0-2.28,3.3,6.21,6.21,0,0,0,1.44,3.94,28.59,28.59,0,0,0,3,3.06,36.61,36.61,0,0,1,3.83,4.33,22,22,0,0,0,2.71,3.3,5.5,5.5,0,0,0,3.84,1.63,3.26,3.26,0,0,0,2.86-1.82,5.26,5.26,0,0,0,.25-2.24A50.06,50.06,0,0,0,390.9,389.72Z" style="fill:#FFBF49"></path><path d="M356.14,291c-2.36,29.76-.59,60.77-.59,60.77S359.66,385,360.26,399c3.36,3.32,9.8,0,9.8,0,1.84-24.31,6.71-33.67,1.4-48.8l3.8-34.88,1.51,28,5.74,43.63c3.49,2.54,8,0,8,0,1.86-21.38,6.23-31.1,0-48.49,7.46-34.62,5-47.78,4-51.27Z" style="fill:#263238"></path><path d="M356.14,291c-2.36,29.76-.59,60.77-.59,60.77S359.66,385,360.26,399c3.36,3.32,9.8,0,9.8,0,1.84-24.31,6.71-33.67,1.4-48.8l3.8-34.88,1.51,28,5.74,43.63c3.49,2.54,8,0,8,0,1.86-21.38,6.23-31.1,0-48.49,7.46-34.62,5-47.78,4-51.27Z" style="opacity:0.4"></path><path d="M356.14,291c-2.36,29.76-.59,60.77-.59,60.77S359.66,385,360.26,399c3.36,3.32,9.8,0,9.8,0,1.84-24.31,6.71-33.67,1.4-48.8l3.8-34.88,1.51,28,5.74,43.63c3.49,2.54,8,0,8,0,1.86-21.38,6.23-31.1,0-48.49,7.46-34.62,5-47.78,4-51.27Z" style="fill:#fff;opacity:0.1"></path><path d="M384.72,236.45c5.6-4.48,10.24,3.92,13.63,13.28,2.06,5.68,4.17,11.22,5.51,14.7a7.05,7.05,0,0,1-.95,6.79l-10,13.26-4.45-9.63,5.52-8.38-5.62-10.28Z" style="fill:#fff;opacity:0.2"></path><path d="M366.16,239.27c5-1.55,19.58-4.73,23.28-1.4,3.22,2.91,5.32,12.94,1,25.82a15.32,15.32,0,0,0,.51,11.24,66.86,66.86,0,0,1,4.41,12.66c-11.71,11.94-32.34,10.09-40.15,5a190.11,190.11,0,0,1,2.46-28.5Z" style="fill:#FFBF49"></path><path d="M366.16,239.27c5-1.55,19.58-4.73,23.28-1.4,3.22,2.91,5.32,12.94,1,25.82a15.32,15.32,0,0,0,.51,11.24,66.86,66.86,0,0,1,4.41,12.66c-11.71,11.94-32.34,10.09-40.15,5a190.11,190.11,0,0,1,2.46-28.5Z" style="fill:#fff;opacity:0.4"></path><path d="M366.16,239.27c5-1.55,19.58-4.73,23.28-1.4,3.22,2.91,5.32,12.94,1,25.82a15.32,15.32,0,0,0,.51,11.24,66.86,66.86,0,0,1,4.41,12.66c-11.71,11.94-32.34,10.09-40.15,5a190.11,190.11,0,0,1,2.46-28.5Z" style="fill:#fff;opacity:0.1"></path><path d="M362.65,212.9a8.4,8.4,0,0,1-4.1-7.87,10.13,10.13,0,0,1,5.12-7.7,11.89,11.89,0,0,1,9.31-.86c2.7.84,5.09,2.56,7.87,3.12,2.41.49,5,.07,7.27,1,2.85,1.17,4.51,4.2,5.24,7.2a20.28,20.28,0,0,1-1.07,12.7,26.76,26.76,0,0,1-9.93,10.85c-3.83,4.58-10.65,1.58-13.55-2.3S362.65,212.9,362.65,212.9Z" style="fill:#263238"></path><path d="M364.4,209.56a19.31,19.31,0,0,0-3,8.67,58.41,58.41,0,0,0-.13,9.26,5.9,5.9,0,0,0,.85,3.42,4.69,4.69,0,0,0,3.8,1.5c1.42,0,2.7,0,4.24,0l.3,6.39c5.05,2.8,10.72.85,12.19-1.14l-.26-6.26c-7.84,1.47-12.08-1.22-12.81-6.08a5.5,5.5,0,0,0,4.53-1.18,5.19,5.19,0,0,0,1.49-4.29,3.43,3.43,0,0,0-.82-1.91,3.07,3.07,0,0,0-3.2-.67,4.9,4.9,0,0,0-2.54,2.25,12.51,12.51,0,0,0-1.17,3.25,2.92,2.92,0,0,1-.95-3.18c.21-.58.63-1.13.54-1.74s-.8-1.11-1.13-1.73a2.32,2.32,0,0,1-.12-1.72,6.9,6.9,0,0,1,.76-1.6A15.63,15.63,0,0,0,364.4,209.56Z" style="fill:#ffc0bf"></path><path d="M394.62,227.85a28.22,28.22,0,0,1-6.27-10.16,18.51,18.51,0,0,1-.14-11.81,11.9,11.9,0,0,1,3.76-5.54,8.14,8.14,0,0,1,6.36-1.73c3.54.65,6.07,4.06,6.71,7.59s-.26,7.17-1.41,10.57c-1.43,4.25-4.72,9.48-4.15,15.49A30.84,30.84,0,0,1,394.62,227.85Z" style="fill:#263238"></path><path d="M366.16,239.27c-9.23-4-10.29,4.77-15.36,14.12-3.11,6-6.94,11.81-6.94,11.81a69.71,69.71,0,0,1-17.09,7.86c-2,5.3,2.65,10.5,2.65,10.5l19.82-8.63a18,18,0,0,0,8.11-7.05C364.49,256.31,369.71,248.11,366.16,239.27Z" style="fill:#FFBF49"></path><path d="M366.16,239.27c-9.23-4-10.29,4.77-15.36,14.12-3.11,6-6.94,11.81-6.94,11.81a69.71,69.71,0,0,1-17.09,7.86c-2,5.3,2.65,10.5,2.65,10.5l19.82-8.63a18,18,0,0,0,8.11-7.05C364.49,256.31,369.71,248.11,366.16,239.27Z" style="fill:#fff;opacity:0.2"></path><path d="M388.07,300.75a17.87,17.87,0,0,1-11.71,4.36l-1.1,10.18,1,18.7,2.05-27A13.86,13.86,0,0,0,388.07,300.75Z" style="opacity:0.30000000000000004"></path></g><g id="freepik--character-1--inject-2"><path d="M144.43,220.58h0a5.77,5.77,0,0,1,3.58,2.81l3.92,7.15,12.8,14.63a34.76,34.76,0,0,1,7.76,15.27h0a7.15,7.15,0,0,1-1.85,6.55h0a7.15,7.15,0,0,1-10.11.12l-4.27-4.19.93-6.58-11.1-21.62L140,231.14a5,5,0,0,1-2.42-3.52l-.47-2.83Z" style="fill:#8f5453"></path><path d="M109.23,264.13l-2.37,5,5.65,6.22-.41,14.85L93.88,274.35a4.93,4.93,0,0,1-1.21-5.86l5.56-11.56Z" style="fill:#8f5453"></path><path d="M103.61,273.56a11.48,11.48,0,0,0,3.25-4.45l1.41,1.55A7.28,7.28,0,0,1,103.61,273.56Z" style="fill:#693635"></path><path d="M109.68,265.33c-7.24-.64-12.17-8.14-12.17-8.14,6.48-13.26,12.13-28,23.43-24.48Z" style="fill:#37474f"></path><path d="M116.12,246.68l-6.44,18.65a13.71,13.71,0,0,1-6.23-2.31A37.81,37.81,0,0,1,116.12,246.68Z" style="fill:#263238"></path><path d="M137.93,421.22c.68,2.16,3,3.39,5.29,3.57s4.47-.46,6.69-.86c5-.9,9.77,0,14.73-.13a20.77,20.77,0,0,0,4.85-.52,8.11,8.11,0,0,0,4.14-2.44,5.39,5.39,0,0,0,1.19-2.6,5.14,5.14,0,0,1-1.19,4.05,8,8,0,0,1-4.14,2.44,20.78,20.78,0,0,1-4.85.53c-5,.12-9.75-.78-14.73.12-2.22.41-4.44,1-6.69.86s-4.61-1.41-5.29-3.56a5.71,5.71,0,0,1-.18-2.29A4.73,4.73,0,0,0,137.93,421.22Z" style="fill:#455a64"></path><path d="M138.05,417.1c.31-1.5.61-3,.92-4.52a6.85,6.85,0,0,1,.76-2.3,2.31,2.31,0,0,1,2-1.15c2.72-.36,6.55-1.34,8.81.21a20.31,20.31,0,0,0,12.18,3.54c2.25-.08,4.5-.54,6.74-.27s4.56,1.52,5.22,3.67a4.34,4.34,0,0,1,.12,2,5.39,5.39,0,0,1-1.19,2.6,8.11,8.11,0,0,1-4.14,2.44,20.77,20.77,0,0,1-4.85.52c-5,.12-9.75-.77-14.73.13-2.22.4-4.44,1-6.69.86s-4.61-1.41-5.29-3.57a4.73,4.73,0,0,1-.18-.83A10.81,10.81,0,0,1,138.05,417.1Z" style="fill:#455a64"></path><g style="opacity:0.5"><path d="M137.93,421.22c.68,2.16,3,3.39,5.29,3.57s4.47-.46,6.69-.86c5-.9,9.77,0,14.73-.13a20.77,20.77,0,0,0,4.85-.52,8.11,8.11,0,0,0,4.14-2.44,5.39,5.39,0,0,0,1.19-2.6,5.14,5.14,0,0,1-1.19,4.05,8,8,0,0,1-4.14,2.44,20.78,20.78,0,0,1-4.85.53c-5,.12-9.75-.78-14.73.12-2.22.41-4.44,1-6.69.86s-4.61-1.41-5.29-3.56a5.71,5.71,0,0,1-.18-2.29A4.73,4.73,0,0,0,137.93,421.22Z" style="fill:#fff;opacity:0.6000000000000001"></path><path d="M138.05,417.1c.31-1.5.61-3,.92-4.52a6.85,6.85,0,0,1,.76-2.3,2.31,2.31,0,0,1,2-1.15c2.72-.36,6.55-1.34,8.81.21a20.31,20.31,0,0,0,12.18,3.54c2.25-.08,4.5-.54,6.74-.27s4.56,1.52,5.22,3.67a4.34,4.34,0,0,1,.12,2,5.39,5.39,0,0,1-1.19,2.6,8.11,8.11,0,0,1-4.14,2.44,20.77,20.77,0,0,1-4.85.52c-5,.12-9.75-.77-14.73.13-2.22.4-4.44,1-6.69.86s-4.61-1.41-5.29-3.57a4.73,4.73,0,0,1-.18-.83A10.81,10.81,0,0,1,138.05,417.1Z" style="fill:#fff"></path></g><path d="M151.22,404.61l.2,5.89a2.33,2.33,0,0,1-2.17,2.4,36.61,36.61,0,0,1-5.93,0,3.36,3.36,0,0,1-3-3.16l-.24-4.34Z" style="fill:#8f5453"></path><path d="M112.79,401.48a4,4,0,0,0,3.57,4,7,7,0,0,0,6.89-2.84c.74-1.07,1.16-2.34,1.86-3.43a15.38,15.38,0,0,1,3.87-3.76,16.43,16.43,0,0,0,3.89-3.73,5.51,5.51,0,0,0,.75-5,4.19,4.19,0,0,1,.36.62,5.62,5.62,0,0,1-.7,5.3,16.51,16.51,0,0,1-4,3.85,16,16,0,0,0-4,3.88c-.71,1.13-1.14,2.43-1.9,3.53a7.11,7.11,0,0,1-7,2.93,4.55,4.55,0,0,1-2.84-1.61,5.5,5.5,0,0,1-.82-3.39C112.77,401.73,112.78,401.6,112.79,401.48Z" style="fill:#455a64"></path><path d="M114.57,394.09c1.79-3.14,5.48-5.42,8.33-7.64a10.63,10.63,0,0,1,5.52-2.5,5.17,5.17,0,0,1,5.14,2.62,1.77,1.77,0,0,0,.06.17,5.51,5.51,0,0,1-.75,5,16.43,16.43,0,0,1-3.89,3.73,15.38,15.38,0,0,0-3.87,3.76c-.7,1.09-1.12,2.36-1.86,3.43a7,7,0,0,1-6.89,2.84,4,4,0,0,1-3.57-4,8,8,0,0,1,0-.85A13.93,13.93,0,0,1,114.57,394.09Z" style="fill:#455a64"></path><g style="opacity:0.5"><path d="M112.79,401.48a4,4,0,0,0,3.57,4,7,7,0,0,0,6.89-2.84c.74-1.07,1.16-2.34,1.86-3.43a15.38,15.38,0,0,1,3.87-3.76,16.43,16.43,0,0,0,3.89-3.73,5.51,5.51,0,0,0,.75-5,4.19,4.19,0,0,1,.36.62,5.62,5.62,0,0,1-.7,5.3,16.51,16.51,0,0,1-4,3.85,16,16,0,0,0-4,3.88c-.71,1.13-1.14,2.43-1.9,3.53a7.11,7.11,0,0,1-7,2.93,4.55,4.55,0,0,1-2.84-1.61,5.5,5.5,0,0,1-.82-3.39C112.77,401.73,112.78,401.6,112.79,401.48Z" style="fill:#fff;opacity:0.6000000000000001"></path><path d="M114.57,394.09c1.79-3.14,5.48-5.42,8.33-7.64a10.63,10.63,0,0,1,5.52-2.5,5.17,5.17,0,0,1,5.14,2.62,1.77,1.77,0,0,0,.06.17,5.51,5.51,0,0,1-.75,5,16.43,16.43,0,0,1-3.89,3.73,15.38,15.38,0,0,0-3.87,3.76c-.7,1.09-1.12,2.36-1.86,3.43a7,7,0,0,1-6.89,2.84,4,4,0,0,1-3.57-4,8,8,0,0,1,0-.85A13.93,13.93,0,0,1,114.57,394.09Z" style="fill:#fff"></path></g><path d="M122.33,391.37v5.35a9,9,0,0,1-8.32-.37l-.5-4.81Z" style="fill:#8f5453"></path><path d="M144.43,220.58c1.22,3.15.59,6.58-.93,7.93s-5.63.22-5.63.22Z" style="fill:#693635"></path><path d="M112.1,294.31c-1.6,4.81.37,27.68,1.31,49.62-3.48,8.29-2.54,31.83-.54,48.54,0,0,3.48,2.14,9.77,0l7.89-46.14,1.09-26.07s2,23.13,4.26,38c-2.14,11.37-1.61,13.51,3.67,48.47a13.19,13.19,0,0,0,11.84,0c3-49.12,1.89-93.89,1.32-110Z" style="fill:#FFBF49"></path><path d="M112.1,294.31c-1.6,4.81.37,27.68,1.31,49.62-3.48,8.29-2.54,31.83-.54,48.54,0,0,3.48,2.14,9.77,0l7.89-46.14,1.09-26.07s2,23.13,4.26,38c-2.14,11.37-1.61,13.51,3.67,48.47a13.19,13.19,0,0,0,11.84,0c3-49.12,1.89-93.89,1.32-110Z" style="opacity:0.4"></path><path d="M131,336.14l.9-21.27c-5.5,0-10.6-4.11-14.48-8,3.73,6.64,10.95,9.58,10.95,9.58Z" style="opacity:0.30000000000000004"></path><path d="M153.55,256.37V298C129,308.3,113.13,299,111,294.18c1.13-16.95-2.87-36.78-2.57-45.21s1.35-17.92,14.41-16l13.9,1.36,7,1.71Z" style="fill:#37474f"></path><path d="M153.55,261.73,143.5,250.68a48.1,48.1,0,0,0,10.05,20.65Z" style="fill:#263238"></path><path d="M167.72,254.14l-13.17-13A18.54,18.54,0,0,0,143.73,236l-.24,0c-5.58,12.22,1.8,18.18,1.8,18.18l12.24,11.25A22.12,22.12,0,0,0,167.72,254.14Z" style="fill:#37474f"></path><path d="M143.37,205.7a2,2,0,0,0,.29-2.17,2.5,2.5,0,0,0,2.07-.29,1.91,1.91,0,0,0,.9-1.77,1.59,1.59,0,0,0-1.34-1.41,2.76,2.76,0,0,0,2.09-2.93,3.39,3.39,0,0,0-2.33-2.58,8,8,0,0,0-3.62-.19,2.9,2.9,0,0,0-1.52-3.43,3.56,3.56,0,0,0-3.33.54,10.38,10.38,0,0,0-2.35,2.59,10.35,10.35,0,0,0-14.73,5.75,7.07,7.07,0,0,0-4.6,4.8,11.16,11.16,0,0,0,.39,6.73,30.76,30.76,0,0,0,3.15,6.08l1.74,2.75c.73,1.15,2.59,4,3.32,5.16a10.79,10.79,0,0,0,10.27-.63,17.42,17.42,0,0,0,6.6-8.19A55.69,55.69,0,0,0,143.37,205.7Z" style="fill:#263238"></path><path d="M127.93,226.53a9.9,9.9,0,0,1-4.51-1l0,0,0,0-1.64-2.56c-.66-1-1.31-2-1.68-2.61l-1.74-2.75a30.57,30.57,0,0,1-3.16-6.11,11.31,11.31,0,0,1-.4-6.84,7.23,7.23,0,0,1,4.64-4.89,10.92,10.92,0,0,1,6.12-6.32,10.71,10.71,0,0,1,8.68.49,10.36,10.36,0,0,1,2.31-2.51,3.73,3.73,0,0,1,3.5-.57,3.13,3.13,0,0,1,1.7,3.39,8,8,0,0,1,3.43.24,3.5,3.5,0,0,1,2.44,2.72,2.75,2.75,0,0,1-.53,2,3.28,3.28,0,0,1-1.15,1,1.85,1.85,0,0,1,.94,1.39,2.1,2.1,0,0,1-1,1.94,2.79,2.79,0,0,1-1.88.39,1.94,1.94,0,0,1-.41,2,55.16,55.16,0,0,1-3,10.79,17.54,17.54,0,0,1-6.66,8.27A11.5,11.5,0,0,1,127.93,226.53Zm-4.31-1.33a10.58,10.58,0,0,0,10.06-.65,17.51,17.51,0,0,0,6.53-8.11,55.83,55.83,0,0,0,3-10.77v-.06l0,0a1.77,1.77,0,0,0,.25-2l-.18-.38.4.14a2.28,2.28,0,0,0,1.91-.27,1.74,1.74,0,0,0,.83-1.6,1.43,1.43,0,0,0-1.19-1.25l-1.29-.16,1.29-.19a2.49,2.49,0,0,0,1.47-1,2.33,2.33,0,0,0,.46-1.71,3.22,3.22,0,0,0-2.2-2.44,8.09,8.09,0,0,0-3.55-.19l-.28,0,.1-.27a2.76,2.76,0,0,0-1.43-3.21,3.4,3.4,0,0,0-3.16.53,10.22,10.22,0,0,0-2.31,2.55l-.09.12-.13-.07a10.46,10.46,0,0,0-8.53-.55,10.6,10.6,0,0,0-6,6.2l0,.08-.09,0a7,7,0,0,0-4.49,4.68,11.18,11.18,0,0,0,.4,6.63,30.36,30.36,0,0,0,3.13,6l1.74,2.76c.36.58,1,1.59,1.67,2.6S123.26,224.62,123.62,225.2Z" style="fill:#272525"></path><path d="M145,212.84l2.19,3.81-2.17.8A44.32,44.32,0,0,0,145,212.84Z" style="fill:#693635"></path><path d="M143.37,205.7a31.12,31.12,0,0,1,1.59,7.14,44.32,44.32,0,0,1,0,4.61,43.49,43.49,0,0,1-.75,6.45,7,7,0,0,1-1.27,3.24,5,5,0,0,1-3.51,1.61,14.56,14.56,0,0,1-3.94-.38v6.26c-4.75,1.12-8.68,1.61-12.41-1.25l.4-8a11.61,11.61,0,0,0,6.68-1.05c3.28-1.77,4.2-4.6,3.74-6.18a2.46,2.46,0,0,1-2.57.9,3.4,3.4,0,0,1-2.12-1.69,7.08,7.08,0,0,1-.8-2.66,4.85,4.85,0,0,1,.49-3.3,3.45,3.45,0,0,1,3.71-1.25,5.35,5.35,0,0,1,3.13,2.61,8.08,8.08,0,0,1,.55,1.2.74.74,0,0,0,1.44-.18,10,10,0,0,0-.94-5.24,3.81,3.81,0,0,0,1.75.41,2.22,2.22,0,0,0,1.68-.78,1.5,1.5,0,0,0,.06-1.78A2.92,2.92,0,0,0,143.37,205.7Z" style="fill:#8f5453"></path></g></svg>
